<ttFont>
    <TTGlyph name="A" xMin="21" yMin="0" xMax="1847" yMax="1563">
      <contour>
        <pt x="755" y="1563" on="1"/>
        <pt x="1091" y="1563" on="1"/>
        <pt x="1847" y="0" on="1"/>
        <pt x="1514" y="0" on="1"/>
        <pt x="1389" y="263" on="1"/>
        <pt x="476" y="263" on="1"/>
        <pt x="355" y="0" on="1"/>
        <pt x="21" y="0" on="1"/>
      </contour>
      <contour>
        <pt x="1264" y="524" on="1"/>
        <pt x="926" y="1234" on="1"/>
        <pt x="597" y="524" on="1"/>
      </contour>
    </TTGlyph>
    <TTGlyph name="AE" xMin="4" yMin="0" xMax="2653" yMax="1563">
      <contour>
        <pt x="1193" y="1563" on="1"/>
        <pt x="2503" y="1563" on="1"/>
        <pt x="2503" y="1285" on="1"/>
        <pt x="1618" y="1285" on="1"/>
        <pt x="1618" y="973" on="1"/>
        <pt x="2387" y="973" on="1"/>
        <pt x="2387" y="712" on="1"/>
        <pt x="1618" y="712" on="1"/>
        <pt x="1618" y="277" on="1"/>
        <pt x="2524" y="277" on="1"/>
        <pt x="2524" y="0" on="1"/>
        <pt x="1301" y="0" on="1"/>
        <pt x="1301" y="263" on="1"/>
        <pt x="546" y="263" on="1"/>
        <pt x="348" y="0" on="1"/>
        <pt x="4" y="0" on="1"/>
      </contour>
      <contour>
        <pt x="1301" y="524" on="1"/>
        <pt x="1301" y="1264" on="1"/>
        <pt x="743" y="524" on="1"/>
      </contour>
      <contour>
        <pt x="1301" y="1563" on="1"/>
        <pt x="2632" y="1563" on="1"/>
        <pt x="2632" y="1285" on="1"/>
        <pt x="1618" y="1285" on="1"/>
        <pt x="1618" y="973" on="1"/>
        <pt x="2516" y="973" on="1"/>
        <pt x="2516" y="712" on="1"/>
        <pt x="1618" y="712" on="1"/>
        <pt x="1618" y="277" on="1"/>
        <pt x="2653" y="277" on="1"/>
        <pt x="2653" y="0" on="1"/>
        <pt x="1301" y="0" on="1"/>
      </contour>
    </TTGlyph>
    <TTGlyph name="AEacute" xMin="4" yMin="0" xMax="2653" yMax="2030">
      <contour>
        <pt x="1394" y="1841" on="1"/>
        <pt x="2068" y="2030" on="1"/>
        <pt x="2138" y="1782" on="1"/>
        <pt x="1456" y="1623" on="1"/>
      </contour>
      <contour>
        <pt x="1193" y="1563" on="1"/>
        <pt x="2503" y="1563" on="1"/>
        <pt x="2503" y="1285" on="1"/>
        <pt x="1618" y="1285" on="1"/>
        <pt x="1618" y="973" on="1"/>
        <pt x="2387" y="973" on="1"/>
        <pt x="2387" y="712" on="1"/>
        <pt x="1618" y="712" on="1"/>
        <pt x="1618" y="277" on="1"/>
        <pt x="2524" y="277" on="1"/>
        <pt x="2524" y="0" on="1"/>
        <pt x="1301" y="0" on="1"/>
        <pt x="1301" y="263" on="1"/>
        <pt x="546" y="263" on="1"/>
        <pt x="348" y="0" on="1"/>
        <pt x="4" y="0" on="1"/>
      </contour>
      <contour>
        <pt x="1301" y="524" on="1"/>
        <pt x="1301" y="1264" on="1"/>
        <pt x="743" y="524" on="1"/>
      </contour>
      <contour>
        <pt x="1301" y="1563" on="1"/>
        <pt x="2632" y="1563" on="1"/>
        <pt x="2632" y="1285" on="1"/>
        <pt x="1618" y="1285" on="1"/>
        <pt x="1618" y="973" on="1"/>
        <pt x="2516" y="973" on="1"/>
        <pt x="2516" y="712" on="1"/>
        <pt x="1618" y="712" on="1"/>
        <pt x="1618" y="277" on="1"/>
        <pt x="2653" y="277" on="1"/>
        <pt x="2653" y="0" on="1"/>
        <pt x="1301" y="0" on="1"/>
      </contour>
    </TTGlyph>
    <TTGlyph name="Aacute" xMin="21" yMin="0" xMax="1847" yMax="2030">
      <component glyphName="A" x="0" y="0" flags="0x204"/>
      <component glyphName="acute.cap" x="253" y="0" flags="0x4"/>
    </TTGlyph>
    <TTGlyph name="Abreve" xMin="21" yMin="0" xMax="1847" yMax="2030">
      <component glyphName="A" x="0" y="0" flags="0x204"/>
      <component glyphName="breve.cap" x="586" y="0" flags="0x4"/>
    </TTGlyph>
    <TTGlyph name="Acircumflex" xMin="21" yMin="0" xMax="1847" yMax="2030">
      <component glyphName="A" x="0" y="0" flags="0x204"/>
      <component glyphName="circumflex.cap" x="261" y="0" flags="0x4"/>
    </TTGlyph>
    <TTGlyph name="Adieresis" xMin="21" yMin="0" xMax="1847" yMax="2030">
      <component glyphName="A" x="0" y="0" flags="0x204"/>
      <component glyphName="dieresis.cap" x="129" y="0" flags="0x4"/>
    </TTGlyph>
    <TTGlyph name="Agrave" xMin="21" yMin="0" xMax="1847" yMax="2030">
      <component glyphName="A" x="0" y="0" flags="0x204"/>
      <component glyphName="grave.cap" x="362" y="0" flags="0x4"/>
    </TTGlyph>
    <TTGlyph name="Amacron" xMin="21" yMin="0" xMax="1847" yMax="2013">
      <component glyphName="A" x="0" y="0" flags="0x204"/>
      <component glyphName="macron.cap" x="586" y="0" flags="0x4"/>
    </TTGlyph>
    <TTGlyph name="Aogonek" xMin="21" yMin="-530" xMax="1847" yMax="1563">
      <component glyphName="A" x="0" y="0" flags="0x204"/>
      <component glyphName="ogonek" x="1082" y="0" flags="0x4"/>
    </TTGlyph>
    <TTGlyph name="Aring" xMin="21" yMin="0" xMax="1847" yMax="2029">
      <component glyphName="A" x="0" y="0" flags="0x204"/>
      <component glyphName="ring.cap" x="586" y="0" flags="0x4"/>
    </TTGlyph>
    <TTGlyph name="Atilde" xMin="21" yMin="0" xMax="1847" yMax="2030">
      <component glyphName="A" x="0" y="0" flags="0x204"/>
      <component glyphName="tilde.cap" x="572" y="0" flags="0x4"/>
    </TTGlyph>
    <TTGlyph name="B" xMin="222" yMin="0" xMax="1780" yMax="1563">
      <contour>
        <pt x="222" y="1563" on="1"/>
        <pt x="1057" y="1563" on="1"/>
        <pt x="1210" y="1563" on="0"/>
        <pt x="1437" y="1498" on="0"/>
        <pt x="1587" y="1384" on="0"/>
        <pt x="1660" y="1227" on="0"/>
        <pt x="1660" y="1136" on="1"/>
        <pt x="1660" y="987" on="0"/>
        <pt x="1566" y="875" on="1"/>
        <pt x="1674" y="811" on="0"/>
        <pt x="1780" y="607" on="0"/>
        <pt x="1780" y="477" on="1"/>
        <pt x="1780" y="368" on="0"/>
        <pt x="1707" y="192" on="0"/>
        <pt x="1558" y="67" on="0"/>
        <pt x="1331" y="0" on="0"/>
        <pt x="1177" y="0" on="1"/>
        <pt x="222" y="0" on="1"/>
      </contour>
      <contour>
        <pt x="1179" y="963" on="1"/>
        <pt x="1220" y="963" on="0"/>
        <pt x="1259" y="960" on="1"/>
        <pt x="1326" y="1024" on="0"/>
        <pt x="1326" y="1106" on="1"/>
        <pt x="1326" y="1191" on="0"/>
        <pt x="1193" y="1284" on="0"/>
        <pt x="1065" y="1284" on="1"/>
        <pt x="539" y="1284" on="1"/>
        <pt x="539" y="963" on="1"/>
      </contour>
      <contour>
        <pt x="1185" y="276" on="1"/>
        <pt x="1313" y="276" on="0"/>
        <pt x="1446" y="386" on="0"/>
        <pt x="1446" y="486" on="1"/>
        <pt x="1446" y="586" on="0"/>
        <pt x="1313" y="698" on="0"/>
        <pt x="1185" y="698" on="1"/>
        <pt x="539" y="698" on="1"/>
        <pt x="539" y="276" on="1"/>
      </contour>
    </TTGlyph>
    <TTGlyph name="C" xMin="127" yMin="-21" xMax="1752" yMax="1582">
      <contour>
        <pt x="127" y="791" on="1"/>
        <pt x="127" y="958" on="0"/>
        <pt x="253" y="1247" on="0"/>
        <pt x="492" y="1460" on="0"/>
        <pt x="837" y="1582" on="0"/>
        <pt x="1055" y="1582" on="1"/>
        <pt x="1246" y="1582" on="0"/>
        <pt x="1565" y="1505" on="0"/>
        <pt x="1702" y="1426" on="1"/>
        <pt x="1556" y="1186" on="1"/>
        <pt x="1515" y="1213" on="0"/>
        <pt x="1408" y="1255" on="0"/>
        <pt x="1287" y="1284" on="0"/>
        <pt x="1158" y="1300" on="0"/>
        <pt x="1095" y="1300" on="1"/>
        <pt x="943" y="1300" on="0"/>
        <pt x="705" y="1225" on="0"/>
        <pt x="542" y="1090" on="0"/>
        <pt x="457" y="903" on="0"/>
        <pt x="457" y="791" on="1"/>
        <pt x="457" y="675" on="0"/>
        <pt x="545" y="481" on="0"/>
        <pt x="712" y="340" on="0"/>
        <pt x="953" y="261" on="0"/>
        <pt x="1105" y="261" on="1"/>
        <pt x="1174" y="261" on="0"/>
        <pt x="1310" y="281" on="0"/>
        <pt x="1437" y="316" on="0"/>
        <pt x="1555" y="365" on="0"/>
        <pt x="1606" y="394" on="1"/>
        <pt x="1752" y="154" on="1"/>
        <pt x="1624" y="72" on="0"/>
        <pt x="1288" y="-21" on="0"/>
        <pt x="1099" y="-21" on="1"/>
        <pt x="858" y="-21" on="0"/>
        <pt x="494" y="104" on="0"/>
        <pt x="250" y="323" on="0"/>
        <pt x="127" y="620" on="0"/>
      </contour>
    </TTGlyph>
    <TTGlyph name="Cacute" xMin="127" yMin="-21" xMax="1752" yMax="2030">
      <component glyphName="C" x="0" y="0" flags="0x204"/>
      <component glyphName="acute.cap" x="392" y="0" flags="0x4"/>
    </TTGlyph>
    <TTGlyph name="Ccaron" xMin="127" yMin="-21" xMax="1752" yMax="2030">
      <component glyphName="C" x="0" y="0" flags="0x204"/>
      <component glyphName="caron.cap" x="401" y="0" flags="0x4"/>
    </TTGlyph>
    <TTGlyph name="Ccedilla" xMin="127" yMin="-530" xMax="1752" yMax="1582">
      <component glyphName="C" x="0" y="0" flags="0x204"/>
      <component glyphName="cedilla" x="565" y="0" flags="0x4"/>
    </TTGlyph>
    <TTGlyph name="Ccircumflex" xMin="127" yMin="-21" xMax="1752" yMax="2030">
      <component glyphName="C" x="0" y="0" flags="0x204"/>
      <component glyphName="circumflex.cap" x="400" y="0" flags="0x4"/>
    </TTGlyph>
    <TTGlyph name="Cdotaccent" xMin="127" yMin="-21" xMax="1752" yMax="2030">
      <component glyphName="C" x="0" y="0" flags="0x204"/>
      <component glyphName="dotaccent.cap" x="726" y="0" flags="0x4"/>
    </TTGlyph>
    <TTGlyph name="D" xMin="222" yMin="-1" xMax="1778" yMax="1563">
      <contour>
        <pt x="222" y="1563" on="1"/>
        <pt x="795" y="1563" on="1"/>
        <pt x="1046" y="1563" on="0"/>
        <pt x="1416" y="1455" on="0"/>
        <pt x="1659" y="1254" on="0"/>
        <pt x="1778" y="967" on="0"/>
        <pt x="1778" y="788" on="1"/>
        <pt x="1778" y="618" on="0"/>
        <pt x="1660" y="329" on="0"/>
        <pt x="1418" y="118" on="0"/>
        <pt x="1048" y="-1" on="0"/>
        <pt x="797" y="-1" on="1"/>
        <pt x="222" y="0" on="1"/>
      </contour>
      <contour>
        <pt x="873" y="274" on="1"/>
        <pt x="1015" y="274" on="0"/>
        <pt x="1229" y="347" on="0"/>
        <pt x="1372" y="481" on="0"/>
        <pt x="1444" y="671" on="0"/>
        <pt x="1444" y="788" on="1"/>
        <pt x="1444" y="903" on="0"/>
        <pt x="1372" y="1088" on="0"/>
        <pt x="1229" y="1217" on="0"/>
        <pt x="1015" y="1287" on="0"/>
        <pt x="873" y="1287" on="1"/>
        <pt x="539" y="1287" on="1"/>
        <pt x="539" y="274" on="1"/>
      </contour>
    </TTGlyph>
    <TTGlyph name="Dcaron" xMin="222" yMin="-1" xMax="1778" yMax="2030">
      <component glyphName="D" x="0" y="0" flags="0x204"/>
      <component glyphName="caron.cap" x="336" y="0" flags="0x4"/>
    </TTGlyph>
    <TTGlyph name="Dcroat" xMin="8" yMin="-1" xMax="1778" yMax="1563">
      <contour>
        <pt x="8" y="915" on="1"/>
        <pt x="925" y="915" on="1"/>
        <pt x="925" y="693" on="1"/>
        <pt x="8" y="693" on="1"/>
      </contour>
      <contour>
        <pt x="222" y="1563" on="1"/>
        <pt x="795" y="1563" on="1"/>
        <pt x="1046" y="1563" on="0"/>
        <pt x="1416" y="1455" on="0"/>
        <pt x="1659" y="1254" on="0"/>
        <pt x="1778" y="967" on="0"/>
        <pt x="1778" y="788" on="1"/>
        <pt x="1778" y="618" on="0"/>
        <pt x="1660" y="329" on="0"/>
        <pt x="1418" y="118" on="0"/>
        <pt x="1048" y="-1" on="0"/>
        <pt x="797" y="-1" on="1"/>
        <pt x="222" y="0" on="1"/>
      </contour>
      <contour>
        <pt x="873" y="274" on="1"/>
        <pt x="1015" y="274" on="0"/>
        <pt x="1229" y="347" on="0"/>
        <pt x="1372" y="481" on="0"/>
        <pt x="1444" y="671" on="0"/>
        <pt x="1444" y="788" on="1"/>
        <pt x="1444" y="903" on="0"/>
        <pt x="1372" y="1088" on="0"/>
        <pt x="1229" y="1217" on="0"/>
        <pt x="1015" y="1287" on="0"/>
        <pt x="873" y="1287" on="1"/>
        <pt x="539" y="1287" on="1"/>
        <pt x="539" y="274" on="1"/>
      </contour>
    </TTGlyph>
    <TTGlyph name="Delta" xMin="52" yMin="0" xMax="1458" yMax="1404">
      <contour>
        <pt x="52" y="161" on="1"/>
        <pt x="644" y="1404" on="1"/>
        <pt x="835" y="1404" on="1"/>
        <pt x="1458" y="161" on="1"/>
        <pt x="1458" y="0" on="1"/>
        <pt x="52" y="0" on="1"/>
      </contour>
      <contour>
        <pt x="1123" y="264" on="1"/>
        <pt x="740" y="976" on="1"/>
        <pt x="387" y="264" on="1"/>
      </contour>
    </TTGlyph>
    <TTGlyph name="E" xMin="222" yMin="0" xMax="1574" yMax="1563">
      <contour>
        <pt x="222" y="1563" on="1"/>
        <pt x="1553" y="1563" on="1"/>
        <pt x="1553" y="1285" on="1"/>
        <pt x="539" y="1285" on="1"/>
        <pt x="539" y="973" on="1"/>
        <pt x="1437" y="973" on="1"/>
        <pt x="1437" y="712" on="1"/>
        <pt x="539" y="712" on="1"/>
        <pt x="539" y="277" on="1"/>
        <pt x="1574" y="277" on="1"/>
        <pt x="1574" y="0" on="1"/>
        <pt x="222" y="0" on="1"/>
      </contour>
    </TTGlyph>
    <TTGlyph name="Eacute" xMin="222" yMin="0" xMax="1574" yMax="2030">
      <component glyphName="E" x="0" y="0" flags="0x204"/>
      <component glyphName="acute.cap" x="225" y="0" flags="0x4"/>
    </TTGlyph>
    <TTGlyph name="Ebreve" xMin="222" yMin="0" xMax="1574" yMax="2030">
      <component glyphName="E" x="0" y="0" flags="0x204"/>
      <component glyphName="breve.cap" x="558" y="0" flags="0x4"/>
    </TTGlyph>
    <TTGlyph name="Ecaron" xMin="222" yMin="0" xMax="1574" yMax="2030">
      <component glyphName="E" x="0" y="0" flags="0x204"/>
      <component glyphName="caron.cap" x="234" y="0" flags="0x4"/>
    </TTGlyph>
    <TTGlyph name="Ecircumflex" xMin="222" yMin="0" xMax="1574" yMax="2030">
      <component glyphName="E" x="0" y="0" flags="0x204"/>
      <component glyphName="circumflex.cap" x="233" y="0" flags="0x4"/>
    </TTGlyph>
    <TTGlyph name="Edieresis" xMin="222" yMin="0" xMax="1574" yMax="2030">
      <component glyphName="E" x="0" y="0" flags="0x204"/>
      <component glyphName="dieresis.cap" x="101" y="0" flags="0x4"/>
    </TTGlyph>
    <TTGlyph name="Edotaccent" xMin="222" yMin="0" xMax="1574" yMax="2030">
      <component glyphName="E" x="0" y="0" flags="0x204"/>
      <component glyphName="dotaccent.cap" x="559" y="0" flags="0x4"/>
    </TTGlyph>
    <TTGlyph name="Egrave" xMin="222" yMin="0" xMax="1574" yMax="2030">
      <component glyphName="E" x="0" y="0" flags="0x204"/>
      <component glyphName="grave.cap" x="334" y="0" flags="0x4"/>
    </TTGlyph>
    <TTGlyph name="Emacron" xMin="222" yMin="0" xMax="1574" yMax="2013">
      <component glyphName="E" x="0" y="0" flags="0x204"/>
      <component glyphName="macron.cap" x="558" y="0" flags="0x4"/>
    </TTGlyph>
    <TTGlyph name="Eng" xMin="220" yMin="-530" xMax="1828" yMax="1563">
      <contour>
        <pt x="220" y="1563" on="1"/>
        <pt x="537" y="1563" on="1"/>
        <pt x="1511" y="1053" on="1"/>
        <pt x="1511" y="1563" on="1"/>
        <pt x="1828" y="1563" on="1"/>
        <pt x="1828" y="271" on="1"/>
        <pt x="1828" y="167" on="0"/>
        <pt x="1810" y="-5" on="0"/>
        <pt x="1768" y="-148" on="0"/>
        <pt x="1699" y="-270" on="0"/>
        <pt x="1597" y="-378" on="0"/>
        <pt x="1459" y="-479" on="0"/>
        <pt x="1369" y="-530" on="1"/>
        <pt x="1236" y="-279" on="1"/>
        <pt x="1305" y="-237" on="0"/>
        <pt x="1408" y="-137" on="0"/>
        <pt x="1477" y="-17" on="0"/>
        <pt x="1511" y="127" on="0"/>
        <pt x="1511" y="214" on="1"/>
        <pt x="1511" y="717" on="1"/>
        <pt x="537" y="1224" on="1"/>
        <pt x="537" y="0" on="1"/>
        <pt x="220" y="0" on="1"/>
      </contour>
    </TTGlyph>
    <TTGlyph name="Eogonek" xMin="222" yMin="-530" xMax="1574" yMax="1563">
      <component glyphName="E" x="0" y="0" flags="0x204"/>
      <component glyphName="ogonek" x="809" y="0" flags="0x4"/>
    </TTGlyph>
    <TTGlyph name="Eth" xMin="8" yMin="-1" xMax="1778" yMax="1563">
      <contour>
        <pt x="8" y="915" on="1"/>
        <pt x="925" y="915" on="1"/>
        <pt x="925" y="693" on="1"/>
        <pt x="8" y="693" on="1"/>
      </contour>
      <contour>
        <pt x="222" y="1563" on="1"/>
        <pt x="795" y="1563" on="1"/>
        <pt x="1046" y="1563" on="0"/>
        <pt x="1416" y="1455" on="0"/>
        <pt x="1659" y="1254" on="0"/>
        <pt x="1778" y="967" on="0"/>
        <pt x="1778" y="788" on="1"/>
        <pt x="1778" y="618" on="0"/>
        <pt x="1660" y="329" on="0"/>
        <pt x="1418" y="118" on="0"/>
        <pt x="1048" y="-1" on="0"/>
        <pt x="797" y="-1" on="1"/>
        <pt x="222" y="0" on="1"/>
      </contour>
      <contour>
        <pt x="873" y="274" on="1"/>
        <pt x="1015" y="274" on="0"/>
        <pt x="1229" y="347" on="0"/>
        <pt x="1372" y="481" on="0"/>
        <pt x="1444" y="671" on="0"/>
        <pt x="1444" y="788" on="1"/>
        <pt x="1444" y="903" on="0"/>
        <pt x="1372" y="1088" on="0"/>
        <pt x="1229" y="1217" on="0"/>
        <pt x="1015" y="1287" on="0"/>
        <pt x="873" y="1287" on="1"/>
        <pt x="539" y="1287" on="1"/>
        <pt x="539" y="274" on="1"/>
      </contour>
    </TTGlyph>
    <TTGlyph name="Euro" xMin="100" yMin="-22" xMax="1819" yMax="1583">
      <contour>
        <pt x="100" y="691" on="1"/>
        <pt x="375" y="691" on="1"/>
        <pt x="372" y="731" on="0"/>
        <pt x="372" y="774" on="1"/>
        <pt x="372" y="791" on="0"/>
        <pt x="373" y="826" on="0"/>
        <pt x="374" y="843" on="1"/>
        <pt x="160" y="843" on="1"/>
        <pt x="160" y="1065" on="1"/>
        <pt x="417" y="1065" on="1"/>
        <pt x="457" y="1186" on="0"/>
        <pt x="607" y="1378" on="0"/>
        <pt x="814" y="1512" on="0"/>
        <pt x="1075" y="1583" on="0"/>
        <pt x="1228" y="1583" on="1"/>
        <pt x="1371" y="1583" on="0"/>
        <pt x="1653" y="1518" on="0"/>
        <pt x="1779" y="1447" on="1"/>
        <pt x="1633" y="1207" on="1"/>
        <pt x="1535" y="1256" on="0"/>
        <pt x="1329" y="1301" on="0"/>
        <pt x="1232" y="1301" on="1"/>
        <pt x="1071" y="1301" on="0"/>
        <pt x="824" y="1183" on="0"/>
        <pt x="757" y="1065" on="1"/>
        <pt x="1340" y="1065" on="1"/>
        <pt x="1340" y="843" on="1"/>
        <pt x="691" y="843" on="1"/>
        <pt x="690" y="828" on="0"/>
        <pt x="689" y="797" on="0"/>
        <pt x="689" y="781" on="1"/>
        <pt x="689" y="757" on="0"/>
        <pt x="692" y="712" on="0"/>
        <pt x="694" y="691" on="1"/>
        <pt x="1280" y="691" on="1"/>
        <pt x="1280" y="469" on="1"/>
        <pt x="773" y="469" on="1"/>
        <pt x="842" y="366" on="0"/>
        <pt x="1072" y="260" on="0"/>
        <pt x="1224" y="260" on="1"/>
        <pt x="1351" y="260" on="0"/>
        <pt x="1572" y="329" on="0"/>
        <pt x="1673" y="383" on="1"/>
        <pt x="1819" y="143" on="1"/>
        <pt x="1760" y="107" on="0"/>
        <pt x="1618" y="46" on="0"/>
        <pt x="1459" y="2" on="0"/>
        <pt x="1287" y="-22" on="0"/>
        <pt x="1199" y="-22" on="1"/>
        <pt x="1052" y="-22" on="0"/>
        <pt x="803" y="46" on="0"/>
        <pt x="605" y="173" on="0"/>
        <pt x="462" y="355" on="0"/>
        <pt x="422" y="469" on="1"/>
        <pt x="100" y="469" on="1"/>
      </contour>
    </TTGlyph>
    <TTGlyph name="F" xMin="222" yMin="0" xMax="1620" yMax="1563">
      <contour>
        <pt x="222" y="1563" on="1"/>
        <pt x="1620" y="1563" on="1"/>
        <pt x="1620" y="1285" on="1"/>
        <pt x="539" y="1285" on="1"/>
        <pt x="539" y="876" on="1"/>
        <pt x="1457" y="876" on="1"/>
        <pt x="1457" y="615" on="1"/>
        <pt x="539" y="615" on="1"/>
        <pt x="539" y="0" on="1"/>
        <pt x="222" y="0" on="1"/>
      </contour>
    </TTGlyph>
    <TTGlyph name="G" xMin="115" yMin="-21" xMax="1921" yMax="1582">
      <contour>
        <pt x="115" y="796" on="1"/>
        <pt x="115" y="961" on="0"/>
        <pt x="239" y="1248" on="0"/>
        <pt x="477" y="1460" on="0"/>
        <pt x="824" y="1582" on="0"/>
        <pt x="1048" y="1582" on="1"/>
        <pt x="1129" y="1582" on="0"/>
        <pt x="1292" y="1565" on="0"/>
        <pt x="1451" y="1529" on="0"/>
        <pt x="1602" y="1474" on="0"/>
        <pt x="1670" y="1436" on="1"/>
        <pt x="1524" y="1196" on="1"/>
        <pt x="1483" y="1220" on="0"/>
        <pt x="1379" y="1259" on="0"/>
        <pt x="1260" y="1286" on="0"/>
        <pt x="1133" y="1300" on="0"/>
        <pt x="1069" y="1300" on="1"/>
        <pt x="921" y="1300" on="0"/>
        <pt x="689" y="1225" on="0"/>
        <pt x="529" y="1090" on="0"/>
        <pt x="445" y="902" on="0"/>
        <pt x="445" y="790" on="1"/>
        <pt x="445" y="674" on="0"/>
        <pt x="533" y="480" on="0"/>
        <pt x="695" y="340" on="0"/>
        <pt x="925" y="261" on="0"/>
        <pt x="1067" y="261" on="1"/>
        <pt x="1180" y="261" on="0"/>
        <pt x="1368" y="312" on="0"/>
        <pt x="1508" y="406" on="0"/>
        <pt x="1596" y="539" on="0"/>
        <pt x="1610" y="622" on="1"/>
        <pt x="1064" y="622" on="1"/>
        <pt x="1064" y="883" on="1"/>
        <pt x="1895" y="883" on="1"/>
        <pt x="1895" y="882" on="1"/>
        <pt x="1896" y="883" on="1"/>
        <pt x="1921" y="763" on="0"/>
        <pt x="1902" y="536" on="0"/>
        <pt x="1817" y="335" on="0"/>
        <pt x="1669" y="167" on="0"/>
        <pt x="1463" y="46" on="0"/>
        <pt x="1201" y="-21" on="0"/>
        <pt x="1045" y="-21" on="1"/>
        <pt x="827" y="-21" on="0"/>
        <pt x="482" y="107" on="0"/>
        <pt x="242" y="329" on="0"/>
        <pt x="115" y="627" on="0"/>
      </contour>
    </TTGlyph>
    <TTGlyph name="Gbreve" xMin="115" yMin="-21" xMax="1921" yMax="2030">
      <component glyphName="G" x="0" y="0" flags="0x204"/>
      <component glyphName="breve.cap" x="675" y="0" flags="0x4"/>
    </TTGlyph>
    <TTGlyph name="Gcircumflex" xMin="115" yMin="-21" xMax="1921" yMax="2030">
      <component glyphName="G" x="0" y="0" flags="0x204"/>
      <component glyphName="circumflex.cap" x="350" y="0" flags="0x4"/>
    </TTGlyph>
    <TTGlyph name="Gcommaaccent" xMin="115" yMin="-530" xMax="1921" yMax="1582">
      <component glyphName="G" x="0" y="0" flags="0x204"/>
      <component glyphName="commaaccent" x="629" y="0" flags="0x4"/>
    </TTGlyph>
    <TTGlyph name="Gdotaccent" xMin="115" yMin="-21" xMax="1921" yMax="2030">
      <component glyphName="G" x="0" y="0" flags="0x204"/>
      <component glyphName="dotaccent.cap" x="676" y="0" flags="0x4"/>
    </TTGlyph>
    <TTGlyph name="H" xMin="221" yMin="0" xMax="1828" yMax="1563">
      <contour>
        <pt x="221" y="1563" on="1"/>
        <pt x="538" y="1563" on="1"/>
        <pt x="538" y="1155" on="1"/>
        <pt x="1510" y="1155" on="1"/>
        <pt x="1510" y="1563" on="1"/>
        <pt x="1828" y="1563" on="1"/>
        <pt x="1828" y="0" on="1"/>
        <pt x="1510" y="0" on="1"/>
        <pt x="1510" y="884" on="1"/>
        <pt x="538" y="884" on="1"/>
        <pt x="538" y="0" on="1"/>
        <pt x="221" y="0" on="1"/>
      </contour>
    </TTGlyph>
    <TTGlyph name="Hbar" xMin="55" yMin="0" xMax="1971" yMax="1563">
      <contour>
        <pt x="221" y="912" on="1"/>
        <pt x="55" y="912" on="1"/>
        <pt x="55" y="1155" on="1"/>
        <pt x="221" y="1155" on="1"/>
        <pt x="221" y="1563" on="1"/>
        <pt x="538" y="1563" on="1"/>
        <pt x="538" y="1155" on="1"/>
        <pt x="1510" y="1155" on="1"/>
        <pt x="1510" y="1563" on="1"/>
        <pt x="1828" y="1563" on="1"/>
        <pt x="1828" y="1155" on="1"/>
        <pt x="1971" y="1155" on="1"/>
        <pt x="1971" y="912" on="1"/>
        <pt x="1828" y="912" on="1"/>
        <pt x="1828" y="0" on="1"/>
        <pt x="1510" y="0" on="1"/>
        <pt x="1510" y="443" on="1"/>
        <pt x="538" y="443" on="1"/>
        <pt x="538" y="0" on="1"/>
        <pt x="221" y="0" on="1"/>
      </contour>
      <contour>
        <pt x="1510" y="714" on="1"/>
        <pt x="1510" y="912" on="1"/>
        <pt x="538" y="912" on="1"/>
        <pt x="538" y="714" on="1"/>
      </contour>
    </TTGlyph>
    <TTGlyph name="Hcircumflex" xMin="221" yMin="0" xMax="1828" yMax="2030">
      <component glyphName="H" x="0" y="0" flags="0x204"/>
      <component glyphName="circumflex.cap" x="359" y="0" flags="0x4"/>
    </TTGlyph>
    <TTGlyph name="I" xMin="182" yMin="0" xMax="501" yMax="1563">
      <contour>
        <pt x="182" y="1563" on="1"/>
        <pt x="501" y="1563" on="1"/>
        <pt x="501" y="0" on="1"/>
        <pt x="182" y="0" on="1"/>
      </contour>
    </TTGlyph>
    <TTGlyph name="IJ" xMin="182" yMin="-530" xMax="1183" yMax="1563">
      <component glyphName="I" x="0" y="0" flags="0x4"/>
      <component glyphName="J" x="683" y="0" flags="0x4"/>
    </TTGlyph>
    <TTGlyph name="Iacute" xMin="-30" yMin="0" xMax="714" yMax="2030">
      <component glyphName="I" x="0" y="0" flags="0x204"/>
      <component glyphName="acute.cap" x="-331" y="0" flags="0x4"/>
    </TTGlyph>
    <TTGlyph name="Ibreve" xMin="-108" yMin="0" xMax="790" yMax="2030">
      <component glyphName="I" x="0" y="0" flags="0x204"/>
      <component glyphName="breve.cap" x="1" y="0" flags="0x4"/>
    </TTGlyph>
    <TTGlyph name="Icircumflex" xMin="-115" yMin="0" xMax="799" yMax="2030">
      <component glyphName="I" x="0" y="0" flags="0x204"/>
      <component glyphName="circumflex.cap" x="-323" y="0" flags="0x4"/>
    </TTGlyph>
    <TTGlyph name="Idieresis" xMin="-215" yMin="0" xMax="899" yMax="2030">
      <component glyphName="I" x="0" y="0" flags="0x204"/>
      <component glyphName="dieresis.cap" x="-455" y="0" flags="0x4"/>
    </TTGlyph>
    <TTGlyph name="Idotaccent" xMin="126" yMin="0" xMax="557" yMax="2030">
      <component glyphName="I" x="0" y="0" flags="0x204"/>
      <component glyphName="dotaccent.cap" x="2" y="0" flags="0x4"/>
    </TTGlyph>
    <TTGlyph name="Igrave" xMin="-30" yMin="0" xMax="714" yMax="2030">
      <component glyphName="I" x="0" y="0" flags="0x204"/>
      <component glyphName="grave.cap" x="-222" y="0" flags="0x4"/>
    </TTGlyph>
    <TTGlyph name="Imacron" xMin="-55" yMin="0" xMax="738" yMax="2013">
      <component glyphName="I" x="0" y="0" flags="0x204"/>
      <component glyphName="macron.cap" x="1" y="0" flags="0x4"/>
    </TTGlyph>
    <TTGlyph name="Iogonek" xMin="-87" yMin="-530" xMax="545" yMax="1563">
      <contour>
        <pt x="401" y="65" on="1"/>
        <pt x="501" y="0" on="1"/>
        <pt x="405" y="-25" on="0"/>
        <pt x="283" y="-82" on="0"/>
        <pt x="214" y="-141" on="0"/>
        <pt x="188" y="-197" on="0"/>
        <pt x="188" y="-221" on="1"/>
        <pt x="188" y="-259" on="0"/>
        <pt x="241" y="-310" on="0"/>
        <pt x="302" y="-310" on="1"/>
        <pt x="344" y="-310" on="0"/>
        <pt x="426" y="-285" on="0"/>
        <pt x="468" y="-263" on="1"/>
        <pt x="545" y="-451" on="1"/>
        <pt x="469" y="-489" on="0"/>
        <pt x="313" y="-530" on="0"/>
        <pt x="234" y="-530" on="1"/>
        <pt x="154" y="-530" on="0"/>
        <pt x="34" y="-490" on="0"/>
        <pt x="-47" y="-423" on="0"/>
        <pt x="-87" y="-334" on="0"/>
        <pt x="-87" y="-286" on="1"/>
        <pt x="-87" y="-245" on="0"/>
        <pt x="-55" y="-159" on="0"/>
        <pt x="18" y="-70" on="0"/>
        <pt x="138" y="20" on="0"/>
        <pt x="226" y="65" on="1"/>
      </contour>
      <contour>
        <pt x="182" y="1563" on="1"/>
        <pt x="501" y="1563" on="1"/>
        <pt x="501" y="0" on="1"/>
        <pt x="182" y="0" on="1"/>
      </contour>
    </TTGlyph>
    <TTGlyph name="Itilde" xMin="-106" yMin="0" xMax="790" yMax="2030">
      <component glyphName="I" x="0" y="0" flags="0x204"/>
      <component glyphName="tilde.cap" x="-12" y="0" flags="0x4"/>
    </TTGlyph>
    <TTGlyph name="J" xMin="-79" yMin="-530" xMax="500" yMax="1563">
      <contour>
        <pt x="-79" y="-259" on="1"/>
        <pt x="-10" y="-217" on="0"/>
        <pt x="89" y="-125" on="0"/>
        <pt x="153" y="-14" on="0"/>
        <pt x="183" y="123" on="0"/>
        <pt x="183" y="210" on="1"/>
        <pt x="183" y="1563" on="1"/>
        <pt x="500" y="1563" on="1"/>
        <pt x="500" y="267" on="1"/>
        <pt x="500" y="163" on="0"/>
        <pt x="482" y="-8" on="0"/>
        <pt x="441" y="-151" on="0"/>
        <pt x="372" y="-271" on="0"/>
        <pt x="271" y="-379" on="0"/>
        <pt x="134" y="-479" on="0"/>
        <pt x="44" y="-530" on="1"/>
      </contour>
    </TTGlyph>
    <TTGlyph name="Jcircumflex" xMin="-116" yMin="-530" xMax="798" yMax="2030">
      <component glyphName="J" x="0" y="0" flags="0x204"/>
      <component glyphName="circumflex.cap" x="-324" y="0" flags="0x4"/>
    </TTGlyph>
    <TTGlyph name="K" xMin="222" yMin="0" xMax="1770" yMax="1563">
      <contour>
        <pt x="222" y="1563" on="1"/>
        <pt x="539" y="1563" on="1"/>
        <pt x="539" y="754" on="1"/>
        <pt x="1364" y="1563" on="1"/>
        <pt x="1770" y="1563" on="1"/>
        <pt x="1000" y="817" on="1"/>
        <pt x="1770" y="0" on="1"/>
        <pt x="1348" y="0" on="1"/>
        <pt x="772" y="596" on="1"/>
        <pt x="539" y="371" on="1"/>
        <pt x="539" y="0" on="1"/>
        <pt x="222" y="0" on="1"/>
      </contour>
    </TTGlyph>
    <TTGlyph name="Kcommaaccent" xMin="222" yMin="-530" xMax="1770" yMax="1563">
      <component glyphName="K" x="0" y="0" flags="0x204"/>
      <component glyphName="commaaccent" x="457" y="0" flags="0x4"/>
    </TTGlyph>
    <TTGlyph name="L" xMin="222" yMin="0" xMax="1448" yMax="1563">
      <contour>
        <pt x="222" y="1563" on="1"/>
        <pt x="539" y="1563" on="1"/>
        <pt x="539" y="278" on="1"/>
        <pt x="1448" y="278" on="1"/>
        <pt x="1448" y="0" on="1"/>
        <pt x="222" y="0" on="1"/>
      </contour>
    </TTGlyph>
    <TTGlyph name="Lacute" xMin="222" yMin="0" xMax="1448" yMax="2030">
      <component glyphName="L" x="0" y="0" flags="0x204"/>
      <component glyphName="acute.cap" x="223" y="0" flags="0x4"/>
    </TTGlyph>
    <TTGlyph name="Lcaron" xMin="222" yMin="0" xMax="1448" yMax="1694">
      <component glyphName="L" x="0" y="0" flags="0x204"/>
      <component glyphName="caronvertical" x="640" y="0" flags="0x4"/>
    </TTGlyph>
    <TTGlyph name="Lcommaaccent" xMin="222" yMin="-530" xMax="1448" yMax="1563">
      <component glyphName="L" x="0" y="0" flags="0x204"/>
      <component glyphName="commaaccent" x="371" y="0" flags="0x4"/>
    </TTGlyph>
    <TTGlyph name="Ldot" xMin="222" yMin="0" xMax="1448" yMax="1563">
      <component glyphName="L" x="0" y="0" flags="0x204"/>
      <component glyphName="period" x="763" y="879" flags="0x4"/>
    </TTGlyph>
    <TTGlyph name="Lslash" xMin="-64" yMin="0" xMax="1448" yMax="1563">
      <contour>
        <pt x="-64" y="718" on="1"/>
        <pt x="917" y="1165" on="1"/>
        <pt x="1009" y="963" on="1"/>
        <pt x="28" y="516" on="1"/>
      </contour>
      <contour>
        <pt x="222" y="1563" on="1"/>
        <pt x="539" y="1563" on="1"/>
        <pt x="539" y="278" on="1"/>
        <pt x="1448" y="278" on="1"/>
        <pt x="1448" y="0" on="1"/>
        <pt x="222" y="0" on="1"/>
      </contour>
    </TTGlyph>
    <TTGlyph name="M" xMin="223" yMin="0" xMax="1993" yMax="1563">
      <contour>
        <pt x="223" y="1563" on="1"/>
        <pt x="540" y="1563" on="1"/>
        <pt x="1108" y="993" on="1"/>
        <pt x="1676" y="1563" on="1"/>
        <pt x="1993" y="1563" on="1"/>
        <pt x="1993" y="0" on="1"/>
        <pt x="1676" y="0" on="1"/>
        <pt x="1676" y="1124" on="1"/>
        <pt x="1108" y="577" on="1"/>
        <pt x="540" y="1124" on="1"/>
        <pt x="540" y="0" on="1"/>
        <pt x="223" y="0" on="1"/>
      </contour>
    </TTGlyph>
    <TTGlyph name="N" xMin="220" yMin="0" xMax="1828" yMax="1563">
      <contour>
        <pt x="220" y="1563" on="1"/>
        <pt x="537" y="1563" on="1"/>
        <pt x="1511" y="1053" on="1"/>
        <pt x="1511" y="1563" on="1"/>
        <pt x="1828" y="1563" on="1"/>
        <pt x="1828" y="0" on="1"/>
        <pt x="1511" y="0" on="1"/>
        <pt x="1511" y="717" on="1"/>
        <pt x="537" y="1224" on="1"/>
        <pt x="537" y="0" on="1"/>
        <pt x="220" y="0" on="1"/>
      </contour>
    </TTGlyph>
    <TTGlyph name="Nacute" xMin="220" yMin="0" xMax="1828" yMax="2030">
      <component glyphName="N" x="0" y="0" flags="0x204"/>
      <component glyphName="acute.cap" x="351" y="0" flags="0x4"/>
    </TTGlyph>
    <TTGlyph name="Ncaron" xMin="220" yMin="0" xMax="1828" yMax="2030">
      <component glyphName="N" x="0" y="0" flags="0x204"/>
      <component glyphName="caron.cap" x="360" y="0" flags="0x4"/>
    </TTGlyph>
    <TTGlyph name="Ncommaaccent" xMin="220" yMin="-530" xMax="1828" yMax="1563">
      <component glyphName="N" x="0" y="0" flags="0x204"/>
      <component glyphName="commaaccent" x="629" y="0" flags="0x4"/>
    </TTGlyph>
    <TTGlyph name="Ntilde" xMin="220" yMin="0" xMax="1828" yMax="2030">
      <component glyphName="N" x="0" y="0" flags="0x204"/>
      <component glyphName="tilde.cap" x="670" y="0" flags="0x4"/>
    </TTGlyph>
    <TTGlyph name="O" xMin="130" yMin="-22" xMax="1918" yMax="1584">
      <contour>
        <pt x="130" y="786" on="1"/>
        <pt x="130" y="963" on="0"/>
        <pt x="260" y="1257" on="0"/>
        <pt x="495" y="1468" on="0"/>
        <pt x="824" y="1584" on="0"/>
        <pt x="1024" y="1584" on="1"/>
        <pt x="1223" y="1584" on="0"/>
        <pt x="1553" y="1468" on="0"/>
        <pt x="1788" y="1257" on="0"/>
        <pt x="1918" y="963" on="0"/>
        <pt x="1918" y="786" on="1"/>
        <pt x="1918" y="608" on="0"/>
        <pt x="1788" y="311" on="0"/>
        <pt x="1553" y="97" on="0"/>
        <pt x="1223" y="-22" on="0"/>
        <pt x="1024" y="-22" on="1"/>
        <pt x="824" y="-22" on="0"/>
        <pt x="495" y="97" on="0"/>
        <pt x="260" y="311" on="0"/>
        <pt x="130" y="608" on="0"/>
      </contour>
      <contour>
        <pt x="447" y="786" on="1"/>
        <pt x="447" y="665" on="0"/>
        <pt x="534" y="471" on="0"/>
        <pt x="689" y="334" on="0"/>
        <pt x="900" y="260" on="0"/>
        <pt x="1024" y="260" on="1"/>
        <pt x="1148" y="260" on="0"/>
        <pt x="1359" y="334" on="0"/>
        <pt x="1513" y="471" on="0"/>
        <pt x="1601" y="665" on="0"/>
        <pt x="1601" y="786" on="1"/>
        <pt x="1601" y="907" on="0"/>
        <pt x="1513" y="1099" on="0"/>
        <pt x="1359" y="1232" on="0"/>
        <pt x="1148" y="1302" on="0"/>
        <pt x="1024" y="1302" on="1"/>
        <pt x="900" y="1302" on="0"/>
        <pt x="689" y="1232" on="0"/>
        <pt x="534" y="1099" on="0"/>
        <pt x="447" y="907" on="0"/>
      </contour>
    </TTGlyph>
    <TTGlyph name="OE" xMin="130" yMin="-22" xMax="2953" yMax="1584">
      <contour>
        <pt x="130" y="786" on="1"/>
        <pt x="130" y="963" on="0"/>
        <pt x="260" y="1257" on="0"/>
        <pt x="495" y="1468" on="0"/>
        <pt x="824" y="1584" on="0"/>
        <pt x="1024" y="1584" on="1"/>
        <pt x="1223" y="1584" on="0"/>
        <pt x="1553" y="1468" on="0"/>
        <pt x="1788" y="1257" on="0"/>
        <pt x="1918" y="963" on="0"/>
        <pt x="1918" y="786" on="1"/>
        <pt x="1918" y="608" on="0"/>
        <pt x="1788" y="311" on="0"/>
        <pt x="1553" y="97" on="0"/>
        <pt x="1223" y="-22" on="0"/>
        <pt x="1024" y="-22" on="1"/>
        <pt x="824" y="-22" on="0"/>
        <pt x="495" y="97" on="0"/>
        <pt x="260" y="311" on="0"/>
        <pt x="130" y="608" on="0"/>
      </contour>
      <contour>
        <pt x="447" y="786" on="1"/>
        <pt x="447" y="665" on="0"/>
        <pt x="534" y="471" on="0"/>
        <pt x="689" y="334" on="0"/>
        <pt x="900" y="260" on="0"/>
        <pt x="1024" y="260" on="1"/>
        <pt x="1148" y="260" on="0"/>
        <pt x="1359" y="334" on="0"/>
        <pt x="1513" y="471" on="0"/>
        <pt x="1601" y="665" on="0"/>
        <pt x="1601" y="786" on="1"/>
        <pt x="1601" y="907" on="0"/>
        <pt x="1513" y="1099" on="0"/>
        <pt x="1359" y="1232" on="0"/>
        <pt x="1148" y="1302" on="0"/>
        <pt x="1024" y="1302" on="1"/>
        <pt x="900" y="1302" on="0"/>
        <pt x="689" y="1232" on="0"/>
        <pt x="534" y="1099" on="0"/>
        <pt x="447" y="907" on="0"/>
      </contour>
      <contour>
        <pt x="1601" y="1563" on="1"/>
        <pt x="2932" y="1563" on="1"/>
        <pt x="2932" y="1285" on="1"/>
        <pt x="1918" y="1285" on="1"/>
        <pt x="1918" y="973" on="1"/>
        <pt x="2816" y="973" on="1"/>
        <pt x="2816" y="712" on="1"/>
        <pt x="1918" y="712" on="1"/>
        <pt x="1918" y="277" on="1"/>
        <pt x="2953" y="277" on="1"/>
        <pt x="2953" y="0" on="1"/>
        <pt x="1601" y="0" on="1"/>
      </contour>
    </TTGlyph>
    <TTGlyph name="Oacute" xMin="130" yMin="-22" xMax="1918" yMax="2030">
      <component glyphName="O" x="0" y="0" flags="0x204"/>
      <component glyphName="acute.cap" x="351" y="0" flags="0x4"/>
    </TTGlyph>
    <TTGlyph name="Obreve" xMin="130" yMin="-22" xMax="1918" yMax="2030">
      <component glyphName="O" x="0" y="0" flags="0x204"/>
      <component glyphName="breve.cap" x="684" y="0" flags="0x4"/>
    </TTGlyph>
    <TTGlyph name="Ocircumflex" xMin="130" yMin="-22" xMax="1918" yMax="2030">
      <component glyphName="O" x="0" y="0" flags="0x204"/>
      <component glyphName="circumflex.cap" x="359" y="0" flags="0x4"/>
    </TTGlyph>
    <TTGlyph name="Odieresis" xMin="130" yMin="-22" xMax="1918" yMax="2030">
      <component glyphName="O" x="0" y="0" flags="0x204"/>
      <component glyphName="dieresis.cap" x="227" y="0" flags="0x4"/>
    </TTGlyph>
    <TTGlyph name="Ograve" xMin="130" yMin="-22" xMax="1918" yMax="2030">
      <component glyphName="O" x="0" y="0" flags="0x204"/>
      <component glyphName="grave.cap" x="460" y="0" flags="0x4"/>
    </TTGlyph>
    <TTGlyph name="Ohungarumlaut" xMin="130" yMin="-22" xMax="1918" yMax="2030">
      <component glyphName="O" x="0" y="0" flags="0x204"/>
      <component glyphName="hungarumlaut.cap" x="516" y="0" flags="0x4"/>
    </TTGlyph>
    <TTGlyph name="Omacron" xMin="130" yMin="-22" xMax="1918" yMax="2013">
      <component glyphName="O" x="0" y="0" flags="0x204"/>
      <component glyphName="macron.cap" x="684" y="0" flags="0x4"/>
    </TTGlyph>
    <TTGlyph name="Omega" xMin="165" yMin="0" xMax="1540" yMax="1405">
      <contour>
        <pt x="165" y="272" on="1"/>
        <pt x="426" y="272" on="1"/>
        <pt x="376" y="317" on="0"/>
        <pt x="291" y="428" on="0"/>
        <pt x="230" y="562" on="0"/>
        <pt x="196" y="718" on="0"/>
        <pt x="196" y="809" on="1"/>
        <pt x="196" y="954" on="0"/>
        <pt x="305" y="1177" on="0"/>
        <pt x="488" y="1328" on="0"/>
        <pt x="724" y="1405" on="0"/>
        <pt x="852" y="1405" on="1"/>
        <pt x="980" y="1405" on="0"/>
        <pt x="1217" y="1328" on="0"/>
        <pt x="1400" y="1177" on="0"/>
        <pt x="1509" y="954" on="0"/>
        <pt x="1509" y="809" on="1"/>
        <pt x="1509" y="718" on="0"/>
        <pt x="1474" y="562" on="0"/>
        <pt x="1413" y="428" on="0"/>
        <pt x="1328" y="317" on="0"/>
        <pt x="1278" y="272" on="1"/>
        <pt x="1540" y="272" on="1"/>
        <pt x="1540" y="0" on="1"/>
        <pt x="942" y="0" on="1"/>
        <pt x="942" y="168" on="1"/>
        <pt x="1029" y="249" on="0"/>
        <pt x="1136" y="410" on="0"/>
        <pt x="1196" y="570" on="0"/>
        <pt x="1217" y="730" on="0"/>
        <pt x="1217" y="810" on="1"/>
        <pt x="1217" y="876" on="0"/>
        <pt x="1168" y="983" on="0"/>
        <pt x="1075" y="1059" on="0"/>
        <pt x="939" y="1100" on="0"/>
        <pt x="852" y="1100" on="1"/>
        <pt x="765" y="1100" on="0"/>
        <pt x="630" y="1059" on="0"/>
        <pt x="536" y="983" on="0"/>
        <pt x="487" y="876" on="0"/>
        <pt x="487" y="810" on="1"/>
        <pt x="487" y="730" on="0"/>
        <pt x="508" y="570" on="0"/>
        <pt x="568" y="410" on="0"/>
        <pt x="676" y="249" on="0"/>
        <pt x="763" y="168" on="1"/>
        <pt x="763" y="0" on="1"/>
        <pt x="165" y="0" on="1"/>
      </contour>
    </TTGlyph>
    <TTGlyph name="Oslash" xMin="129" yMin="-246" xMax="1918" yMax="1770">
      <contour>
        <pt x="1623" y="1770" on="1"/>
        <pt x="1910" y="1770" on="1"/>
        <pt x="416" y="-246" on="1"/>
        <pt x="129" y="-246" on="1"/>
      </contour>
      <contour>
        <pt x="130" y="786" on="1"/>
        <pt x="130" y="963" on="0"/>
        <pt x="260" y="1257" on="0"/>
        <pt x="495" y="1468" on="0"/>
        <pt x="824" y="1584" on="0"/>
        <pt x="1024" y="1584" on="1"/>
        <pt x="1223" y="1584" on="0"/>
        <pt x="1553" y="1468" on="0"/>
        <pt x="1788" y="1257" on="0"/>
        <pt x="1918" y="963" on="0"/>
        <pt x="1918" y="786" on="1"/>
        <pt x="1918" y="608" on="0"/>
        <pt x="1788" y="311" on="0"/>
        <pt x="1553" y="97" on="0"/>
        <pt x="1223" y="-22" on="0"/>
        <pt x="1024" y="-22" on="1"/>
        <pt x="824" y="-22" on="0"/>
        <pt x="495" y="97" on="0"/>
        <pt x="260" y="311" on="0"/>
        <pt x="130" y="608" on="0"/>
      </contour>
      <contour>
        <pt x="447" y="786" on="1"/>
        <pt x="447" y="665" on="0"/>
        <pt x="534" y="471" on="0"/>
        <pt x="689" y="334" on="0"/>
        <pt x="900" y="260" on="0"/>
        <pt x="1024" y="260" on="1"/>
        <pt x="1148" y="260" on="0"/>
        <pt x="1359" y="334" on="0"/>
        <pt x="1513" y="471" on="0"/>
        <pt x="1601" y="665" on="0"/>
        <pt x="1601" y="786" on="1"/>
        <pt x="1601" y="907" on="0"/>
        <pt x="1513" y="1099" on="0"/>
        <pt x="1359" y="1232" on="0"/>
        <pt x="1148" y="1302" on="0"/>
        <pt x="1024" y="1302" on="1"/>
        <pt x="900" y="1302" on="0"/>
        <pt x="689" y="1232" on="0"/>
        <pt x="534" y="1099" on="0"/>
        <pt x="447" y="907" on="0"/>
      </contour>
    </TTGlyph>
    <TTGlyph name="Otilde" xMin="130" yMin="-22" xMax="1918" yMax="2030">
      <component glyphName="O" x="0" y="0" flags="0x204"/>
      <component glyphName="tilde.cap" x="670" y="0" flags="0x4"/>
    </TTGlyph>
    <TTGlyph name="P" xMin="222" yMin="0" xMax="1749" yMax="1563">
      <contour>
        <pt x="222" y="1563" on="1"/>
        <pt x="1046" y="1563" on="1"/>
        <pt x="1226" y="1563" on="0"/>
        <pt x="1490" y="1485" on="0"/>
        <pt x="1664" y="1338" on="0"/>
        <pt x="1749" y="1126" on="0"/>
        <pt x="1749" y="993" on="1"/>
        <pt x="1749" y="868" on="0"/>
        <pt x="1665" y="656" on="0"/>
        <pt x="1492" y="501" on="0"/>
        <pt x="1228" y="414" on="0"/>
        <pt x="1048" y="414" on="1"/>
        <pt x="539" y="415" on="1"/>
        <pt x="539" y="0" on="1"/>
        <pt x="222" y="0" on="1"/>
      </contour>
      <contour>
        <pt x="1054" y="689" on="1"/>
        <pt x="1144" y="689" on="0"/>
        <pt x="1279" y="732" on="0"/>
        <pt x="1370" y="811" on="0"/>
        <pt x="1415" y="924" on="0"/>
        <pt x="1415" y="993" on="1"/>
        <pt x="1415" y="1132" on="0"/>
        <pt x="1234" y="1287" on="0"/>
        <pt x="1054" y="1287" on="1"/>
        <pt x="539" y="1287" on="1"/>
        <pt x="539" y="689" on="1"/>
      </contour>
    </TTGlyph>
    <TTGlyph name="Q" xMin="130" yMin="-22" xMax="2002" yMax="1584">
      <contour>
        <pt x="130" y="786" on="1"/>
        <pt x="130" y="963" on="0"/>
        <pt x="260" y="1257" on="0"/>
        <pt x="495" y="1468" on="0"/>
        <pt x="824" y="1584" on="0"/>
        <pt x="1024" y="1584" on="1"/>
        <pt x="1223" y="1584" on="0"/>
        <pt x="1553" y="1468" on="0"/>
        <pt x="1788" y="1257" on="0"/>
        <pt x="1918" y="963" on="0"/>
        <pt x="1918" y="786" on="1"/>
        <pt x="1918" y="628" on="0"/>
        <pt x="1815" y="359" on="0"/>
        <pt x="1721" y="255" on="1"/>
        <pt x="2002" y="0" on="1"/>
        <pt x="1600" y="0" on="1"/>
        <pt x="1503" y="88" on="1"/>
        <pt x="1401" y="34" on="0"/>
        <pt x="1161" y="-22" on="0"/>
        <pt x="1024" y="-22" on="1"/>
        <pt x="824" y="-22" on="0"/>
        <pt x="495" y="97" on="0"/>
        <pt x="260" y="311" on="0"/>
        <pt x="130" y="608" on="0"/>
      </contour>
      <contour>
        <pt x="447" y="786" on="1"/>
        <pt x="447" y="665" on="0"/>
        <pt x="534" y="471" on="0"/>
        <pt x="689" y="334" on="0"/>
        <pt x="900" y="260" on="0"/>
        <pt x="1024" y="260" on="1"/>
        <pt x="1157" y="260" on="0"/>
        <pt x="1267" y="302" on="1"/>
        <pt x="819" y="708" on="1"/>
        <pt x="1221" y="708" on="1"/>
        <pt x="1493" y="461" on="1"/>
        <pt x="1544" y="526" on="0"/>
        <pt x="1601" y="689" on="0"/>
        <pt x="1601" y="786" on="1"/>
        <pt x="1601" y="907" on="0"/>
        <pt x="1513" y="1099" on="0"/>
        <pt x="1359" y="1232" on="0"/>
        <pt x="1148" y="1302" on="0"/>
        <pt x="1024" y="1302" on="1"/>
        <pt x="900" y="1302" on="0"/>
        <pt x="689" y="1232" on="0"/>
        <pt x="534" y="1099" on="0"/>
        <pt x="447" y="907" on="0"/>
      </contour>
    </TTGlyph>
    <TTGlyph name="R" xMin="222" yMin="0" xMax="1720" yMax="1563">
      <contour>
        <pt x="222" y="1563" on="1"/>
        <pt x="1017" y="1563" on="1"/>
        <pt x="1197" y="1563" on="0"/>
        <pt x="1461" y="1488" on="0"/>
        <pt x="1635" y="1346" on="0"/>
        <pt x="1720" y="1142" on="0"/>
        <pt x="1720" y="1013" on="1"/>
        <pt x="1720" y="926" on="0"/>
        <pt x="1678" y="769" on="0"/>
        <pt x="1591" y="637" on="0"/>
        <pt x="1459" y="534" on="0"/>
        <pt x="1370" y="500" on="1"/>
        <pt x="1710" y="0" on="1"/>
        <pt x="1322" y="0" on="1"/>
        <pt x="1028" y="444" on="1"/>
        <pt x="1019" y="444" on="1"/>
        <pt x="539" y="445" on="1"/>
        <pt x="539" y="0" on="1"/>
        <pt x="222" y="0" on="1"/>
      </contour>
      <contour>
        <pt x="1025" y="719" on="1"/>
        <pt x="1115" y="719" on="0"/>
        <pt x="1250" y="761" on="0"/>
        <pt x="1341" y="837" on="0"/>
        <pt x="1386" y="946" on="0"/>
        <pt x="1386" y="1013" on="1"/>
        <pt x="1386" y="1144" on="0"/>
        <pt x="1206" y="1287" on="0"/>
        <pt x="1025" y="1287" on="1"/>
        <pt x="539" y="1287" on="1"/>
        <pt x="539" y="719" on="1"/>
      </contour>
    </TTGlyph>
    <TTGlyph name="Racute" xMin="222" yMin="0" xMax="1720" yMax="2030">
      <component glyphName="R" x="0" y="0" flags="0x204"/>
      <component glyphName="acute.cap" x="298" y="0" flags="0x4"/>
    </TTGlyph>
    <TTGlyph name="Rcaron" xMin="222" yMin="0" xMax="1720" yMax="2030">
      <component glyphName="R" x="0" y="0" flags="0x204"/>
      <component glyphName="caron.cap" x="307" y="0" flags="0x4"/>
    </TTGlyph>
    <TTGlyph name="Rcommaaccent" xMin="222" yMin="-530" xMax="1720" yMax="1563">
      <component glyphName="R" x="0" y="0" flags="0x204"/>
      <component glyphName="commaaccent" x="541" y="0" flags="0x4"/>
    </TTGlyph>
    <TTGlyph name="S" xMin="126" yMin="-22" xMax="1921" yMax="1583">
      <contour>
        <pt x="295" y="465" on="1"/>
        <pt x="380" y="417" on="0"/>
        <pt x="555" y="340" on="0"/>
        <pt x="743" y="287" on="0"/>
        <pt x="950" y="259" on="0"/>
        <pt x="1067" y="259" on="1"/>
        <pt x="1208" y="259" on="0"/>
        <pt x="1406" y="296" on="0"/>
        <pt x="1531" y="361" on="0"/>
        <pt x="1588" y="451" on="0"/>
        <pt x="1588" y="504" on="1"/>
        <pt x="1588" y="589" on="0"/>
        <pt x="1446" y="688" on="0"/>
        <pt x="1298" y="688" on="1"/>
        <pt x="1233" y="688" on="0"/>
        <pt x="1089" y="671" on="0"/>
        <pt x="942" y="651" on="0"/>
        <pt x="799" y="634" on="0"/>
        <pt x="736" y="634" on="1"/>
        <pt x="631" y="634" on="0"/>
        <pt x="438" y="688" on="0"/>
        <pt x="289" y="796" on="0"/>
        <pt x="201" y="958" on="0"/>
        <pt x="201" y="1066" on="1"/>
        <pt x="201" y="1130" on="0"/>
        <pt x="236" y="1256" on="0"/>
        <pt x="313" y="1371" on="0"/>
        <pt x="435" y="1470" on="0"/>
        <pt x="608" y="1542" on="0"/>
        <pt x="835" y="1583" on="0"/>
        <pt x="980" y="1583" on="1"/>
        <pt x="1085" y="1583" on="0"/>
        <pt x="1297" y="1560" on="0"/>
        <pt x="1498" y="1518" on="0"/>
        <pt x="1684" y="1459" on="0"/>
        <pt x="1764" y="1423" on="1"/>
        <pt x="1625" y="1167" on="1"/>
        <pt x="1559" y="1196" on="0"/>
        <pt x="1407" y="1245" on="0"/>
        <pt x="1241" y="1281" on="0"/>
        <pt x="1064" y="1302" on="0"/>
        <pt x="972" y="1302" on="1"/>
        <pt x="841" y="1302" on="0"/>
        <pt x="672" y="1264" on="0"/>
        <pt x="572" y="1205" on="0"/>
        <pt x="533" y="1132" on="0"/>
        <pt x="533" y="1096" on="1"/>
        <pt x="533" y="1026" on="0"/>
        <pt x="659" y="937" on="0"/>
        <pt x="788" y="937" on="1"/>
        <pt x="840" y="937" on="0"/>
        <pt x="975" y="952" on="0"/>
        <pt x="1124" y="970" on="0"/>
        <pt x="1279" y="985" on="0"/>
        <pt x="1352" y="985" on="1"/>
        <pt x="1490" y="985" on="0"/>
        <pt x="1703" y="923" on="0"/>
        <pt x="1847" y="808" on="0"/>
        <pt x="1921" y="645" on="0"/>
        <pt x="1921" y="544" on="1"/>
        <pt x="1921" y="409" on="0"/>
        <pt x="1796" y="198" on="0"/>
        <pt x="1565" y="53" on="0"/>
        <pt x="1239" y="-22" on="0"/>
        <pt x="1039" y="-22" on="1"/>
        <pt x="907" y="-22" on="0"/>
        <pt x="655" y="11" on="0"/>
        <pt x="424" y="72" on="0"/>
        <pt x="215" y="157" on="0"/>
        <pt x="126" y="208" on="1"/>
      </contour>
    </TTGlyph>
    <TTGlyph name="Sacute" xMin="126" yMin="-22" xMax="1921" yMax="2030">
      <component glyphName="S" x="0" y="0" flags="0x204"/>
      <component glyphName="acute.cap" x="350" y="0" flags="0x4"/>
    </TTGlyph>
    <TTGlyph name="Scaron" xMin="126" yMin="-22" xMax="1921" yMax="2030">
      <component glyphName="S" x="0" y="0" flags="0x204"/>
      <component glyphName="caron.cap" x="359" y="0" flags="0x4"/>
    </TTGlyph>
    <TTGlyph name="Scedilla" xMin="126" yMin="-530" xMax="1921" yMax="1583">
      <component glyphName="S" x="0" y="0" flags="0x204"/>
      <component glyphName="cedilla" x="563" y="0" flags="0x4"/>
    </TTGlyph>
    <TTGlyph name="Scircumflex" xMin="126" yMin="-22" xMax="1921" yMax="2030">
      <component glyphName="S" x="0" y="0" flags="0x204"/>
      <component glyphName="circumflex.cap" x="358" y="0" flags="0x4"/>
    </TTGlyph>
    <TTGlyph name="Scommaaccent" xMin="126" yMin="-530" xMax="1921" yMax="1583">
      <component glyphName="S" x="0" y="0" flags="0x204"/>
      <component glyphName="commaaccent" x="629" y="0" flags="0x4"/>
    </TTGlyph>
    <TTGlyph name="T" xMin="116" yMin="0" xMax="1587" yMax="1563">
      <contour>
        <pt x="693" y="1285" on="1"/>
        <pt x="116" y="1285" on="1"/>
        <pt x="116" y="1563" on="1"/>
        <pt x="1587" y="1563" on="1"/>
        <pt x="1587" y="1285" on="1"/>
        <pt x="1010" y="1285" on="1"/>
        <pt x="1010" y="0" on="1"/>
        <pt x="693" y="0" on="1"/>
      </contour>
    </TTGlyph>
    <TTGlyph name="Tbar" xMin="116" yMin="0" xMax="1587" yMax="1563">
      <component glyphName="T" x="0" y="0" flags="0x204"/>
      <component glyphName="macron" x="255" y="-692" flags="0x4"/>
    </TTGlyph>
    <TTGlyph name="Tcaron" xMin="116" yMin="0" xMax="1587" yMax="2030">
      <component glyphName="T" x="0" y="0" flags="0x204"/>
      <component glyphName="caron.cap" x="187" y="0" flags="0x4"/>
    </TTGlyph>
    <TTGlyph name="Tcommaaccent" xMin="116" yMin="-530" xMax="1587" yMax="1563">
      <component glyphName="T" x="0" y="0" flags="0x204"/>
      <component glyphName="commaaccent" x="456" y="0" flags="0x4"/>
    </TTGlyph>
    <TTGlyph name="Thorn" xMin="222" yMin="0" xMax="1720" yMax="1563">
      <contour>
        <pt x="222" y="1563" on="1"/>
        <pt x="539" y="1563" on="1"/>
        <pt x="539" y="1363" on="1"/>
        <pt x="1017" y="1363" on="1"/>
        <pt x="1197" y="1363" on="0"/>
        <pt x="1461" y="1286" on="0"/>
        <pt x="1635" y="1143" on="0"/>
        <pt x="1720" y="940" on="0"/>
        <pt x="1720" y="813" on="1"/>
        <pt x="1720" y="693" on="0"/>
        <pt x="1636" y="488" on="0"/>
        <pt x="1463" y="338" on="0"/>
        <pt x="1199" y="254" on="0"/>
        <pt x="1019" y="254" on="1"/>
        <pt x="539" y="255" on="1"/>
        <pt x="539" y="0" on="1"/>
        <pt x="222" y="0" on="1"/>
      </contour>
      <contour>
        <pt x="1025" y="529" on="1"/>
        <pt x="1115" y="529" on="0"/>
        <pt x="1250" y="569" on="0"/>
        <pt x="1341" y="643" on="0"/>
        <pt x="1386" y="748" on="0"/>
        <pt x="1386" y="813" on="1"/>
        <pt x="1386" y="876" on="0"/>
        <pt x="1341" y="977" on="0"/>
        <pt x="1250" y="1048" on="0"/>
        <pt x="1115" y="1087" on="0"/>
        <pt x="1025" y="1087" on="1"/>
        <pt x="539" y="1087" on="1"/>
        <pt x="539" y="529" on="1"/>
      </contour>
    </TTGlyph>
    <TTGlyph name="U" xMin="163" yMin="-20" xMax="1709" yMax="1563">
      <contour>
        <pt x="163" y="1563" on="1"/>
        <pt x="480" y="1563" on="1"/>
        <pt x="480" y="702" on="1"/>
        <pt x="480" y="596" on="0"/>
        <pt x="538" y="431" on="0"/>
        <pt x="653" y="317" on="0"/>
        <pt x="823" y="258" on="0"/>
        <pt x="936" y="258" on="1"/>
        <pt x="1048" y="258" on="0"/>
        <pt x="1219" y="317" on="0"/>
        <pt x="1334" y="431" on="0"/>
        <pt x="1392" y="596" on="0"/>
        <pt x="1392" y="702" on="1"/>
        <pt x="1392" y="1563" on="1"/>
        <pt x="1709" y="1563" on="1"/>
        <pt x="1709" y="664" on="1"/>
        <pt x="1709" y="510" on="0"/>
        <pt x="1605" y="258" on="0"/>
        <pt x="1407" y="78" on="0"/>
        <pt x="1120" y="-20" on="0"/>
        <pt x="936" y="-20" on="1"/>
        <pt x="752" y="-20" on="0"/>
        <pt x="465" y="78" on="0"/>
        <pt x="267" y="258" on="0"/>
        <pt x="163" y="510" on="0"/>
        <pt x="163" y="664" on="1"/>
      </contour>
    </TTGlyph>
    <TTGlyph name="Uacute" xMin="163" yMin="-20" xMax="1709" yMax="2030">
      <component glyphName="U" x="0" y="0" flags="0x204"/>
      <component glyphName="acute.cap" x="263" y="0" flags="0x4"/>
    </TTGlyph>
    <TTGlyph name="Ubreve" xMin="163" yMin="-20" xMax="1709" yMax="2030">
      <component glyphName="U" x="0" y="0" flags="0x204"/>
      <component glyphName="breve.cap" x="596" y="0" flags="0x4"/>
    </TTGlyph>
    <TTGlyph name="Ucircumflex" xMin="163" yMin="-20" xMax="1709" yMax="2030">
      <component glyphName="U" x="0" y="0" flags="0x204"/>
      <component glyphName="circumflex.cap" x="271" y="0" flags="0x4"/>
    </TTGlyph>
    <TTGlyph name="Udieresis" xMin="163" yMin="-20" xMax="1709" yMax="2030">
      <component glyphName="U" x="0" y="0" flags="0x204"/>
      <component glyphName="dieresis.cap" x="139" y="0" flags="0x4"/>
    </TTGlyph>
    <TTGlyph name="Ugrave" xMin="163" yMin="-20" xMax="1709" yMax="2030">
      <component glyphName="U" x="0" y="0" flags="0x204"/>
      <component glyphName="grave.cap" x="372" y="0" flags="0x4"/>
    </TTGlyph>
    <TTGlyph name="Uhungarumlaut" xMin="163" yMin="-20" xMax="1709" yMax="2030">
      <component glyphName="U" x="0" y="0" flags="0x204"/>
      <component glyphName="hungarumlaut.cap" x="428" y="0" flags="0x4"/>
    </TTGlyph>
    <TTGlyph name="Umacron" xMin="163" yMin="-20" xMax="1709" yMax="2013">
      <component glyphName="U" x="0" y="0" flags="0x204"/>
      <component glyphName="macron.cap" x="596" y="0" flags="0x4"/>
    </TTGlyph>
    <TTGlyph name="Uogonek" xMin="163" yMin="-530" xMax="1709" yMax="1563">
      <contour>
        <pt x="163" y="1563" on="1"/>
        <pt x="480" y="1563" on="1"/>
        <pt x="480" y="702" on="1"/>
        <pt x="480" y="596" on="0"/>
        <pt x="538" y="431" on="0"/>
        <pt x="653" y="317" on="0"/>
        <pt x="823" y="258" on="0"/>
        <pt x="936" y="258" on="1"/>
        <pt x="1048" y="258" on="0"/>
        <pt x="1219" y="317" on="0"/>
        <pt x="1334" y="431" on="0"/>
        <pt x="1392" y="596" on="0"/>
        <pt x="1392" y="702" on="1"/>
        <pt x="1392" y="1563" on="1"/>
        <pt x="1709" y="1563" on="1"/>
        <pt x="1709" y="664" on="1"/>
        <pt x="1709" y="524" on="0"/>
        <pt x="1623" y="292" on="0"/>
        <pt x="1542" y="204" on="1"/>
        <pt x="1470" y="142" on="0"/>
        <pt x="1357" y="30" on="0"/>
        <pt x="1279" y="-73" on="0"/>
        <pt x="1238" y="-167" on="0"/>
        <pt x="1238" y="-212" on="1"/>
        <pt x="1238" y="-259" on="0"/>
        <pt x="1288" y="-310" on="0"/>
        <pt x="1348" y="-310" on="1"/>
        <pt x="1391" y="-310" on="0"/>
        <pt x="1473" y="-285" on="0"/>
        <pt x="1515" y="-263" on="1"/>
        <pt x="1592" y="-451" on="1"/>
        <pt x="1512" y="-492" on="0"/>
        <pt x="1354" y="-530" on="0"/>
        <pt x="1282" y="-530" on="1"/>
        <pt x="1204" y="-530" on="0"/>
        <pt x="1084" y="-490" on="0"/>
        <pt x="1004" y="-424" on="0"/>
        <pt x="963" y="-342" on="0"/>
        <pt x="963" y="-300" on="1"/>
        <pt x="963" y="-265" on="0"/>
        <pt x="991" y="-186" on="0"/>
        <pt x="1042" y="-107" on="0"/>
        <pt x="1115" y="-32" on="0"/>
        <pt x="1160" y="1" on="1"/>
        <pt x="1108" y="-9" on="0"/>
        <pt x="997" y="-20" on="0"/>
        <pt x="936" y="-20" on="1"/>
        <pt x="752" y="-20" on="0"/>
        <pt x="465" y="78" on="0"/>
        <pt x="267" y="258" on="0"/>
        <pt x="163" y="510" on="0"/>
        <pt x="163" y="664" on="1"/>
      </contour>
    </TTGlyph>
    <TTGlyph name="Uring" xMin="163" yMin="-20" xMax="1709" yMax="2029">
      <component glyphName="U" x="0" y="0" flags="0x204"/>
      <component glyphName="ring.cap" x="596" y="0" flags="0x4"/>
    </TTGlyph>
    <TTGlyph name="Utilde" xMin="163" yMin="-20" xMax="1709" yMax="2030">
      <component glyphName="U" x="0" y="0" flags="0x204"/>
      <component glyphName="tilde.cap" x="582" y="0" flags="0x4"/>
    </TTGlyph>
    <TTGlyph name="V" xMin="13" yMin="0" xMax="1697" yMax="1563">
      <contour>
        <pt x="13" y="1563" on="1"/>
        <pt x="364" y="1563" on="1"/>
        <pt x="855" y="371" on="1"/>
        <pt x="1346" y="1563" on="1"/>
        <pt x="1697" y="1563" on="1"/>
        <pt x="1012" y="0" on="1"/>
        <pt x="698" y="0" on="1"/>
      </contour>
    </TTGlyph>
    <TTGlyph name="W" xMin="20" yMin="0" xMax="2534" yMax="1563">
      <contour>
        <pt x="20" y="1563" on="1"/>
        <pt x="366" y="1563" on="1"/>
        <pt x="790" y="554" on="1"/>
        <pt x="888" y="310" on="1"/>
        <pt x="965" y="554" on="1"/>
        <pt x="1121" y="922" on="1"/>
        <pt x="840" y="1563" on="1"/>
        <pt x="1166" y="1563" on="1"/>
        <pt x="1281" y="1258" on="1"/>
        <pt x="1388" y="1563" on="1"/>
        <pt x="1714" y="1563" on="1"/>
        <pt x="1433" y="922" on="1"/>
        <pt x="1592" y="546" on="1"/>
        <pt x="1688" y="310" on="1"/>
        <pt x="1762" y="550" on="1"/>
        <pt x="2188" y="1563" on="1"/>
        <pt x="2534" y="1563" on="1"/>
        <pt x="1844" y="0" on="1"/>
        <pt x="1530" y="0" on="1"/>
        <pt x="1391" y="310" on="1"/>
        <pt x="1278" y="611" on="1"/>
        <pt x="1165" y="310" on="1"/>
        <pt x="1024" y="0" on="1"/>
        <pt x="710" y="0" on="1"/>
      </contour>
    </TTGlyph>
    <TTGlyph name="Wacute" xMin="20" yMin="0" xMax="2534" yMax="2030">
      <component glyphName="W" x="0" y="0" flags="0x204"/>
      <component glyphName="acute.cap" x="604" y="0" flags="0x4"/>
    </TTGlyph>
    <TTGlyph name="Wcircumflex" xMin="20" yMin="0" xMax="2534" yMax="2030">
      <component glyphName="W" x="0" y="0" flags="0x204"/>
      <component glyphName="circumflex.cap" x="612" y="0" flags="0x4"/>
    </TTGlyph>
    <TTGlyph name="Wdieresis" xMin="20" yMin="0" xMax="2534" yMax="2030">
      <component glyphName="W" x="0" y="0" flags="0x204"/>
      <component glyphName="dieresis.cap" x="480" y="0" flags="0x4"/>
    </TTGlyph>
    <TTGlyph name="Wgrave" xMin="20" yMin="0" xMax="2534" yMax="2030">
      <component glyphName="W" x="0" y="0" flags="0x204"/>
      <component glyphName="grave.cap" x="713" y="0" flags="0x4"/>
    </TTGlyph>
    <TTGlyph name="X" xMin="16" yMin="0" xMax="1688" yMax="1563">
      <contour>
        <pt x="666" y="794" on="1"/>
        <pt x="65" y="1563" on="1"/>
        <pt x="453" y="1563" on="1"/>
        <pt x="868" y="1025" on="1"/>
        <pt x="1285" y="1563" on="1"/>
        <pt x="1667" y="1563" on="1"/>
        <pt x="1055" y="797" on="1"/>
        <pt x="1688" y="0" on="1"/>
        <pt x="1299" y="0" on="1"/>
        <pt x="854" y="562" on="1"/>
        <pt x="399" y="0" on="1"/>
        <pt x="16" y="0" on="1"/>
      </contour>
    </TTGlyph>
    <TTGlyph name="Y" xMin="18" yMin="0" xMax="1692" yMax="1563">
      <contour>
        <pt x="701" y="387" on="1"/>
        <pt x="18" y="1563" on="1"/>
        <pt x="377" y="1563" on="1"/>
        <pt x="858" y="674" on="1"/>
        <pt x="1333" y="1563" on="1"/>
        <pt x="1692" y="1563" on="1"/>
        <pt x="1018" y="389" on="1"/>
        <pt x="1018" y="0" on="1"/>
        <pt x="701" y="0" on="1"/>
      </contour>
    </TTGlyph>
    <TTGlyph name="Yacute" xMin="18" yMin="0" xMax="1692" yMax="2030">
      <component glyphName="Y" x="0" y="0" flags="0x204"/>
      <component glyphName="acute.cap" x="182" y="0" flags="0x4"/>
    </TTGlyph>
    <TTGlyph name="Ycircumflex" xMin="18" yMin="0" xMax="1692" yMax="2030">
      <component glyphName="Y" x="0" y="0" flags="0x204"/>
      <component glyphName="circumflex.cap" x="190" y="0" flags="0x4"/>
    </TTGlyph>
    <TTGlyph name="Ydieresis" xMin="18" yMin="0" xMax="1692" yMax="2030">
      <component glyphName="Y" x="0" y="0" flags="0x204"/>
      <component glyphName="dieresis.cap" x="58" y="0" flags="0x4"/>
    </TTGlyph>
    <TTGlyph name="Ygrave" xMin="18" yMin="0" xMax="1692" yMax="2030">
      <component glyphName="Y" x="0" y="0" flags="0x204"/>
      <component glyphName="grave.cap" x="291" y="0" flags="0x4"/>
    </TTGlyph>
    <TTGlyph name="Z" xMin="75" yMin="0" xMax="1681" yMax="1563">
      <contour>
        <pt x="941" y="1110" on="1"/>
        <pt x="1091" y="1293" on="1"/>
        <pt x="152" y="1293" on="1"/>
        <pt x="152" y="1563" on="1"/>
        <pt x="1681" y="1563" on="1"/>
        <pt x="806" y="464" on="1"/>
        <pt x="650" y="270" on="1"/>
        <pt x="1632" y="270" on="1"/>
        <pt x="1632" y="0" on="1"/>
        <pt x="75" y="0" on="1"/>
      </contour>
    </TTGlyph>
    <TTGlyph name="Zacute" xMin="75" yMin="0" xMax="1681" yMax="2030">
      <component glyphName="Z" x="0" y="0" flags="0x204"/>
      <component glyphName="acute.cap" x="205" y="0" flags="0x4"/>
    </TTGlyph>
    <TTGlyph name="Zcaron" xMin="75" yMin="0" xMax="1681" yMax="2030">
      <component glyphName="Z" x="0" y="0" flags="0x204"/>
      <component glyphName="caron.cap" x="214" y="0" flags="0x4"/>
    </TTGlyph>
    <TTGlyph name="Zdotaccent" xMin="75" yMin="0" xMax="1681" yMax="2030">
      <component glyphName="Z" x="0" y="0" flags="0x204"/>
      <component glyphName="dotaccent.cap" x="539" y="0" flags="0x4"/>
    </TTGlyph>
    <TTGlyph name="a" xMin="129" yMin="-21" xMax="1495" yMax="1201">
      <contour>
        <pt x="129" y="372" on="1"/>
        <pt x="129" y="457" on="0"/>
        <pt x="203" y="597" on="0"/>
        <pt x="351" y="698" on="0"/>
        <pt x="572" y="753" on="0"/>
        <pt x="719" y="753" on="1"/>
        <pt x="828" y="753" on="0"/>
        <pt x="1069" y="721" on="0"/>
        <pt x="1197" y="688" on="1"/>
        <pt x="1192" y="744" on="0"/>
        <pt x="1134" y="839" on="0"/>
        <pt x="1031" y="908" on="0"/>
        <pt x="886" y="946" on="0"/>
        <pt x="794" y="946" on="1"/>
        <pt x="744" y="946" on="0"/>
        <pt x="624" y="934" on="0"/>
        <pt x="496" y="910" on="0"/>
        <pt x="371" y="874" on="0"/>
        <pt x="317" y="849" on="1"/>
        <pt x="227" y="1092" on="1"/>
        <pt x="294" y="1116" on="0"/>
        <pt x="447" y="1156" on="0"/>
        <pt x="607" y="1185" on="0"/>
        <pt x="767" y="1201" on="0"/>
        <pt x="842" y="1201" on="1"/>
        <pt x="1173" y="1201" on="0"/>
        <pt x="1495" y="863" on="0"/>
        <pt x="1495" y="514" on="1"/>
        <pt x="1495" y="0" on="1"/>
        <pt x="1199" y="0" on="1"/>
        <pt x="1199" y="111" on="1"/>
        <pt x="1153" y="84" on="0"/>
        <pt x="1044" y="36" on="0"/>
        <pt x="916" y="0" on="0"/>
        <pt x="769" y="-21" on="0"/>
        <pt x="687" y="-21" on="1"/>
        <pt x="549" y="-21" on="0"/>
        <pt x="340" y="39" on="0"/>
        <pt x="200" y="145" on="0"/>
        <pt x="129" y="288" on="0"/>
      </contour>
      <contour>
        <pt x="441" y="382" on="1"/>
        <pt x="441" y="353" on="0"/>
        <pt x="471" y="300" on="0"/>
        <pt x="537" y="259" on="0"/>
        <pt x="640" y="234" on="0"/>
        <pt x="713" y="234" on="1"/>
        <pt x="791" y="234" on="0"/>
        <pt x="937" y="262" on="0"/>
        <pt x="1063" y="308" on="0"/>
        <pt x="1165" y="368" on="0"/>
        <pt x="1199" y="400" on="1"/>
        <pt x="1199" y="452" on="1"/>
        <pt x="1131" y="471" on="0"/>
        <pt x="998" y="497" on="0"/>
        <pt x="877" y="512" on="0"/>
        <pt x="770" y="518" on="0"/>
        <pt x="730" y="518" on="1"/>
        <pt x="647" y="518" on="0"/>
        <pt x="537" y="496" on="0"/>
        <pt x="469" y="459" on="0"/>
        <pt x="441" y="409" on="0"/>
      </contour>
    </TTGlyph>
    <TTGlyph name="aacute" xMin="129" yMin="-21" xMax="1495" yMax="1849">
      <component glyphName="a" x="0" y="0" flags="0x204"/>
      <component glyphName="acute" x="316" y="0" flags="0x4"/>
    </TTGlyph>
    <TTGlyph name="abreve" xMin="129" yMin="-21" xMax="1495" yMax="1737">
      <component glyphName="a" x="0" y="0" flags="0x204"/>
      <component glyphName="breve" x="281" y="0" flags="0x4"/>
    </TTGlyph>
    <TTGlyph name="acircumflex" xMin="129" yMin="-21" xMax="1495" yMax="1890">
      <component glyphName="a" x="0" y="0" flags="0x204"/>
      <component glyphName="circumflex" x="273" y="0" flags="0x4"/>
    </TTGlyph>
    <TTGlyph name="acute" xMin="98" yMin="1321" xMax="895" yMax="1849">
      <contour>
        <pt x="98" y="1528" on="1"/>
        <pt x="784" y="1849" on="1"/>
        <pt x="895" y="1620" on="1"/>
        <pt x="197" y="1321" on="1"/>
      </contour>
    </TTGlyph>
    <TTGlyph name="acute.cap" xMin="301" yMin="1623" xMax="1045" yMax="2030">
      <contour>
        <pt x="301" y="1841" on="1"/>
        <pt x="975" y="2030" on="1"/>
        <pt x="1045" y="1782" on="1"/>
        <pt x="363" y="1623" on="1"/>
      </contour>
    </TTGlyph>
    <TTGlyph name="adieresis" xMin="129" yMin="-21" xMax="1495" yMax="1763">
      <component glyphName="a" x="0" y="0" flags="0x204"/>
      <component glyphName="dieresis" x="201" y="0" flags="0x4"/>
    </TTGlyph>
    <TTGlyph name="ae" xMin="129" yMin="-22" xMax="2593" yMax="1201">
      <contour>
        <pt x="129" y="371" on="1"/>
        <pt x="129" y="456" on="0"/>
        <pt x="197" y="597" on="0"/>
        <pt x="337" y="698" on="0"/>
        <pt x="552" y="753" on="0"/>
        <pt x="699" y="753" on="1"/>
        <pt x="808" y="753" on="0"/>
        <pt x="1049" y="721" on="0"/>
        <pt x="1177" y="688" on="1"/>
        <pt x="1172" y="744" on="0"/>
        <pt x="1111" y="839" on="0"/>
        <pt x="1004" y="908" on="0"/>
        <pt x="856" y="946" on="0"/>
        <pt x="764" y="946" on="1"/>
        <pt x="714" y="946" on="0"/>
        <pt x="603" y="934" on="0"/>
        <pt x="487" y="910" on="0"/>
        <pt x="371" y="874" on="0"/>
        <pt x="317" y="849" on="1"/>
        <pt x="227" y="1092" on="1"/>
        <pt x="358" y="1139" on="0"/>
        <pt x="658" y="1201" on="0"/>
        <pt x="812" y="1201" on="1"/>
        <pt x="989" y="1201" on="0"/>
        <pt x="1245" y="1108" on="0"/>
        <pt x="1328" y="1011" on="1"/>
        <pt x="1422" y="1098" on="0"/>
        <pt x="1690" y="1201" on="0"/>
        <pt x="1864" y="1201" on="1"/>
        <pt x="2033" y="1201" on="0"/>
        <pt x="2303" y="1100" on="0"/>
        <pt x="2492" y="924" on="0"/>
        <pt x="2593" y="686" on="0"/>
        <pt x="2593" y="550" on="1"/>
        <pt x="2593" y="533" on="0"/>
        <pt x="2592" y="494" on="0"/>
        <pt x="2590" y="478" on="1"/>
        <pt x="1475" y="478" on="1"/>
        <pt x="1475" y="475" on="1"/>
        <pt x="1494" y="421" on="0"/>
        <pt x="1583" y="333" on="0"/>
        <pt x="1712" y="271" on="0"/>
        <pt x="1875" y="238" on="0"/>
        <pt x="1969" y="238" on="1"/>
        <pt x="2078" y="238" on="0"/>
        <pt x="2277" y="280" on="0"/>
        <pt x="2372" y="314" on="1"/>
        <pt x="2472" y="88" on="1"/>
        <pt x="2356" y="32" on="0"/>
        <pt x="2087" y="-22" on="0"/>
        <pt x="1947" y="-22" on="1"/>
        <pt x="1733" y="-22" on="0"/>
        <pt x="1403" y="95" on="0"/>
        <pt x="1301" y="199" on="1"/>
        <pt x="1260" y="160" on="0"/>
        <pt x="1141" y="82" on="0"/>
        <pt x="984" y="19" on="0"/>
        <pt x="790" y="-21" on="0"/>
        <pt x="673" y="-21" on="1"/>
        <pt x="532" y="-21" on="0"/>
        <pt x="326" y="39" on="0"/>
        <pt x="193" y="144" on="0"/>
        <pt x="129" y="288" on="0"/>
      </contour>
      <contour>
        <pt x="2279" y="709" on="1"/>
        <pt x="2263" y="758" on="0"/>
        <pt x="2196" y="843" on="0"/>
        <pt x="2096" y="906" on="0"/>
        <pt x="1964" y="942" on="0"/>
        <pt x="1883" y="942" on="1"/>
        <pt x="1800" y="942" on="0"/>
        <pt x="1663" y="904" on="0"/>
        <pt x="1560" y="840" on="0"/>
        <pt x="1490" y="756" on="0"/>
        <pt x="1474" y="709" on="1"/>
      </contour>
      <contour>
        <pt x="443" y="382" on="1"/>
        <pt x="443" y="353" on="0"/>
        <pt x="467" y="300" on="0"/>
        <pt x="525" y="259" on="0"/>
        <pt x="622" y="234" on="0"/>
        <pt x="695" y="234" on="1"/>
        <pt x="773" y="234" on="0"/>
        <pt x="919" y="262" on="0"/>
        <pt x="1045" y="308" on="0"/>
        <pt x="1147" y="368" on="0"/>
        <pt x="1181" y="400" on="1"/>
        <pt x="1181" y="452" on="1"/>
        <pt x="1113" y="471" on="0"/>
        <pt x="980" y="497" on="0"/>
        <pt x="859" y="512" on="0"/>
        <pt x="752" y="518" on="0"/>
        <pt x="712" y="518" on="1"/>
        <pt x="633" y="518" on="0"/>
        <pt x="529" y="498" on="0"/>
        <pt x="468" y="462" on="0"/>
        <pt x="443" y="412" on="0"/>
      </contour>
    </TTGlyph>
    <TTGlyph name="aeacute" xMin="129" yMin="-22" xMax="2593" yMax="1847">
      <component glyphName="ae" x="0" y="0" flags="0x204"/>
      <component glyphName="acute" x="864" y="-2" flags="0x4"/>
    </TTGlyph>
    <TTGlyph name="agrave" xMin="129" yMin="-21" xMax="1495" yMax="1849">
      <component glyphName="a" x="0" y="0" flags="0x204"/>
      <component glyphName="grave" x="288" y="0" flags="0x4"/>
    </TTGlyph>
    <TTGlyph name="amacron" xMin="129" yMin="-21" xMax="1495" yMax="1690">
      <component glyphName="a" x="0" y="0" flags="0x204"/>
      <component glyphName="macron" x="216" y="0" flags="0x4"/>
    </TTGlyph>
    <TTGlyph name="ampersand" xMin="167" yMin="-26" xMax="2150" yMax="1585">
      <contour>
        <pt x="167" y="498" on="1"/>
        <pt x="167" y="547" on="0"/>
        <pt x="187" y="643" on="0"/>
        <pt x="236" y="747" on="0"/>
        <pt x="317" y="862" on="0"/>
        <pt x="379" y="931" on="1"/>
        <pt x="344" y="988" on="0"/>
        <pt x="313" y="1097" on="0"/>
        <pt x="313" y="1154" on="1"/>
        <pt x="313" y="1248" on="0"/>
        <pt x="389" y="1406" on="0"/>
        <pt x="527" y="1521" on="0"/>
        <pt x="719" y="1585" on="0"/>
        <pt x="835" y="1585" on="1"/>
        <pt x="959" y="1585" on="0"/>
        <pt x="1158" y="1513" on="0"/>
        <pt x="1298" y="1391" on="0"/>
        <pt x="1373" y="1228" on="0"/>
        <pt x="1373" y="1138" on="1"/>
        <pt x="1373" y="1083" on="0"/>
        <pt x="1344" y="972" on="0"/>
        <pt x="1286" y="853" on="0"/>
        <pt x="1200" y="723" on="0"/>
        <pt x="1143" y="649" on="1"/>
        <pt x="1380" y="472" on="1"/>
        <pt x="1457" y="563" on="0"/>
        <pt x="1562" y="796" on="0"/>
        <pt x="1591" y="932" on="1"/>
        <pt x="1490" y="932" on="1"/>
        <pt x="1490" y="1180" on="1"/>
        <pt x="2150" y="1180" on="1"/>
        <pt x="2150" y="932" on="1"/>
        <pt x="1854" y="932" on="1"/>
        <pt x="1819" y="760" on="0"/>
        <pt x="1697" y="447" on="0"/>
        <pt x="1598" y="319" on="1"/>
        <pt x="1644" y="293" on="0"/>
        <pt x="1727" y="264" on="0"/>
        <pt x="1805" y="252" on="0"/>
        <pt x="1880" y="254" on="0"/>
        <pt x="1920" y="260" on="1"/>
        <pt x="2010" y="1" on="1"/>
        <pt x="1924" y="-16" on="0"/>
        <pt x="1773" y="-26" on="0"/>
        <pt x="1624" y="-3" on="0"/>
        <pt x="1467" y="59" on="0"/>
        <pt x="1376" y="116" on="1"/>
        <pt x="1272" y="51" on="0"/>
        <pt x="1015" y="-21" on="0"/>
        <pt x="854" y="-21" on="1"/>
        <pt x="683" y="-21" on="0"/>
        <pt x="425" y="61" on="0"/>
        <pt x="253" y="202" on="0"/>
        <pt x="167" y="391" on="0"/>
      </contour>
      <contour>
        <pt x="929" y="810" on="1"/>
        <pt x="1001" y="905" on="0"/>
        <pt x="1062" y="1052" on="0"/>
        <pt x="1062" y="1118" on="1"/>
        <pt x="1062" y="1173" on="0"/>
        <pt x="1025" y="1252" on="0"/>
        <pt x="963" y="1302" on="0"/>
        <pt x="880" y="1326" on="0"/>
        <pt x="834" y="1326" on="1"/>
        <pt x="784" y="1326" on="0"/>
        <pt x="706" y="1301" on="0"/>
        <pt x="652" y="1257" on="0"/>
        <pt x="624" y="1197" on="0"/>
        <pt x="624" y="1162" on="1"/>
        <pt x="624" y="1136" on="0"/>
        <pt x="643" y="1077" on="0"/>
        <pt x="694" y="1005" on="0"/>
        <pt x="785" y="919" on="0"/>
        <pt x="856" y="865" on="1"/>
      </contour>
      <contour>
        <pt x="478" y="520" on="1"/>
        <pt x="478" y="464" on="0"/>
        <pt x="525" y="362" on="0"/>
        <pt x="622" y="284" on="0"/>
        <pt x="769" y="238" on="0"/>
        <pt x="869" y="238" on="1"/>
        <pt x="943" y="238" on="0"/>
        <pt x="1075" y="264" on="0"/>
        <pt x="1135" y="289" on="1"/>
        <pt x="647" y="660" on="1"/>
        <pt x="624" y="677" on="0"/>
        <pt x="582" y="711" on="0"/>
        <pt x="562" y="728" on="1"/>
        <pt x="522" y="678" on="0"/>
        <pt x="478" y="577" on="0"/>
      </contour>
    </TTGlyph>
    <TTGlyph name="aogonek" xMin="129" yMin="-530" xMax="1495" yMax="1201">
      <component glyphName="a" x="0" y="0" flags="0x204"/>
      <component glyphName="ogonek" x="730" y="0" flags="0x4"/>
    </TTGlyph>
    <TTGlyph name="approxequal" xMin="170" yMin="170" xMax="1066" yMax="1059">
      <contour>
        <pt x="170" y="942" on="1"/>
        <pt x="224" y="999" on="0"/>
        <pt x="358" y="1059" on="0"/>
        <pt x="430" y="1059" on="1"/>
        <pt x="493" y="1059" on="0"/>
        <pt x="589" y="1020" on="0"/>
        <pt x="675" y="973" on="0"/>
        <pt x="757" y="934" on="0"/>
        <pt x="806" y="934" on="1"/>
        <pt x="836" y="934" on="0"/>
        <pt x="907" y="951" on="0"/>
        <pt x="977" y="981" on="0"/>
        <pt x="1042" y="1023" on="0"/>
        <pt x="1066" y="1047" on="1"/>
        <pt x="1066" y="797" on="1"/>
        <pt x="1012" y="740" on="0"/>
        <pt x="878" y="680" on="0"/>
        <pt x="806" y="680" on="1"/>
        <pt x="743" y="680" on="0"/>
        <pt x="647" y="719" on="0"/>
        <pt x="561" y="766" on="0"/>
        <pt x="479" y="805" on="0"/>
        <pt x="430" y="805" on="1"/>
        <pt x="400" y="805" on="0"/>
        <pt x="329" y="788" on="0"/>
        <pt x="259" y="758" on="0"/>
        <pt x="194" y="716" on="0"/>
        <pt x="170" y="692" on="1"/>
      </contour>
      <contour>
        <pt x="170" y="432" on="1"/>
        <pt x="224" y="489" on="0"/>
        <pt x="358" y="549" on="0"/>
        <pt x="430" y="549" on="1"/>
        <pt x="493" y="549" on="0"/>
        <pt x="589" y="510" on="0"/>
        <pt x="675" y="463" on="0"/>
        <pt x="757" y="424" on="0"/>
        <pt x="806" y="424" on="1"/>
        <pt x="836" y="424" on="0"/>
        <pt x="907" y="441" on="0"/>
        <pt x="977" y="471" on="0"/>
        <pt x="1042" y="513" on="0"/>
        <pt x="1066" y="537" on="1"/>
        <pt x="1066" y="287" on="1"/>
        <pt x="1012" y="230" on="0"/>
        <pt x="878" y="170" on="0"/>
        <pt x="806" y="170" on="1"/>
        <pt x="743" y="170" on="0"/>
        <pt x="647" y="209" on="0"/>
        <pt x="561" y="256" on="0"/>
        <pt x="479" y="295" on="0"/>
        <pt x="430" y="295" on="1"/>
        <pt x="400" y="295" on="0"/>
        <pt x="329" y="278" on="0"/>
        <pt x="259" y="248" on="0"/>
        <pt x="194" y="206" on="0"/>
        <pt x="170" y="182" on="1"/>
      </contour>
    </TTGlyph>
    <TTGlyph name="aring" xMin="129" yMin="-21" xMax="1495" yMax="1825">
      <component glyphName="a" x="0" y="0" flags="0x204"/>
      <component glyphName="ring" x="273" y="0" flags="0x4"/>
    </TTGlyph>
    <TTGlyph name="asciicircum" xMin="227" yMin="321" xMax="1471" yMax="1416">
      <contour>
        <pt x="849" y="1416" on="1"/>
        <pt x="1471" y="467" on="1"/>
        <pt x="1250" y="321" on="1"/>
        <pt x="849" y="938" on="1"/>
        <pt x="448" y="321" on="1"/>
        <pt x="227" y="467" on="1"/>
      </contour>
    </TTGlyph>
    <TTGlyph name="asciitilde" xMin="171" yMin="665" xMax="1526" yMax="1086">
      <contour>
        <pt x="171" y="859" on="1"/>
        <pt x="250" y="961" on="0"/>
        <pt x="448" y="1074" on="0"/>
        <pt x="564" y="1082" on="1"/>
        <pt x="627" y="1086" on="0"/>
        <pt x="733" y="1066" on="0"/>
        <pt x="825" y="1031" on="0"/>
        <pt x="909" y="987" on="0"/>
        <pt x="990" y="949" on="0"/>
        <pt x="1073" y="923" on="0"/>
        <pt x="1119" y="923" on="1"/>
        <pt x="1201" y="923" on="0"/>
        <pt x="1333" y="1007" on="0"/>
        <pt x="1384" y="1073" on="1"/>
        <pt x="1526" y="892" on="1"/>
        <pt x="1447" y="790" on="0"/>
        <pt x="1249" y="677" on="0"/>
        <pt x="1133" y="669" on="1"/>
        <pt x="1070" y="665" on="0"/>
        <pt x="964" y="685" on="0"/>
        <pt x="872" y="720" on="0"/>
        <pt x="788" y="764" on="0"/>
        <pt x="707" y="802" on="0"/>
        <pt x="624" y="828" on="0"/>
        <pt x="578" y="828" on="1"/>
        <pt x="496" y="828" on="0"/>
        <pt x="364" y="744" on="0"/>
        <pt x="313" y="678" on="1"/>
      </contour>
    </TTGlyph>
    <TTGlyph name="asterisk" xMin="153" yMin="913" xMax="1212" yMax="1920">
      <contour>
        <pt x="284" y="1047" on="1"/>
        <pt x="497" y="1340" on="1"/>
        <pt x="153" y="1453" on="1"/>
        <pt x="223" y="1670" on="1"/>
        <pt x="568" y="1557" on="1"/>
        <pt x="566" y="1920" on="1"/>
        <pt x="797" y="1920" on="1"/>
        <pt x="795" y="1557" on="1"/>
        <pt x="1141" y="1669" on="1"/>
        <pt x="1212" y="1452" on="1"/>
        <pt x="868" y="1340" on="1"/>
        <pt x="1078" y="1047" on="1"/>
        <pt x="894" y="913" on="1"/>
        <pt x="682" y="1207" on="1"/>
        <pt x="468" y="914" on="1"/>
      </contour>
    </TTGlyph>
    <TTGlyph name="at" xMin="194" yMin="-481" xMax="2863" yMax="1620">
      <contour>
        <pt x="196" y="508" on="1"/>
        <pt x="194" y="657" on="0"/>
        <pt x="273" y="938" on="0"/>
        <pt x="432" y="1185" on="0"/>
        <pt x="668" y="1391" on="0"/>
        <pt x="977" y="1538" on="0"/>
        <pt x="1358" y="1620" on="0"/>
        <pt x="1582" y="1620" on="1"/>
        <pt x="1794" y="1620" on="0"/>
        <pt x="2150" y="1547" on="0"/>
        <pt x="2434" y="1416" on="0"/>
        <pt x="2648" y="1235" on="0"/>
        <pt x="2791" y="1020" on="0"/>
        <pt x="2863" y="778" on="0"/>
        <pt x="2863" y="652" on="1"/>
        <pt x="2863" y="501" on="0"/>
        <pt x="2767" y="252" on="0"/>
        <pt x="2604" y="75" on="0"/>
        <pt x="2388" y="-22" on="0"/>
        <pt x="2268" y="-22" on="1"/>
        <pt x="2149" y="-22" on="0"/>
        <pt x="1954" y="77" on="0"/>
        <pt x="1894" y="177" on="1"/>
        <pt x="1851" y="150" on="0"/>
        <pt x="1747" y="93" on="0"/>
        <pt x="1621" y="48" on="0"/>
        <pt x="1472" y="19" on="0"/>
        <pt x="1385" y="19" on="1"/>
        <pt x="1242" y="19" on="0"/>
        <pt x="1014" y="100" on="0"/>
        <pt x="855" y="241" on="0"/>
        <pt x="771" y="431" on="0"/>
        <pt x="771" y="541" on="1"/>
        <pt x="771" y="627" on="0"/>
        <pt x="822" y="783" on="0"/>
        <pt x="914" y="915" on="0"/>
        <pt x="1043" y="1022" on="0"/>
        <pt x="1196" y="1097" on="0"/>
        <pt x="1370" y="1138" on="0"/>
        <pt x="1462" y="1138" on="1"/>
        <pt x="1538" y="1138" on="0"/>
        <pt x="1677" y="1113" on="0"/>
        <pt x="1796" y="1074" on="0"/>
        <pt x="1890" y="1029" on="0"/>
        <pt x="1920" y="1009" on="1"/>
        <pt x="1948" y="1117" on="1"/>
        <pt x="2244" y="1117" on="1"/>
        <pt x="2140" y="569" on="1"/>
        <pt x="2123" y="481" on="0"/>
        <pt x="2131" y="356" on="0"/>
        <pt x="2173" y="275" on="0"/>
        <pt x="2246" y="237" on="0"/>
        <pt x="2294" y="237" on="1"/>
        <pt x="2361" y="237" on="0"/>
        <pt x="2472" y="303" on="0"/>
        <pt x="2552" y="418" on="0"/>
        <pt x="2597" y="573" on="0"/>
        <pt x="2597" y="661" on="1"/>
        <pt x="2597" y="750" on="0"/>
        <pt x="2548" y="930" on="0"/>
        <pt x="2444" y="1094" on="0"/>
        <pt x="2284" y="1236" on="0"/>
        <pt x="2063" y="1341" on="0"/>
        <pt x="1779" y="1401" on="0"/>
        <pt x="1603" y="1401" on="1"/>
        <pt x="1425" y="1401" on="0"/>
        <pt x="1118" y="1339" on="0"/>
        <pt x="864" y="1225" on="0"/>
        <pt x="667" y="1065" on="0"/>
        <pt x="532" y="869" on="0"/>
        <pt x="462" y="643" on="0"/>
        <pt x="462" y="521" on="1"/>
        <pt x="462" y="352" on="0"/>
        <pt x="594" y="65" on="0"/>
        <pt x="840" y="-144" on="0"/>
        <pt x="1192" y="-262" on="0"/>
        <pt x="1412" y="-262" on="1"/>
        <pt x="1583" y="-262" on="0"/>
        <pt x="1852" y="-196" on="0"/>
        <pt x="1956" y="-147" on="1"/>
        <pt x="2078" y="-335" on="1"/>
        <pt x="1935" y="-401" on="0"/>
        <pt x="1581" y="-481" on="0"/>
        <pt x="1380" y="-481" on="1"/>
        <pt x="1200" y="-481" on="0"/>
        <pt x="886" y="-413" on="0"/>
        <pt x="624" y="-288" on="0"/>
        <pt x="418" y="-110" on="0"/>
        <pt x="275" y="110" on="0"/>
        <pt x="198" y="367" on="0"/>
      </contour>
      <contour>
        <pt x="1087" y="566" on="1"/>
        <pt x="1087" y="505" on="0"/>
        <pt x="1135" y="400" on="0"/>
        <pt x="1226" y="322" on="0"/>
        <pt x="1360" y="278" on="0"/>
        <pt x="1447" y="278" on="1"/>
        <pt x="1569" y="278" on="0"/>
        <pt x="1758" y="364" on="0"/>
        <pt x="1823" y="440" on="1"/>
        <pt x="1883" y="746" on="1"/>
        <pt x="1842" y="778" on="0"/>
        <pt x="1741" y="827" on="0"/>
        <pt x="1632" y="861" on="0"/>
        <pt x="1521" y="879" on="0"/>
        <pt x="1470" y="879" on="1"/>
        <pt x="1386" y="879" on="0"/>
        <pt x="1245" y="832" on="0"/>
        <pt x="1143" y="748" on="0"/>
        <pt x="1087" y="633" on="0"/>
      </contour>
    </TTGlyph>
    <TTGlyph name="atilde" xMin="129" yMin="-21" xMax="1495" yMax="1783">
      <component glyphName="a" x="0" y="0" flags="0x204"/>
      <component glyphName="tilde" x="194" y="0" flags="0x4"/>
    </TTGlyph>
    <TTGlyph name="b" xMin="177" yMin="-21" xMax="1617" yMax="1659">
      <contour>
        <pt x="177" y="1659" on="1"/>
        <pt x="473" y="1659" on="1"/>
        <pt x="473" y="1069" on="1"/>
        <pt x="512" y="1096" on="0"/>
        <pt x="618" y="1144" on="0"/>
        <pt x="740" y="1180" on="0"/>
        <pt x="870" y="1201" on="0"/>
        <pt x="935" y="1201" on="1"/>
        <pt x="1085" y="1201" on="0"/>
        <pt x="1336" y="1113" on="0"/>
        <pt x="1516" y="953" on="0"/>
        <pt x="1617" y="730" on="0"/>
        <pt x="1617" y="595" on="1"/>
        <pt x="1617" y="454" on="0"/>
        <pt x="1511" y="227" on="0"/>
        <pt x="1324" y="66" on="0"/>
        <pt x="1067" y="-21" on="0"/>
        <pt x="917" y="-21" on="1"/>
        <pt x="853" y="-21" on="0"/>
        <pt x="728" y="-5" on="0"/>
        <pt x="613" y="23" on="0"/>
        <pt x="512" y="62" on="0"/>
        <pt x="473" y="85" on="1"/>
        <pt x="473" y="0" on="1"/>
        <pt x="177" y="0" on="1"/>
      </contour>
      <contour>
        <pt x="473" y="371" on="1"/>
        <pt x="518" y="335" on="0"/>
        <pt x="618" y="285" on="0"/>
        <pt x="722" y="253" on="0"/>
        <pt x="828" y="238" on="0"/>
        <pt x="878" y="238" on="1"/>
        <pt x="980" y="238" on="0"/>
        <pt x="1139" y="293" on="0"/>
        <pt x="1248" y="389" on="0"/>
        <pt x="1306" y="519" on="0"/>
        <pt x="1306" y="595" on="1"/>
        <pt x="1306" y="666" on="0"/>
        <pt x="1249" y="792" on="0"/>
        <pt x="1142" y="887" on="0"/>
        <pt x="991" y="942" on="0"/>
        <pt x="897" y="942" on="1"/>
        <pt x="837" y="942" on="0"/>
        <pt x="717" y="919" on="0"/>
        <pt x="606" y="877" on="0"/>
        <pt x="509" y="817" on="0"/>
        <pt x="473" y="780" on="1"/>
      </contour>
    </TTGlyph>
    <TTGlyph name="backslash" xMin="159" yMin="-354" xMax="1375" yMax="1770">
      <component glyphName="slash" x="1533" y="0" scalex="-0.999938964844" scaley="1.0" flags="0x4"/>
    </TTGlyph>
    <TTGlyph name="bar" xMin="211" yMin="-482" xMax="468" yMax="1770">
      <contour>
        <pt x="211" y="1770" on="1"/>
        <pt x="468" y="1770" on="1"/>
        <pt x="468" y="-482" on="1"/>
        <pt x="211" y="-482" on="1"/>
      </contour>
    </TTGlyph>
    <TTGlyph name="braceleft" xMin="150" yMin="-348" xMax="1257" yMax="1920">
      <contour>
        <pt x="590" y="213" on="1"/>
        <pt x="590" y="313" on="0"/>
        <pt x="537" y="490" on="0"/>
        <pt x="429" y="637" on="0"/>
        <pt x="263" y="750" on="0"/>
        <pt x="150" y="786" on="1"/>
        <pt x="263" y="822" on="0"/>
        <pt x="429" y="934" on="0"/>
        <pt x="537" y="1081" on="0"/>
        <pt x="590" y="1259" on="0"/>
        <pt x="590" y="1359" on="1"/>
        <pt x="590" y="1422" on="1"/>
        <pt x="590" y="1544" on="0"/>
        <pt x="651" y="1730" on="0"/>
        <pt x="781" y="1856" on="0"/>
        <pt x="983" y="1920" on="0"/>
        <pt x="1124" y="1920" on="1"/>
        <pt x="1257" y="1920" on="1"/>
        <pt x="1257" y="1707" on="1"/>
        <pt x="1124" y="1707" on="1"/>
        <pt x="1060" y="1707" on="0"/>
        <pt x="957" y="1673" on="0"/>
        <pt x="885" y="1602" on="0"/>
        <pt x="847" y="1495" on="0"/>
        <pt x="847" y="1422" on="1"/>
        <pt x="847" y="1363" on="1"/>
        <pt x="847" y="1140" on="0"/>
        <pt x="700" y="855" on="0"/>
        <pt x="557" y="786" on="1"/>
        <pt x="700" y="717" on="0"/>
        <pt x="847" y="432" on="0"/>
        <pt x="847" y="209" on="1"/>
        <pt x="847" y="150" on="1"/>
        <pt x="847" y="77" on="0"/>
        <pt x="885" y="-30" on="0"/>
        <pt x="957" y="-101" on="0"/>
        <pt x="1060" y="-135" on="0"/>
        <pt x="1124" y="-135" on="1"/>
        <pt x="1257" y="-135" on="1"/>
        <pt x="1257" y="-348" on="1"/>
        <pt x="1124" y="-348" on="1"/>
        <pt x="983" y="-348" on="0"/>
        <pt x="781" y="-284" on="0"/>
        <pt x="651" y="-158" on="0"/>
        <pt x="590" y="28" on="0"/>
        <pt x="590" y="150" on="1"/>
      </contour>
    </TTGlyph>
    <TTGlyph name="braceright" xMin="111" yMin="-348" xMax="1218" yMax="1920">
      <component glyphName="braceleft" x="1368" y="0" scalex="-0.999938964844" scaley="1.0" flags="0x4"/>
    </TTGlyph>
    <TTGlyph name="bracketleft" xMin="250" yMin="-346" xMax="783" yMax="1918">
      <contour>
        <pt x="250" y="1918" on="1"/>
        <pt x="783" y="1918" on="1"/>
        <pt x="783" y="1705" on="1"/>
        <pt x="507" y="1705" on="1"/>
        <pt x="507" y="-133" on="1"/>
        <pt x="783" y="-133" on="1"/>
        <pt x="783" y="-346" on="1"/>
        <pt x="250" y="-346" on="1"/>
      </contour>
    </TTGlyph>
    <TTGlyph name="bracketright" xMin="66" yMin="-346" xMax="599" yMax="1918">
      <component glyphName="bracketleft" x="849" y="0" scalex="-0.999938964844" scaley="1.0" flags="0x4"/>
    </TTGlyph>
    <TTGlyph name="breve" xMin="82" yMin="1327" xMax="980" yMax="1737">
      <contour>
        <pt x="531" y="1327" on="1"/>
        <pt x="432" y="1327" on="0"/>
        <pt x="275" y="1384" on="0"/>
        <pt x="161" y="1490" on="0"/>
        <pt x="92" y="1642" on="0"/>
        <pt x="82" y="1737" on="1"/>
        <pt x="309" y="1737" on="1"/>
        <pt x="320" y="1642" on="0"/>
        <pt x="437" y="1536" on="0"/>
        <pt x="531" y="1536" on="1"/>
        <pt x="625" y="1536" on="0"/>
        <pt x="742" y="1642" on="0"/>
        <pt x="753" y="1737" on="1"/>
        <pt x="980" y="1737" on="1"/>
        <pt x="970" y="1642" on="0"/>
        <pt x="901" y="1490" on="0"/>
        <pt x="787" y="1384" on="0"/>
        <pt x="630" y="1327" on="0"/>
      </contour>
    </TTGlyph>
    <TTGlyph name="breve.cap" xMin="-109" yMin="1640" xMax="789" yMax="2030">
      <contour>
        <pt x="340" y="1640" on="1"/>
        <pt x="240" y="1640" on="0"/>
        <pt x="82" y="1697" on="0"/>
        <pt x="-31" y="1800" on="0"/>
        <pt x="-99" y="1943" on="0"/>
        <pt x="-109" y="2030" on="1"/>
        <pt x="118" y="2030" on="1"/>
        <pt x="129" y="1944" on="0"/>
        <pt x="246" y="1849" on="0"/>
        <pt x="340" y="1849" on="1"/>
        <pt x="434" y="1849" on="0"/>
        <pt x="551" y="1944" on="0"/>
        <pt x="562" y="2030" on="1"/>
        <pt x="789" y="2030" on="1"/>
        <pt x="779" y="1943" on="0"/>
        <pt x="713" y="1800" on="0"/>
        <pt x="601" y="1697" on="0"/>
        <pt x="442" y="1640" on="0"/>
      </contour>
    </TTGlyph>
    <TTGlyph name="brokenbar" xMin="212" yMin="-480" xMax="469" yMax="1770">
      <contour>
        <pt x="212" y="1770" on="1"/>
        <pt x="469" y="1770" on="1"/>
        <pt x="469" y="836" on="1"/>
        <pt x="212" y="836" on="1"/>
      </contour>
      <contour>
        <pt x="469" y="454" on="1"/>
        <pt x="469" y="-480" on="1"/>
        <pt x="212" y="-480" on="1"/>
        <pt x="212" y="454" on="1"/>
      </contour>
    </TTGlyph>
    <TTGlyph name="bullet" xMin="280" yMin="682" xMax="916" yMax="1201">
      <contour>
        <pt x="599" y="682" on="1"/>
        <pt x="525" y="682" on="0"/>
        <pt x="407" y="723" on="0"/>
        <pt x="325" y="793" on="0"/>
        <pt x="280" y="887" on="0"/>
        <pt x="280" y="941" on="1"/>
        <pt x="280" y="995" on="0"/>
        <pt x="325" y="1090" on="0"/>
        <pt x="407" y="1161" on="0"/>
        <pt x="525" y="1201" on="0"/>
        <pt x="599" y="1201" on="1"/>
        <pt x="673" y="1201" on="0"/>
        <pt x="790" y="1161" on="0"/>
        <pt x="872" y="1090" on="0"/>
        <pt x="916" y="995" on="0"/>
        <pt x="916" y="941" on="1"/>
        <pt x="916" y="887" on="0"/>
        <pt x="872" y="793" on="0"/>
        <pt x="790" y="723" on="0"/>
        <pt x="673" y="682" on="0"/>
      </contour>
    </TTGlyph>
    <TTGlyph name="c" xMin="114" yMin="-21" xMax="1392" yMax="1201">
      <contour>
        <pt x="114" y="587" on="1"/>
        <pt x="114" y="717" on="0"/>
        <pt x="209" y="942" on="0"/>
        <pt x="392" y="1107" on="0"/>
        <pt x="657" y="1201" on="0"/>
        <pt x="827" y="1201" on="1"/>
        <pt x="901" y="1201" on="0"/>
        <pt x="1051" y="1183" on="0"/>
        <pt x="1190" y="1150" on="0"/>
        <pt x="1312" y="1105" on="0"/>
        <pt x="1357" y="1078" on="1"/>
        <pt x="1220" y="855" on="1"/>
        <pt x="1123" y="900" on="0"/>
        <pt x="950" y="942" on="0"/>
        <pt x="861" y="942" on="1"/>
        <pt x="759" y="942" on="0"/>
        <pt x="597" y="889" on="0"/>
        <pt x="484" y="794" on="0"/>
        <pt x="425" y="665" on="0"/>
        <pt x="425" y="589" on="1"/>
        <pt x="425" y="513" on="0"/>
        <pt x="488" y="384" on="0"/>
        <pt x="603" y="291" on="0"/>
        <pt x="766" y="238" on="0"/>
        <pt x="866" y="238" on="1"/>
        <pt x="976" y="238" on="0"/>
        <pt x="1171" y="300" on="0"/>
        <pt x="1255" y="352" on="1"/>
        <pt x="1392" y="129" on="1"/>
        <pt x="1339" y="97" on="0"/>
        <pt x="1215" y="42" on="0"/>
        <pt x="1074" y="2" on="0"/>
        <pt x="919" y="-21" on="0"/>
        <pt x="836" y="-21" on="1"/>
        <pt x="667" y="-21" on="0"/>
        <pt x="399" y="71" on="0"/>
        <pt x="213" y="234" on="0"/>
        <pt x="114" y="456" on="0"/>
      </contour>
    </TTGlyph>
    <TTGlyph name="cacute" xMin="114" yMin="-21" xMax="1392" yMax="1854">
      <component glyphName="c" x="0" y="0" flags="0x204"/>
      <component glyphName="acute" x="321" y="5" flags="0x4"/>
    </TTGlyph>
    <TTGlyph name="caron" xMin="200" yMin="1345" xMax="1078" yMax="1854">
      <contour>
        <pt x="200" y="1679" on="1"/>
        <pt x="340" y="1854" on="1"/>
        <pt x="639" y="1625" on="1"/>
        <pt x="938" y="1854" on="1"/>
        <pt x="1078" y="1679" on="1"/>
        <pt x="639" y="1345" on="1"/>
      </contour>
    </TTGlyph>
    <TTGlyph name="caron.cap" xMin="225" yMin="1605" xMax="1103" yMax="2030">
      <contour>
        <pt x="225" y="1823" on="1"/>
        <pt x="337" y="2030" on="1"/>
        <pt x="664" y="1866" on="1"/>
        <pt x="991" y="2030" on="1"/>
        <pt x="1103" y="1823" on="1"/>
        <pt x="664" y="1605" on="1"/>
      </contour>
    </TTGlyph>
    <TTGlyph name="caronvertical" xMin="100" yMin="1092" xMax="438" yMax="1694">
      <contour>
        <pt x="172" y="1694" on="1"/>
        <pt x="438" y="1659" on="1"/>
        <pt x="335" y="1092" on="1"/>
        <pt x="100" y="1126" on="1"/>
      </contour>
    </TTGlyph>
    <TTGlyph name="ccaron" xMin="114" yMin="-21" xMax="1392" yMax="1859">
      <component glyphName="c" x="0" y="0" flags="0x204"/>
      <component glyphName="caron" x="178" y="5" flags="0x4"/>
    </TTGlyph>
    <TTGlyph name="ccedilla" xMin="114" yMin="-530" xMax="1392" yMax="1201">
      <component glyphName="c" x="0" y="0" flags="0x204"/>
      <component glyphName="cedilla" x="377" y="0" flags="0x4"/>
    </TTGlyph>
    <TTGlyph name="ccircumflex" xMin="114" yMin="-21" xMax="1392" yMax="1895">
      <component glyphName="c" x="0" y="0" flags="0x204"/>
      <component glyphName="circumflex" x="278" y="5" flags="0x4"/>
    </TTGlyph>
    <TTGlyph name="cdotaccent" xMin="114" yMin="-21" xMax="1392" yMax="1660">
      <component glyphName="c" x="0" y="0" flags="0x204"/>
      <component glyphName="dotaccent" x="379" y="5" flags="0x4"/>
    </TTGlyph>
    <TTGlyph name="cedilla" xMin="127" yMin="-530" xMax="794" yMax="30">
      <contour>
        <pt x="473" y="30" on="1"/>
        <pt x="473" y="-73" on="1"/>
        <pt x="643" y="-93" on="0"/>
        <pt x="794" y="-214" on="0"/>
        <pt x="794" y="-310" on="1"/>
        <pt x="794" y="-365" on="0"/>
        <pt x="739" y="-447" on="0"/>
        <pt x="644" y="-502" on="0"/>
        <pt x="515" y="-530" on="0"/>
        <pt x="440" y="-530" on="1"/>
        <pt x="361" y="-530" on="0"/>
        <pt x="195" y="-499" on="0"/>
        <pt x="127" y="-470" on="1"/>
        <pt x="194" y="-309" on="1"/>
        <pt x="260" y="-332" on="0"/>
        <pt x="373" y="-350" on="0"/>
        <pt x="423" y="-350" on="1"/>
        <pt x="463" y="-350" on="0"/>
        <pt x="516" y="-341" on="0"/>
        <pt x="548" y="-326" on="0"/>
        <pt x="561" y="-307" on="0"/>
        <pt x="561" y="-297" on="1"/>
        <pt x="561" y="-282" on="0"/>
        <pt x="535" y="-257" on="0"/>
        <pt x="473" y="-239" on="0"/>
        <pt x="367" y="-229" on="0"/>
        <pt x="288" y="-229" on="1"/>
        <pt x="288" y="30" on="1"/>
      </contour>
    </TTGlyph>
    <TTGlyph name="cent" xMin="114" yMin="-322" xMax="1392" yMax="1503">
      <contour>
        <pt x="698" y="1503" on="1"/>
        <pt x="935" y="1503" on="1"/>
        <pt x="935" y="-322" on="1"/>
        <pt x="698" y="-322" on="1"/>
      </contour>
      <contour>
        <pt x="114" y="587" on="1"/>
        <pt x="114" y="717" on="0"/>
        <pt x="209" y="942" on="0"/>
        <pt x="392" y="1107" on="0"/>
        <pt x="657" y="1201" on="0"/>
        <pt x="827" y="1201" on="1"/>
        <pt x="901" y="1201" on="0"/>
        <pt x="1051" y="1183" on="0"/>
        <pt x="1190" y="1150" on="0"/>
        <pt x="1312" y="1105" on="0"/>
        <pt x="1357" y="1078" on="1"/>
        <pt x="1220" y="855" on="1"/>
        <pt x="1123" y="900" on="0"/>
        <pt x="950" y="942" on="0"/>
        <pt x="861" y="942" on="1"/>
        <pt x="759" y="942" on="0"/>
        <pt x="597" y="889" on="0"/>
        <pt x="484" y="794" on="0"/>
        <pt x="425" y="665" on="0"/>
        <pt x="425" y="589" on="1"/>
        <pt x="425" y="513" on="0"/>
        <pt x="488" y="384" on="0"/>
        <pt x="603" y="291" on="0"/>
        <pt x="766" y="238" on="0"/>
        <pt x="866" y="238" on="1"/>
        <pt x="976" y="238" on="0"/>
        <pt x="1171" y="300" on="0"/>
        <pt x="1255" y="352" on="1"/>
        <pt x="1392" y="129" on="1"/>
        <pt x="1339" y="97" on="0"/>
        <pt x="1215" y="42" on="0"/>
        <pt x="1074" y="2" on="0"/>
        <pt x="919" y="-21" on="0"/>
        <pt x="836" y="-21" on="1"/>
        <pt x="667" y="-21" on="0"/>
        <pt x="399" y="71" on="0"/>
        <pt x="213" y="234" on="0"/>
        <pt x="114" y="456" on="0"/>
      </contour>
    </TTGlyph>
    <TTGlyph name="circumflex" xMin="68" yMin="1351" xMax="1010" yMax="1890">
      <contour>
        <pt x="68" y="1535" on="1"/>
        <pt x="539" y="1890" on="1"/>
        <pt x="1010" y="1535" on="1"/>
        <pt x="870" y="1351" on="1"/>
        <pt x="539" y="1601" on="1"/>
        <pt x="208" y="1351" on="1"/>
      </contour>
    </TTGlyph>
    <TTGlyph name="circumflex.cap" xMin="208" yMin="1609" xMax="1122" yMax="2030">
      <contour>
        <pt x="208" y="1823" on="1"/>
        <pt x="665" y="2030" on="1"/>
        <pt x="1122" y="1823" on="1"/>
        <pt x="1013" y="1609" on="1"/>
        <pt x="665" y="1772" on="1"/>
        <pt x="317" y="1609" on="1"/>
      </contour>
    </TTGlyph>
    <TTGlyph name="colon" xMin="191" yMin="-21" xMax="666" yMax="1202">
      <component glyphName="period" x="0" y="0" flags="0x204"/>
      <component glyphName="period" x="0" y="835" flags="0x4"/>
    </TTGlyph>
    <TTGlyph name="comma" xMin="190" yMin="-408" xMax="691" yMax="367">
      <contour>
        <pt x="191" y="174" on="1"/>
        <pt x="191" y="214" on="0"/>
        <pt x="225" y="284" on="0"/>
        <pt x="286" y="337" on="0"/>
        <pt x="373" y="367" on="0"/>
        <pt x="427" y="367" on="1"/>
        <pt x="485" y="367" on="0"/>
        <pt x="582" y="330" on="0"/>
        <pt x="652" y="260" on="0"/>
        <pt x="691" y="159" on="0"/>
        <pt x="691" y="96" on="1"/>
        <pt x="691" y="-46" on="0"/>
        <pt x="496" y="-307" on="0"/>
        <pt x="310" y="-408" on="1"/>
        <pt x="190" y="-238" on="1"/>
        <pt x="239" y="-212" on="0"/>
        <pt x="313" y="-161" on="0"/>
        <pt x="369" y="-109" on="0"/>
        <pt x="410" y="-53" on="0"/>
        <pt x="426" y="-21" on="1"/>
        <pt x="373" y="-21" on="0"/>
        <pt x="286" y="10" on="0"/>
        <pt x="224" y="62" on="0"/>
        <pt x="191" y="133" on="0"/>
      </contour>
    </TTGlyph>
    <TTGlyph name="commaaccent" xMin="191" yMin="-530" xMax="591" yMax="-67">
      <contour>
        <pt x="191" y="-205" on="1"/>
        <pt x="191" y="-139" on="0"/>
        <pt x="292" y="-67" on="0"/>
        <pt x="385" y="-67" on="1"/>
        <pt x="432" y="-67" on="0"/>
        <pt x="508" y="-88" on="0"/>
        <pt x="562" y="-130" on="0"/>
        <pt x="591" y="-196" on="0"/>
        <pt x="591" y="-241" on="1"/>
        <pt x="591" y="-326" on="0"/>
        <pt x="446" y="-472" on="0"/>
        <pt x="309" y="-530" on="1"/>
        <pt x="220" y="-418" on="1"/>
        <pt x="245" y="-404" on="0"/>
        <pt x="283" y="-380" on="0"/>
        <pt x="313" y="-356" on="0"/>
        <pt x="336" y="-331" on="0"/>
        <pt x="345" y="-315" on="1"/>
        <pt x="303" y="-315" on="0"/>
        <pt x="245" y="-295" on="0"/>
        <pt x="208" y="-264" on="0"/>
        <pt x="191" y="-225" on="0"/>
      </contour>
    </TTGlyph>
    <TTGlyph name="copyright" xMin="212" yMin="-23" xMax="2016" yMax="1760">
      <contour>
        <pt x="212" y="869" on="1"/>
        <pt x="212" y="992" on="0"/>
        <pt x="272" y="1221" on="0"/>
        <pt x="385" y="1419" on="0"/>
        <pt x="546" y="1581" on="0"/>
        <pt x="746" y="1697" on="0"/>
        <pt x="982" y="1760" on="0"/>
        <pt x="1114" y="1760" on="1"/>
        <pt x="1245" y="1760" on="0"/>
        <pt x="1481" y="1697" on="0"/>
        <pt x="1682" y="1581" on="0"/>
        <pt x="1843" y="1419" on="0"/>
        <pt x="1955" y="1221" on="0"/>
        <pt x="2016" y="992" on="0"/>
        <pt x="2016" y="869" on="1"/>
        <pt x="2016" y="746" on="0"/>
        <pt x="1956" y="518" on="0"/>
        <pt x="1843" y="320" on="0"/>
        <pt x="1682" y="157" on="0"/>
        <pt x="1482" y="41" on="0"/>
        <pt x="1246" y="-23" on="0"/>
        <pt x="1114" y="-23" on="1"/>
        <pt x="982" y="-23" on="0"/>
        <pt x="746" y="41" on="0"/>
        <pt x="545" y="157" on="0"/>
        <pt x="385" y="320" on="0"/>
        <pt x="272" y="518" on="0"/>
        <pt x="212" y="746" on="0"/>
      </contour>
      <contour>
        <pt x="421" y="869" on="1"/>
        <pt x="421" y="770" on="0"/>
        <pt x="467" y="593" on="0"/>
        <pt x="554" y="442" on="0"/>
        <pt x="677" y="320" on="0"/>
        <pt x="831" y="234" on="0"/>
        <pt x="1013" y="188" on="0"/>
        <pt x="1114" y="188" on="1"/>
        <pt x="1265" y="188" on="0"/>
        <pt x="1520" y="290" on="0"/>
        <pt x="1704" y="471" on="0"/>
        <pt x="1807" y="721" on="0"/>
        <pt x="1807" y="869" on="1"/>
        <pt x="1807" y="1016" on="0"/>
        <pt x="1704" y="1266" on="0"/>
        <pt x="1520" y="1448" on="0"/>
        <pt x="1266" y="1550" on="0"/>
        <pt x="1114" y="1550" on="1"/>
        <pt x="962" y="1550" on="0"/>
        <pt x="707" y="1448" on="0"/>
        <pt x="523" y="1266" on="0"/>
        <pt x="421" y="1016" on="0"/>
      </contour>
      <contour>
        <pt x="656" y="873" on="1"/>
        <pt x="656" y="961" on="0"/>
        <pt x="721" y="1119" on="0"/>
        <pt x="845" y="1237" on="0"/>
        <pt x="1025" y="1306" on="0"/>
        <pt x="1141" y="1306" on="1"/>
        <pt x="1186" y="1306" on="0"/>
        <pt x="1278" y="1295" on="0"/>
        <pt x="1366" y="1276" on="0"/>
        <pt x="1447" y="1248" on="0"/>
        <pt x="1480" y="1230" on="1"/>
        <pt x="1406" y="1066" on="1"/>
        <pt x="1343" y="1095" on="0"/>
        <pt x="1223" y="1120" on="0"/>
        <pt x="1169" y="1120" on="1"/>
        <pt x="1097" y="1120" on="0"/>
        <pt x="988" y="1081" on="0"/>
        <pt x="915" y="1013" on="0"/>
        <pt x="877" y="923" on="0"/>
        <pt x="877" y="872" on="1"/>
        <pt x="877" y="820" on="0"/>
        <pt x="916" y="728" on="0"/>
        <pt x="991" y="660" on="0"/>
        <pt x="1100" y="621" on="0"/>
        <pt x="1171" y="621" on="1"/>
        <pt x="1247" y="621" on="0"/>
        <pt x="1382" y="665" on="0"/>
        <pt x="1432" y="700" on="1"/>
        <pt x="1507" y="535" on="1"/>
        <pt x="1438" y="492" on="0"/>
        <pt x="1257" y="435" on="0"/>
        <pt x="1150" y="435" on="1"/>
        <pt x="1038" y="435" on="0"/>
        <pt x="855" y="502" on="0"/>
        <pt x="726" y="620" on="0"/>
        <pt x="656" y="780" on="0"/>
      </contour>
    </TTGlyph>
    <TTGlyph name="currency" xMin="130" yMin="235" xMax="1242" yMax="1343">
      <contour>
        <pt x="130" y="399" on="1"/>
        <pt x="312" y="580" on="1"/>
        <pt x="280" y="632" on="0"/>
        <pt x="245" y="752" on="0"/>
        <pt x="245" y="819" on="1"/>
        <pt x="245" y="873" on="0"/>
        <pt x="268" y="974" on="0"/>
        <pt x="290" y="1019" on="1"/>
        <pt x="130" y="1179" on="1"/>
        <pt x="294" y="1343" on="1"/>
        <pt x="445" y="1192" on="1"/>
        <pt x="497" y="1224" on="0"/>
        <pt x="621" y="1261" on="0"/>
        <pt x="692" y="1261" on="1"/>
        <pt x="760" y="1261" on="0"/>
        <pt x="879" y="1227" on="0"/>
        <pt x="930" y="1197" on="1"/>
        <pt x="1078" y="1343" on="1"/>
        <pt x="1242" y="1179" on="1"/>
        <pt x="1089" y="1027" on="1"/>
        <pt x="1113" y="980" on="0"/>
        <pt x="1139" y="876" on="0"/>
        <pt x="1139" y="819" on="1"/>
        <pt x="1139" y="750" on="0"/>
        <pt x="1102" y="626" on="0"/>
        <pt x="1067" y="572" on="1"/>
        <pt x="1242" y="399" on="1"/>
        <pt x="1078" y="235" on="1"/>
        <pt x="891" y="420" on="1"/>
        <pt x="800" y="377" on="0"/>
        <pt x="692" y="377" on="1"/>
        <pt x="634" y="377" on="0"/>
        <pt x="530" y="401" on="0"/>
        <pt x="484" y="424" on="1"/>
        <pt x="294" y="235" on="1"/>
      </contour>
      <contour>
        <pt x="692" y="593" on="1"/>
        <pt x="743" y="593" on="0"/>
        <pt x="827" y="627" on="0"/>
        <pt x="889" y="687" on="0"/>
        <pt x="923" y="770" on="0"/>
        <pt x="923" y="819" on="1"/>
        <pt x="923" y="868" on="0"/>
        <pt x="889" y="951" on="0"/>
        <pt x="827" y="1011" on="0"/>
        <pt x="743" y="1045" on="0"/>
        <pt x="692" y="1045" on="1"/>
        <pt x="641" y="1045" on="0"/>
        <pt x="557" y="1011" on="0"/>
        <pt x="495" y="951" on="0"/>
        <pt x="461" y="868" on="0"/>
        <pt x="461" y="819" on="1"/>
        <pt x="461" y="770" on="0"/>
        <pt x="495" y="687" on="0"/>
        <pt x="557" y="627" on="0"/>
        <pt x="641" y="593" on="0"/>
      </contour>
    </TTGlyph>
    <TTGlyph name="d" xMin="94" yMin="-21" xMax="1534" yMax="1659">
      <contour>
        <pt x="94" y="585" on="1"/>
        <pt x="94" y="726" on="0"/>
        <pt x="200" y="953" on="0"/>
        <pt x="387" y="1114" on="0"/>
        <pt x="644" y="1201" on="0"/>
        <pt x="794" y="1201" on="1"/>
        <pt x="858" y="1201" on="0"/>
        <pt x="983" y="1185" on="0"/>
        <pt x="1098" y="1157" on="0"/>
        <pt x="1199" y="1118" on="0"/>
        <pt x="1238" y="1095" on="1"/>
        <pt x="1238" y="1659" on="1"/>
        <pt x="1534" y="1659" on="1"/>
        <pt x="1534" y="0" on="1"/>
        <pt x="1238" y="0" on="1"/>
        <pt x="1238" y="111" on="1"/>
        <pt x="1199" y="84" on="0"/>
        <pt x="1093" y="36" on="0"/>
        <pt x="971" y="0" on="0"/>
        <pt x="840" y="-21" on="0"/>
        <pt x="776" y="-21" on="1"/>
        <pt x="626" y="-21" on="0"/>
        <pt x="375" y="67" on="0"/>
        <pt x="195" y="227" on="0"/>
        <pt x="94" y="450" on="0"/>
      </contour>
      <contour>
        <pt x="405" y="585" on="1"/>
        <pt x="405" y="514" on="0"/>
        <pt x="462" y="388" on="0"/>
        <pt x="569" y="293" on="0"/>
        <pt x="720" y="238" on="0"/>
        <pt x="814" y="238" on="1"/>
        <pt x="874" y="238" on="0"/>
        <pt x="994" y="261" on="0"/>
        <pt x="1105" y="303" on="0"/>
        <pt x="1202" y="363" on="0"/>
        <pt x="1238" y="400" on="1"/>
        <pt x="1238" y="809" on="1"/>
        <pt x="1193" y="845" on="0"/>
        <pt x="1093" y="895" on="0"/>
        <pt x="989" y="927" on="0"/>
        <pt x="883" y="942" on="0"/>
        <pt x="833" y="942" on="1"/>
        <pt x="731" y="942" on="0"/>
        <pt x="572" y="887" on="0"/>
        <pt x="463" y="791" on="0"/>
        <pt x="405" y="661" on="0"/>
      </contour>
    </TTGlyph>
    <TTGlyph name="dagger" xMin="136" yMin="-482" xMax="1054" yMax="1770">
      <contour>
        <pt x="465" y="959" on="1"/>
        <pt x="136" y="959" on="1"/>
        <pt x="136" y="1181" on="1"/>
        <pt x="465" y="1181" on="1"/>
        <pt x="465" y="1770" on="1"/>
        <pt x="722" y="1770" on="1"/>
        <pt x="722" y="1181" on="1"/>
        <pt x="1054" y="1181" on="1"/>
        <pt x="1054" y="959" on="1"/>
        <pt x="722" y="959" on="1"/>
        <pt x="722" y="-482" on="1"/>
        <pt x="465" y="-482" on="1"/>
      </contour>
    </TTGlyph>
    <TTGlyph name="daggerdbl" xMin="136" yMin="-482" xMax="1054" yMax="1770">
      <contour>
        <pt x="136" y="686" on="1"/>
        <pt x="465" y="686" on="1"/>
        <pt x="465" y="959" on="1"/>
        <pt x="136" y="959" on="1"/>
        <pt x="136" y="1181" on="1"/>
        <pt x="465" y="1181" on="1"/>
        <pt x="465" y="1770" on="1"/>
        <pt x="722" y="1770" on="1"/>
        <pt x="722" y="1181" on="1"/>
        <pt x="1054" y="1181" on="1"/>
        <pt x="1054" y="959" on="1"/>
        <pt x="722" y="959" on="1"/>
        <pt x="722" y="686" on="1"/>
        <pt x="1054" y="686" on="1"/>
        <pt x="1054" y="464" on="1"/>
        <pt x="722" y="464" on="1"/>
        <pt x="722" y="-482" on="1"/>
        <pt x="465" y="-482" on="1"/>
        <pt x="465" y="464" on="1"/>
        <pt x="136" y="464" on="1"/>
      </contour>
    </TTGlyph>
    <TTGlyph name="dcaron" xMin="94" yMin="-21" xMax="1998" yMax="1694">
      <component glyphName="d" x="0" y="0" flags="0x4"/>
      <component glyphName="caronvertical" x="1560" y="0" flags="0x4"/>
    </TTGlyph>
    <TTGlyph name="dcroat" xMin="94" yMin="-21" xMax="1710" yMax="1659">
      <contour>
        <pt x="893" y="1525" on="1"/>
        <pt x="1710" y="1525" on="1"/>
        <pt x="1710" y="1303" on="1"/>
        <pt x="893" y="1303" on="1"/>
      </contour>
      <contour>
        <pt x="94" y="585" on="1"/>
        <pt x="94" y="726" on="0"/>
        <pt x="200" y="953" on="0"/>
        <pt x="387" y="1114" on="0"/>
        <pt x="644" y="1201" on="0"/>
        <pt x="794" y="1201" on="1"/>
        <pt x="858" y="1201" on="0"/>
        <pt x="983" y="1185" on="0"/>
        <pt x="1098" y="1157" on="0"/>
        <pt x="1199" y="1118" on="0"/>
        <pt x="1238" y="1095" on="1"/>
        <pt x="1238" y="1659" on="1"/>
        <pt x="1534" y="1659" on="1"/>
        <pt x="1534" y="0" on="1"/>
        <pt x="1238" y="0" on="1"/>
        <pt x="1238" y="111" on="1"/>
        <pt x="1199" y="84" on="0"/>
        <pt x="1093" y="36" on="0"/>
        <pt x="971" y="0" on="0"/>
        <pt x="840" y="-21" on="0"/>
        <pt x="776" y="-21" on="1"/>
        <pt x="626" y="-21" on="0"/>
        <pt x="375" y="67" on="0"/>
        <pt x="195" y="227" on="0"/>
        <pt x="94" y="450" on="0"/>
      </contour>
      <contour>
        <pt x="405" y="585" on="1"/>
        <pt x="405" y="514" on="0"/>
        <pt x="462" y="388" on="0"/>
        <pt x="569" y="293" on="0"/>
        <pt x="720" y="238" on="0"/>
        <pt x="814" y="238" on="1"/>
        <pt x="874" y="238" on="0"/>
        <pt x="994" y="261" on="0"/>
        <pt x="1105" y="303" on="0"/>
        <pt x="1202" y="363" on="0"/>
        <pt x="1238" y="400" on="1"/>
        <pt x="1238" y="809" on="1"/>
        <pt x="1193" y="845" on="0"/>
        <pt x="1093" y="895" on="0"/>
        <pt x="989" y="927" on="0"/>
        <pt x="883" y="942" on="0"/>
        <pt x="833" y="942" on="1"/>
        <pt x="731" y="942" on="0"/>
        <pt x="572" y="887" on="0"/>
        <pt x="463" y="791" on="0"/>
        <pt x="405" y="661" on="0"/>
      </contour>
    </TTGlyph>
    <TTGlyph name="degree" xMin="103" yMin="943" xMax="755" yMax="1593">
      <contour>
        <pt x="429" y="943" on="1"/>
        <pt x="358" y="943" on="0"/>
        <pt x="239" y="989" on="0"/>
        <pt x="152" y="1075" on="0"/>
        <pt x="103" y="1194" on="0"/>
        <pt x="103" y="1268" on="1"/>
        <pt x="103" y="1341" on="0"/>
        <pt x="152" y="1461" on="0"/>
        <pt x="239" y="1547" on="0"/>
        <pt x="358" y="1593" on="0"/>
        <pt x="429" y="1593" on="1"/>
        <pt x="500" y="1593" on="0"/>
        <pt x="619" y="1547" on="0"/>
        <pt x="706" y="1461" on="0"/>
        <pt x="755" y="1341" on="0"/>
        <pt x="755" y="1268" on="1"/>
        <pt x="755" y="1194" on="0"/>
        <pt x="706" y="1075" on="0"/>
        <pt x="619" y="989" on="0"/>
        <pt x="500" y="943" on="0"/>
      </contour>
      <contour>
        <pt x="429" y="1107" on="1"/>
        <pt x="460" y="1107" on="0"/>
        <pt x="514" y="1131" on="0"/>
        <pt x="554" y="1173" on="0"/>
        <pt x="577" y="1232" on="0"/>
        <pt x="577" y="1268" on="1"/>
        <pt x="577" y="1304" on="0"/>
        <pt x="554" y="1363" on="0"/>
        <pt x="514" y="1405" on="0"/>
        <pt x="460" y="1429" on="0"/>
        <pt x="429" y="1429" on="1"/>
        <pt x="398" y="1429" on="0"/>
        <pt x="344" y="1405" on="0"/>
        <pt x="304" y="1363" on="0"/>
        <pt x="281" y="1304" on="0"/>
        <pt x="281" y="1268" on="1"/>
        <pt x="281" y="1232" on="0"/>
        <pt x="304" y="1173" on="0"/>
        <pt x="344" y="1131" on="0"/>
        <pt x="398" y="1107" on="0"/>
      </contour>
    </TTGlyph>
    <TTGlyph name="dieresis" xMin="100" yMin="1402" xMax="1122" yMax="1763">
      <contour>
        <pt x="910" y="1402" on="1"/>
        <pt x="861" y="1402" on="0"/>
        <pt x="783" y="1432" on="0"/>
        <pt x="728" y="1483" on="0"/>
        <pt x="699" y="1549" on="0"/>
        <pt x="699" y="1585" on="1"/>
        <pt x="699" y="1621" on="0"/>
        <pt x="728" y="1686" on="0"/>
        <pt x="783" y="1735" on="0"/>
        <pt x="861" y="1763" on="0"/>
        <pt x="910" y="1763" on="1"/>
        <pt x="959" y="1763" on="0"/>
        <pt x="1038" y="1735" on="0"/>
        <pt x="1093" y="1686" on="0"/>
        <pt x="1122" y="1621" on="0"/>
        <pt x="1122" y="1585" on="1"/>
        <pt x="1122" y="1549" on="0"/>
        <pt x="1093" y="1483" on="0"/>
        <pt x="1038" y="1432" on="0"/>
        <pt x="959" y="1402" on="0"/>
      </contour>
      <contour>
        <pt x="311" y="1402" on="1"/>
        <pt x="262" y="1402" on="0"/>
        <pt x="184" y="1432" on="0"/>
        <pt x="129" y="1483" on="0"/>
        <pt x="100" y="1549" on="0"/>
        <pt x="100" y="1585" on="1"/>
        <pt x="100" y="1621" on="0"/>
        <pt x="129" y="1686" on="0"/>
        <pt x="184" y="1735" on="0"/>
        <pt x="262" y="1763" on="0"/>
        <pt x="311" y="1763" on="1"/>
        <pt x="360" y="1763" on="0"/>
        <pt x="439" y="1735" on="0"/>
        <pt x="494" y="1686" on="0"/>
        <pt x="523" y="1621" on="0"/>
        <pt x="523" y="1585" on="1"/>
        <pt x="523" y="1549" on="0"/>
        <pt x="494" y="1483" on="0"/>
        <pt x="439" y="1432" on="0"/>
        <pt x="360" y="1402" on="0"/>
      </contour>
    </TTGlyph>
    <TTGlyph name="dieresis.cap" xMin="240" yMin="1669" xMax="1354" yMax="2030">
      <contour>
        <pt x="1142" y="1669" on="1"/>
        <pt x="1093" y="1669" on="0"/>
        <pt x="1015" y="1699" on="0"/>
        <pt x="960" y="1750" on="0"/>
        <pt x="931" y="1816" on="0"/>
        <pt x="931" y="1852" on="1"/>
        <pt x="931" y="1888" on="0"/>
        <pt x="960" y="1953" on="0"/>
        <pt x="1015" y="2002" on="0"/>
        <pt x="1093" y="2030" on="0"/>
        <pt x="1142" y="2030" on="1"/>
        <pt x="1191" y="2030" on="0"/>
        <pt x="1270" y="2002" on="0"/>
        <pt x="1325" y="1953" on="0"/>
        <pt x="1354" y="1888" on="0"/>
        <pt x="1354" y="1852" on="1"/>
        <pt x="1354" y="1816" on="0"/>
        <pt x="1325" y="1750" on="0"/>
        <pt x="1270" y="1699" on="0"/>
        <pt x="1191" y="1669" on="0"/>
      </contour>
      <contour>
        <pt x="451" y="1669" on="1"/>
        <pt x="402" y="1669" on="0"/>
        <pt x="324" y="1699" on="0"/>
        <pt x="269" y="1750" on="0"/>
        <pt x="240" y="1816" on="0"/>
        <pt x="240" y="1852" on="1"/>
        <pt x="240" y="1888" on="0"/>
        <pt x="269" y="1953" on="0"/>
        <pt x="324" y="2002" on="0"/>
        <pt x="402" y="2030" on="0"/>
        <pt x="451" y="2030" on="1"/>
        <pt x="500" y="2030" on="0"/>
        <pt x="579" y="2002" on="0"/>
        <pt x="634" y="1953" on="0"/>
        <pt x="663" y="1888" on="0"/>
        <pt x="663" y="1852" on="1"/>
        <pt x="663" y="1816" on="0"/>
        <pt x="634" y="1750" on="0"/>
        <pt x="579" y="1699" on="0"/>
        <pt x="500" y="1669" on="0"/>
      </contour>
    </TTGlyph>
    <TTGlyph name="divide" xMin="137" yMin="156" xMax="1054" yMax="1431">
      <component glyphName="period" x="181" y="177" flags="0x4"/>
      <component glyphName="period" x="181" y="1064" flags="0x4"/>
      <component glyphName="hyphen" x="0" y="0" flags="0x4"/>
    </TTGlyph>
    <TTGlyph name="dollar" xMin="126" yMin="-322" xMax="1921" yMax="1894">
      <contour>
        <pt x="295" y="465" on="1"/>
        <pt x="367" y="424" on="0"/>
        <pt x="513" y="357" on="0"/>
        <pt x="668" y="306" on="0"/>
        <pt x="833" y="271" on="0"/>
        <pt x="925" y="264" on="1"/>
        <pt x="925" y="658" on="1"/>
        <pt x="874" y="652" on="0"/>
        <pt x="780" y="644" on="0"/>
        <pt x="736" y="644" on="1"/>
        <pt x="631" y="644" on="0"/>
        <pt x="438" y="698" on="0"/>
        <pt x="289" y="806" on="0"/>
        <pt x="201" y="968" on="0"/>
        <pt x="201" y="1076" on="1"/>
        <pt x="201" y="1168" on="0"/>
        <pt x="278" y="1347" on="0"/>
        <pt x="451" y="1490" on="0"/>
        <pt x="727" y="1584" on="0"/>
        <pt x="925" y="1591" on="1"/>
        <pt x="925" y="1894" on="1"/>
        <pt x="1162" y="1894" on="1"/>
        <pt x="1162" y="1585" on="1"/>
        <pt x="1329" y="1570" on="0"/>
        <pt x="1636" y="1490" on="0"/>
        <pt x="1764" y="1433" on="1"/>
        <pt x="1625" y="1177" on="1"/>
        <pt x="1525" y="1220" on="0"/>
        <pt x="1293" y="1286" on="0"/>
        <pt x="1162" y="1301" on="1"/>
        <pt x="1162" y="983" on="1"/>
        <pt x="1210" y="988" on="0"/>
        <pt x="1306" y="995" on="0"/>
        <pt x="1352" y="995" on="1"/>
        <pt x="1490" y="995" on="0"/>
        <pt x="1703" y="933" on="0"/>
        <pt x="1847" y="818" on="0"/>
        <pt x="1921" y="655" on="0"/>
        <pt x="1921" y="554" on="1"/>
        <pt x="1921" y="429" on="0"/>
        <pt x="1814" y="228" on="0"/>
        <pt x="1617" y="82" on="0"/>
        <pt x="1336" y="-6" on="0"/>
        <pt x="1162" y="-18" on="1"/>
        <pt x="1162" y="-322" on="1"/>
        <pt x="925" y="-322" on="1"/>
        <pt x="925" y="-19" on="1"/>
        <pt x="693" y="-5" on="0"/>
        <pt x="286" y="116" on="0"/>
        <pt x="126" y="208" on="1"/>
      </contour>
      <contour>
        <pt x="533" y="1106" on="1"/>
        <pt x="533" y="1036" on="0"/>
        <pt x="659" y="947" on="0"/>
        <pt x="788" y="947" on="1"/>
        <pt x="817" y="947" on="0"/>
        <pt x="887" y="952" on="0"/>
        <pt x="925" y="956" on="1"/>
        <pt x="925" y="1310" on="1"/>
        <pt x="812" y="1306" on="0"/>
        <pt x="661" y="1266" on="0"/>
        <pt x="571" y="1208" on="0"/>
        <pt x="533" y="1139" on="0"/>
      </contour>
      <contour>
        <pt x="1162" y="262" on="1"/>
        <pt x="1276" y="269" on="0"/>
        <pt x="1438" y="313" on="0"/>
        <pt x="1541" y="380" on="0"/>
        <pt x="1588" y="466" on="0"/>
        <pt x="1588" y="514" on="1"/>
        <pt x="1588" y="599" on="0"/>
        <pt x="1446" y="698" on="0"/>
        <pt x="1298" y="698" on="1"/>
        <pt x="1266" y="698" on="0"/>
        <pt x="1197" y="693" on="0"/>
        <pt x="1162" y="689" on="1"/>
      </contour>
    </TTGlyph>
    <TTGlyph name="dotaccent" xMin="246" yMin="1341" xMax="631" yMax="1655">
      <contour>
        <pt x="438" y="1341" on="1"/>
        <pt x="394" y="1341" on="0"/>
        <pt x="323" y="1366" on="0"/>
        <pt x="273" y="1409" on="0"/>
        <pt x="246" y="1466" on="0"/>
        <pt x="246" y="1498" on="1"/>
        <pt x="246" y="1531" on="0"/>
        <pt x="273" y="1588" on="0"/>
        <pt x="323" y="1630" on="0"/>
        <pt x="394" y="1655" on="0"/>
        <pt x="438" y="1655" on="1"/>
        <pt x="483" y="1655" on="0"/>
        <pt x="554" y="1630" on="0"/>
        <pt x="604" y="1588" on="0"/>
        <pt x="631" y="1531" on="0"/>
        <pt x="631" y="1498" on="1"/>
        <pt x="631" y="1466" on="0"/>
        <pt x="604" y="1409" on="0"/>
        <pt x="554" y="1366" on="0"/>
        <pt x="483" y="1341" on="0"/>
      </contour>
    </TTGlyph>
    <TTGlyph name="dotaccent.cap" xMin="124" yMin="1678" xMax="555" yMax="2030">
      <contour>
        <pt x="340" y="1678" on="1"/>
        <pt x="290" y="1678" on="0"/>
        <pt x="211" y="1706" on="0"/>
        <pt x="154" y="1754" on="0"/>
        <pt x="124" y="1818" on="0"/>
        <pt x="124" y="1854" on="1"/>
        <pt x="124" y="1891" on="0"/>
        <pt x="154" y="1955" on="0"/>
        <pt x="211" y="2003" on="0"/>
        <pt x="290" y="2030" on="0"/>
        <pt x="340" y="2030" on="1"/>
        <pt x="390" y="2030" on="0"/>
        <pt x="470" y="2003" on="0"/>
        <pt x="525" y="1955" on="0"/>
        <pt x="555" y="1891" on="0"/>
        <pt x="555" y="1854" on="1"/>
        <pt x="555" y="1818" on="0"/>
        <pt x="525" y="1754" on="0"/>
        <pt x="470" y="1706" on="0"/>
        <pt x="390" y="1678" on="0"/>
      </contour>
    </TTGlyph>
    <TTGlyph name="dotlessi" xMin="193" yMin="0" xMax="489" yMax="1180">
      <contour>
        <pt x="193" y="1180" on="1"/>
        <pt x="489" y="1180" on="1"/>
        <pt x="489" y="0" on="1"/>
        <pt x="193" y="0" on="1"/>
      </contour>
    </TTGlyph>
    <TTGlyph name="dotlessj" xMin="-19" yMin="-530" xMax="489" yMax="1180">
      <contour>
        <pt x="193" y="1180" on="1"/>
        <pt x="489" y="1180" on="1"/>
        <pt x="489" y="177" on="1"/>
        <pt x="489" y="89" on="0"/>
        <pt x="474" y="-54" on="0"/>
        <pt x="439" y="-176" on="0"/>
        <pt x="380" y="-282" on="0"/>
        <pt x="292" y="-380" on="0"/>
        <pt x="170" y="-477" on="0"/>
        <pt x="90" y="-530" on="1"/>
        <pt x="-19" y="-279" on="1"/>
        <pt x="43" y="-233" on="0"/>
        <pt x="125" y="-143" on="0"/>
        <pt x="173" y="-45" on="0"/>
        <pt x="193" y="67" on="0"/>
        <pt x="193" y="134" on="1"/>
      </contour>
    </TTGlyph>
    <TTGlyph name="e" xMin="129" yMin="-21" xMax="1578" yMax="1201">
      <contour>
        <pt x="129" y="594" on="1"/>
        <pt x="129" y="714" on="0"/>
        <pt x="227" y="933" on="0"/>
        <pt x="411" y="1101" on="0"/>
        <pt x="678" y="1201" on="0"/>
        <pt x="848" y="1201" on="1"/>
        <pt x="1017" y="1201" on="0"/>
        <pt x="1288" y="1100" on="0"/>
        <pt x="1477" y="924" on="0"/>
        <pt x="1578" y="686" on="0"/>
        <pt x="1578" y="550" on="1"/>
        <pt x="1578" y="533" on="0"/>
        <pt x="1577" y="494" on="0"/>
        <pt x="1575" y="478" on="1"/>
        <pt x="459" y="478" on="1"/>
        <pt x="478" y="425" on="0"/>
        <pt x="563" y="337" on="0"/>
        <pt x="691" y="273" on="0"/>
        <pt x="859" y="238" on="0"/>
        <pt x="961" y="238" on="1"/>
        <pt x="1063" y="238" on="0"/>
        <pt x="1265" y="281" on="0"/>
        <pt x="1357" y="314" on="1"/>
        <pt x="1457" y="88" on="1"/>
        <pt x="1399" y="61" on="0"/>
        <pt x="1280" y="20" on="0"/>
        <pt x="1151" y="-7" on="0"/>
        <pt x="1010" y="-21" on="0"/>
        <pt x="932" y="-21" on="1"/>
        <pt x="733" y="-21" on="0"/>
        <pt x="433" y="75" on="0"/>
        <pt x="231" y="241" on="0"/>
        <pt x="129" y="465" on="0"/>
      </contour>
      <contour>
        <pt x="1264" y="709" on="1"/>
        <pt x="1248" y="758" on="0"/>
        <pt x="1181" y="843" on="0"/>
        <pt x="1081" y="906" on="0"/>
        <pt x="949" y="942" on="0"/>
        <pt x="870" y="942" on="1"/>
        <pt x="786" y="942" on="0"/>
        <pt x="648" y="904" on="0"/>
        <pt x="544" y="840" on="0"/>
        <pt x="475" y="756" on="0"/>
        <pt x="459" y="709" on="1"/>
      </contour>
    </TTGlyph>
    <TTGlyph name="eacute" xMin="129" yMin="-21" xMax="1578" yMax="1849">
      <component glyphName="e" x="0" y="0" flags="0x204"/>
      <component glyphName="acute" x="357" y="0" flags="0x4"/>
    </TTGlyph>
    <TTGlyph name="ebreve" xMin="129" yMin="-21" xMax="1578" yMax="1737">
      <component glyphName="e" x="0" y="0" flags="0x204"/>
      <component glyphName="breve" x="322" y="0" flags="0x4"/>
    </TTGlyph>
    <TTGlyph name="ecaron" xMin="129" yMin="-21" xMax="1578" yMax="1854">
      <component glyphName="e" x="0" y="0" flags="0x204"/>
      <component glyphName="caron" x="214" y="0" flags="0x4"/>
    </TTGlyph>
    <TTGlyph name="ecircumflex" xMin="129" yMin="-21" xMax="1578" yMax="1890">
      <component glyphName="e" x="0" y="0" flags="0x204"/>
      <component glyphName="circumflex" x="314" y="0" flags="0x4"/>
    </TTGlyph>
    <TTGlyph name="edieresis" xMin="129" yMin="-21" xMax="1578" yMax="1763">
      <component glyphName="e" x="0" y="0" flags="0x204"/>
      <component glyphName="dieresis" x="242" y="0" flags="0x4"/>
    </TTGlyph>
    <TTGlyph name="edotaccent" xMin="129" yMin="-21" xMax="1578" yMax="1655">
      <component glyphName="e" x="0" y="0" flags="0x204"/>
      <component glyphName="dotaccent" x="415" y="0" flags="0x4"/>
    </TTGlyph>
    <TTGlyph name="egrave" xMin="129" yMin="-21" xMax="1578" yMax="1849">
      <component glyphName="e" x="0" y="0" flags="0x204"/>
      <component glyphName="grave" x="329" y="0" flags="0x4"/>
    </TTGlyph>
    <TTGlyph name="eight" xMin="157" yMin="-21" xMax="1717" yMax="1583">
      <contour>
        <pt x="157" y="476" on="1"/>
        <pt x="157" y="546" on="0"/>
        <pt x="195" y="666" on="0"/>
        <pt x="261" y="765" on="0"/>
        <pt x="348" y="842" on="0"/>
        <pt x="398" y="871" on="1"/>
        <pt x="329" y="939" on="0"/>
        <pt x="267" y="1074" on="0"/>
        <pt x="267" y="1136" on="1"/>
        <pt x="267" y="1235" on="0"/>
        <pt x="360" y="1399" on="0"/>
        <pt x="534" y="1518" on="0"/>
        <pt x="782" y="1583" on="0"/>
        <pt x="937" y="1583" on="1"/>
        <pt x="1092" y="1583" on="0"/>
        <pt x="1340" y="1518" on="0"/>
        <pt x="1514" y="1399" on="0"/>
        <pt x="1607" y="1235" on="0"/>
        <pt x="1607" y="1136" on="1"/>
        <pt x="1607" y="1074" on="0"/>
        <pt x="1545" y="939" on="0"/>
        <pt x="1476" y="871" on="1"/>
        <pt x="1525" y="842" on="0"/>
        <pt x="1613" y="765" on="0"/>
        <pt x="1679" y="666" on="0"/>
        <pt x="1717" y="546" on="0"/>
        <pt x="1717" y="476" on="1"/>
        <pt x="1717" y="359" on="0"/>
        <pt x="1608" y="174" on="0"/>
        <pt x="1405" y="47" on="0"/>
        <pt x="1116" y="-21" on="0"/>
        <pt x="937" y="-21" on="1"/>
        <pt x="758" y="-21" on="0"/>
        <pt x="469" y="47" on="0"/>
        <pt x="266" y="174" on="0"/>
        <pt x="157" y="359" on="0"/>
      </contour>
      <contour>
        <pt x="584" y="1122" on="1"/>
        <pt x="584" y="1085" on="0"/>
        <pt x="621" y="1020" on="0"/>
        <pt x="704" y="971" on="0"/>
        <pt x="839" y="943" on="0"/>
        <pt x="937" y="943" on="1"/>
        <pt x="1035" y="943" on="0"/>
        <pt x="1170" y="971" on="0"/>
        <pt x="1253" y="1020" on="0"/>
        <pt x="1290" y="1085" on="0"/>
        <pt x="1290" y="1122" on="1"/>
        <pt x="1290" y="1159" on="0"/>
        <pt x="1253" y="1224" on="0"/>
        <pt x="1170" y="1273" on="0"/>
        <pt x="1035" y="1301" on="0"/>
        <pt x="937" y="1301" on="1"/>
        <pt x="839" y="1301" on="0"/>
        <pt x="704" y="1273" on="0"/>
        <pt x="621" y="1224" on="0"/>
        <pt x="584" y="1159" on="0"/>
      </contour>
      <contour>
        <pt x="474" y="491" on="1"/>
        <pt x="474" y="440" on="0"/>
        <pt x="533" y="355" on="0"/>
        <pt x="649" y="295" on="0"/>
        <pt x="823" y="261" on="0"/>
        <pt x="937" y="261" on="1"/>
        <pt x="1051" y="261" on="0"/>
        <pt x="1225" y="295" on="0"/>
        <pt x="1341" y="355" on="0"/>
        <pt x="1400" y="440" on="0"/>
        <pt x="1400" y="491" on="1"/>
        <pt x="1400" y="542" on="0"/>
        <pt x="1343" y="627" on="0"/>
        <pt x="1228" y="687" on="0"/>
        <pt x="1054" y="721" on="0"/>
        <pt x="937" y="721" on="1"/>
        <pt x="820" y="721" on="0"/>
        <pt x="646" y="687" on="0"/>
        <pt x="531" y="627" on="0"/>
        <pt x="474" y="542" on="0"/>
      </contour>
    </TTGlyph>
    <TTGlyph name="ellipsis" xMin="191" yMin="-21" xMax="2382" yMax="367">
      <contour>
        <pt x="1907" y="173" on="1"/>
        <pt x="1907" y="213" on="0"/>
        <pt x="1940" y="284" on="0"/>
        <pt x="2002" y="337" on="0"/>
        <pt x="2090" y="367" on="0"/>
        <pt x="2145" y="367" on="1"/>
        <pt x="2200" y="367" on="0"/>
        <pt x="2288" y="337" on="0"/>
        <pt x="2349" y="284" on="0"/>
        <pt x="2382" y="213" on="0"/>
        <pt x="2382" y="173" on="1"/>
        <pt x="2382" y="133" on="0"/>
        <pt x="2349" y="62" on="0"/>
        <pt x="2288" y="10" on="0"/>
        <pt x="2200" y="-21" on="0"/>
        <pt x="2145" y="-21" on="1"/>
        <pt x="2090" y="-21" on="0"/>
        <pt x="2002" y="10" on="0"/>
        <pt x="1940" y="62" on="0"/>
        <pt x="1907" y="133" on="0"/>
      </contour>
      <contour>
        <pt x="1049" y="173" on="1"/>
        <pt x="1049" y="213" on="0"/>
        <pt x="1082" y="284" on="0"/>
        <pt x="1144" y="337" on="0"/>
        <pt x="1232" y="367" on="0"/>
        <pt x="1287" y="367" on="1"/>
        <pt x="1342" y="367" on="0"/>
        <pt x="1430" y="337" on="0"/>
        <pt x="1491" y="284" on="0"/>
        <pt x="1524" y="213" on="0"/>
        <pt x="1524" y="173" on="1"/>
        <pt x="1524" y="133" on="0"/>
        <pt x="1491" y="62" on="0"/>
        <pt x="1430" y="10" on="0"/>
        <pt x="1342" y="-21" on="0"/>
        <pt x="1287" y="-21" on="1"/>
        <pt x="1232" y="-21" on="0"/>
        <pt x="1144" y="10" on="0"/>
        <pt x="1082" y="62" on="0"/>
        <pt x="1049" y="133" on="0"/>
      </contour>
      <contour>
        <pt x="191" y="173" on="1"/>
        <pt x="191" y="213" on="0"/>
        <pt x="224" y="284" on="0"/>
        <pt x="286" y="337" on="0"/>
        <pt x="374" y="367" on="0"/>
        <pt x="429" y="367" on="1"/>
        <pt x="484" y="367" on="0"/>
        <pt x="572" y="337" on="0"/>
        <pt x="633" y="284" on="0"/>
        <pt x="666" y="213" on="0"/>
        <pt x="666" y="173" on="1"/>
        <pt x="666" y="133" on="0"/>
        <pt x="633" y="62" on="0"/>
        <pt x="572" y="10" on="0"/>
        <pt x="484" y="-21" on="0"/>
        <pt x="429" y="-21" on="1"/>
        <pt x="374" y="-21" on="0"/>
        <pt x="286" y="10" on="0"/>
        <pt x="224" y="62" on="0"/>
        <pt x="191" y="133" on="0"/>
      </contour>
    </TTGlyph>
    <TTGlyph name="emacron" xMin="129" yMin="-21" xMax="1578" yMax="1690">
      <component glyphName="e" x="0" y="0" flags="0x204"/>
      <component glyphName="macron" x="257" y="0" flags="0x4"/>
    </TTGlyph>
    <TTGlyph name="emdash" xMin="152" yMin="664" xMax="2585" yMax="886">
      <contour>
        <pt x="152" y="886" on="1"/>
        <pt x="2585" y="886" on="1"/>
        <pt x="2585" y="664" on="1"/>
        <pt x="152" y="664" on="1"/>
      </contour>
    </TTGlyph>
    <TTGlyph name="endash" xMin="152" yMin="664" xMax="1212" yMax="886">
      <contour>
        <pt x="152" y="886" on="1"/>
        <pt x="1212" y="886" on="1"/>
        <pt x="1212" y="664" on="1"/>
        <pt x="152" y="664" on="1"/>
      </contour>
    </TTGlyph>
    <TTGlyph name="eng" xMin="185" yMin="-530" xMax="1546" yMax="1201">
      <contour>
        <pt x="185" y="1180" on="1"/>
        <pt x="481" y="1180" on="1"/>
        <pt x="481" y="1080" on="1"/>
        <pt x="599" y="1147" on="0"/>
        <pt x="814" y="1201" on="0"/>
        <pt x="917" y="1201" on="1"/>
        <pt x="1052" y="1201" on="0"/>
        <pt x="1282" y="1122" on="0"/>
        <pt x="1449" y="966" on="0"/>
        <pt x="1544" y="733" on="0"/>
        <pt x="1545" y="580" on="1"/>
        <pt x="1546" y="312" on="1"/>
        <pt x="1546" y="177" on="1"/>
        <pt x="1546" y="89" on="0"/>
        <pt x="1531" y="-54" on="0"/>
        <pt x="1496" y="-176" on="0"/>
        <pt x="1437" y="-282" on="0"/>
        <pt x="1349" y="-380" on="0"/>
        <pt x="1227" y="-477" on="0"/>
        <pt x="1147" y="-530" on="1"/>
        <pt x="1038" y="-279" on="1"/>
        <pt x="1100" y="-233" on="0"/>
        <pt x="1182" y="-143" on="0"/>
        <pt x="1230" y="-45" on="0"/>
        <pt x="1250" y="67" on="0"/>
        <pt x="1250" y="134" on="1"/>
        <pt x="1250" y="532" on="1"/>
        <pt x="1250" y="629" on="0"/>
        <pt x="1195" y="782" on="0"/>
        <pt x="1092" y="887" on="0"/>
        <pt x="945" y="942" on="0"/>
        <pt x="854" y="942" on="1"/>
        <pt x="806" y="942" on="0"/>
        <pt x="705" y="922" on="0"/>
        <pt x="608" y="885" on="0"/>
        <pt x="518" y="830" on="0"/>
        <pt x="481" y="795" on="1"/>
        <pt x="481" y="0" on="1"/>
        <pt x="185" y="0" on="1"/>
      </contour>
    </TTGlyph>
    <TTGlyph name="eogonek" xMin="129" yMin="-530" xMax="1578" yMax="1201">
      <contour>
        <pt x="129" y="586" on="1"/>
        <pt x="129" y="710" on="0"/>
        <pt x="227" y="933" on="0"/>
        <pt x="411" y="1102" on="0"/>
        <pt x="678" y="1201" on="0"/>
        <pt x="847" y="1201" on="1"/>
        <pt x="1017" y="1201" on="0"/>
        <pt x="1288" y="1100" on="0"/>
        <pt x="1477" y="924" on="0"/>
        <pt x="1578" y="686" on="0"/>
        <pt x="1578" y="550" on="1"/>
        <pt x="1578" y="533" on="0"/>
        <pt x="1577" y="494" on="0"/>
        <pt x="1575" y="478" on="1"/>
        <pt x="459" y="478" on="1"/>
        <pt x="478" y="423" on="0"/>
        <pt x="567" y="335" on="0"/>
        <pt x="696" y="272" on="0"/>
        <pt x="859" y="238" on="0"/>
        <pt x="954" y="238" on="1"/>
        <pt x="1063" y="238" on="0"/>
        <pt x="1262" y="280" on="0"/>
        <pt x="1357" y="314" on="1"/>
        <pt x="1457" y="88" on="1"/>
        <pt x="1456" y="88" on="1"/>
        <pt x="1245" y="22" on="0"/>
        <pt x="1045" y="-134" on="0"/>
        <pt x="1045" y="-220" on="1"/>
        <pt x="1045" y="-256" on="0"/>
        <pt x="1100" y="-310" on="0"/>
        <pt x="1159" y="-310" on="1"/>
        <pt x="1197" y="-310" on="0"/>
        <pt x="1280" y="-285" on="0"/>
        <pt x="1322" y="-263" on="1"/>
        <pt x="1399" y="-451" on="1"/>
        <pt x="1321" y="-491" on="0"/>
        <pt x="1161" y="-530" on="0"/>
        <pt x="1098" y="-530" on="1"/>
        <pt x="1013" y="-530" on="0"/>
        <pt x="890" y="-489" on="0"/>
        <pt x="809" y="-421" on="0"/>
        <pt x="770" y="-333" on="0"/>
        <pt x="770" y="-285" on="1"/>
        <pt x="770" y="-214" on="0"/>
        <pt x="863" y="-81" on="0"/>
        <pt x="943" y="-21" on="1"/>
        <pt x="938" y="-21" on="1"/>
        <pt x="737" y="-21" on="0"/>
        <pt x="434" y="75" on="0"/>
        <pt x="231" y="240" on="0"/>
        <pt x="129" y="461" on="0"/>
      </contour>
      <contour>
        <pt x="1264" y="709" on="1"/>
        <pt x="1248" y="758" on="0"/>
        <pt x="1181" y="843" on="0"/>
        <pt x="1081" y="906" on="0"/>
        <pt x="949" y="942" on="0"/>
        <pt x="868" y="942" on="1"/>
        <pt x="785" y="942" on="0"/>
        <pt x="648" y="904" on="0"/>
        <pt x="545" y="840" on="0"/>
        <pt x="475" y="756" on="0"/>
        <pt x="459" y="709" on="1"/>
      </contour>
    </TTGlyph>
    <TTGlyph name="equal" xMin="137" yMin="465" xMax="1054" yMax="1100">
      <component glyphName="hyphen" x="0" y="194" flags="0x204"/>
      <component glyphName="hyphen" x="0" y="-219" flags="0x4"/>
    </TTGlyph>
    <TTGlyph name="eth" xMin="101" yMin="-18" xMax="1605" yMax="1745">
      <contour>
        <pt x="101" y="542" on="1"/>
        <pt x="101" y="653" on="0"/>
        <pt x="189" y="836" on="0"/>
        <pt x="351" y="966" on="0"/>
        <pt x="582" y="1037" on="0"/>
        <pt x="725" y="1037" on="1"/>
        <pt x="785" y="1037" on="0"/>
        <pt x="925" y="1022" on="0"/>
        <pt x="1074" y="986" on="0"/>
        <pt x="1227" y="924" on="0"/>
        <pt x="1302" y="878" on="1"/>
        <pt x="1235" y="1115" on="0"/>
        <pt x="1001" y="1265" on="1"/>
        <pt x="866" y="1099" on="1"/>
        <pt x="693" y="1239" on="1"/>
        <pt x="797" y="1367" on="1"/>
        <pt x="742" y="1389" on="0"/>
        <pt x="622" y="1426" on="0"/>
        <pt x="556" y="1443" on="1"/>
        <pt x="681" y="1674" on="1"/>
        <pt x="759" y="1653" on="0"/>
        <pt x="899" y="1602" on="0"/>
        <pt x="965" y="1573" on="1"/>
        <pt x="1105" y="1745" on="1"/>
        <pt x="1276" y="1604" on="1"/>
        <pt x="1162" y="1464" on="1"/>
        <pt x="1382" y="1318" on="0"/>
        <pt x="1605" y="922" on="0"/>
        <pt x="1605" y="689" on="1"/>
        <pt x="1605" y="542" on="0"/>
        <pt x="1513" y="285" on="0"/>
        <pt x="1324" y="93" on="0"/>
        <pt x="1034" y="-18" on="0"/>
        <pt x="835" y="-18" on="1"/>
        <pt x="658" y="-18" on="0"/>
        <pt x="385" y="70" on="0"/>
        <pt x="198" y="222" on="0"/>
        <pt x="101" y="426" on="0"/>
      </contour>
      <contour>
        <pt x="410" y="535" on="1"/>
        <pt x="410" y="473" on="0"/>
        <pt x="469" y="364" on="0"/>
        <pt x="578" y="283" on="0"/>
        <pt x="735" y="236" on="0"/>
        <pt x="834" y="236" on="1"/>
        <pt x="935" y="236" on="0"/>
        <pt x="1096" y="286" on="0"/>
        <pt x="1213" y="379" on="0"/>
        <pt x="1284" y="510" on="0"/>
        <pt x="1295" y="591" on="1"/>
        <pt x="1261" y="628" on="0"/>
        <pt x="1160" y="697" on="0"/>
        <pt x="1030" y="750" on="0"/>
        <pt x="874" y="782" on="0"/>
        <pt x="784" y="782" on="1"/>
        <pt x="689" y="782" on="0"/>
        <pt x="549" y="745" on="0"/>
        <pt x="456" y="679" on="0"/>
        <pt x="410" y="589" on="0"/>
      </contour>
    </TTGlyph>
    <TTGlyph name="exclam" xMin="191" yMin="-21" xMax="666" yMax="1563">
      <contour>
        <pt x="270" y="1563" on="1"/>
        <pt x="587" y="1563" on="1"/>
        <pt x="587" y="569" on="1"/>
        <pt x="270" y="569" on="1"/>
      </contour>
      <contour>
        <pt x="191" y="173" on="1"/>
        <pt x="191" y="213" on="0"/>
        <pt x="224" y="284" on="0"/>
        <pt x="286" y="337" on="0"/>
        <pt x="374" y="367" on="0"/>
        <pt x="429" y="367" on="1"/>
        <pt x="484" y="367" on="0"/>
        <pt x="572" y="337" on="0"/>
        <pt x="633" y="284" on="0"/>
        <pt x="666" y="213" on="0"/>
        <pt x="666" y="173" on="1"/>
        <pt x="666" y="133" on="0"/>
        <pt x="633" y="62" on="0"/>
        <pt x="572" y="10" on="0"/>
        <pt x="484" y="-21" on="0"/>
        <pt x="429" y="-21" on="1"/>
        <pt x="374" y="-21" on="0"/>
        <pt x="286" y="10" on="0"/>
        <pt x="224" y="62" on="0"/>
        <pt x="191" y="133" on="0"/>
      </contour>
    </TTGlyph>
    <TTGlyph name="exclamdown" xMin="192" yMin="-381" xMax="667" yMax="1203">
      <component glyphName="exclam" x="1" y="1182" scalex="1.0" scaley="-0.999938964844" flags="0x4"/>
    </TTGlyph>
    <TTGlyph name="f" xMin="112" yMin="0" xMax="1109" yMax="1684">
      <contour>
        <pt x="314" y="958" on="1"/>
        <pt x="112" y="958" on="1"/>
        <pt x="112" y="1180" on="1"/>
        <pt x="314" y="1180" on="1"/>
        <pt x="314" y="1300" on="0"/>
        <pt x="382" y="1487" on="0"/>
        <pt x="511" y="1616" on="0"/>
        <pt x="696" y="1684" on="0"/>
        <pt x="812" y="1684" on="1"/>
        <pt x="893" y="1684" on="0"/>
        <pt x="1049" y="1653" on="0"/>
        <pt x="1109" y="1624" on="1"/>
        <pt x="1004" y="1375" on="1"/>
        <pt x="980" y="1389" on="0"/>
        <pt x="893" y="1413" on="0"/>
        <pt x="841" y="1413" on="1"/>
        <pt x="739" y="1413" on="0"/>
        <pt x="614" y="1298" on="0"/>
        <pt x="610" y="1180" on="1"/>
        <pt x="983" y="1180" on="1"/>
        <pt x="983" y="958" on="1"/>
        <pt x="610" y="958" on="1"/>
        <pt x="610" y="0" on="1"/>
        <pt x="314" y="0" on="1"/>
      </contour>
    </TTGlyph>
    <TTGlyph name="ff" xMin="112" yMin="0" xMax="2135" yMax="1684">
      <component glyphName="f" x="0" y="0" flags="0x4"/>
      <component glyphName="f" x="1026" y="0" flags="0x4"/>
    </TTGlyph>
    <TTGlyph name="fi" xMin="112" yMin="0" xMax="1560" yMax="1684">
      <component glyphName="f" x="0" y="0" flags="0x4"/>
      <component glyphName="i" x="1026" y="0" flags="0x4"/>
    </TTGlyph>
    <TTGlyph name="five" xMin="119" yMin="-21" xMax="1587" yMax="1563">
      <contour>
        <pt x="265" y="372" on="1"/>
        <pt x="322" y="343" on="0"/>
        <pt x="455" y="302" on="0"/>
        <pt x="596" y="274" on="0"/>
        <pt x="739" y="261" on="0"/>
        <pt x="807" y="261" on="1"/>
        <pt x="927" y="261" on="0"/>
        <pt x="1102" y="296" on="0"/>
        <pt x="1215" y="360" on="0"/>
        <pt x="1270" y="449" on="0"/>
        <pt x="1270" y="503" on="1"/>
        <pt x="1270" y="558" on="0"/>
        <pt x="1213" y="650" on="0"/>
        <pt x="1100" y="716" on="0"/>
        <pt x="929" y="753" on="0"/>
        <pt x="815" y="753" on="1"/>
        <pt x="764" y="753" on="0"/>
        <pt x="636" y="744" on="0"/>
        <pt x="492" y="724" on="0"/>
        <pt x="336" y="689" on="0"/>
        <pt x="256" y="664" on="1"/>
        <pt x="256" y="1563" on="1"/>
        <pt x="1455" y="1563" on="1"/>
        <pt x="1455" y="1282" on="1"/>
        <pt x="549" y="1282" on="1"/>
        <pt x="549" y="979" on="1"/>
        <pt x="624" y="996" on="0"/>
        <pt x="788" y="1019" on="0"/>
        <pt x="889" y="1019" on="1"/>
        <pt x="1054" y="1019" on="0"/>
        <pt x="1314" y="947" on="0"/>
        <pt x="1493" y="813" on="0"/>
        <pt x="1587" y="624" on="0"/>
        <pt x="1587" y="507" on="1"/>
        <pt x="1587" y="386" on="0"/>
        <pt x="1486" y="191" on="0"/>
        <pt x="1289" y="53" on="0"/>
        <pt x="1002" y="-21" on="0"/>
        <pt x="816" y="-21" on="1"/>
        <pt x="720" y="-21" on="0"/>
        <pt x="531" y="0" on="0"/>
        <pt x="353" y="39" on="0"/>
        <pt x="190" y="96" on="0"/>
        <pt x="119" y="132" on="1"/>
      </contour>
    </TTGlyph>
    <TTGlyph name="fl" xMin="112" yMin="0" xMax="1515" yMax="1684">
      <component glyphName="f" x="0" y="0" flags="0x4"/>
      <component glyphName="l" x="1026" y="0" flags="0x4"/>
    </TTGlyph>
    <TTGlyph name="florin" xMin="-28" yMin="-530" xMax="1130" yMax="1684">
      <contour>
        <pt x="196" y="794" on="1"/>
        <pt x="22" y="794" on="1"/>
        <pt x="59" y="1016" on="1"/>
        <pt x="233" y="1016" on="1"/>
        <pt x="261" y="1180" on="1"/>
        <pt x="281" y="1300" on="0"/>
        <pt x="381" y="1488" on="0"/>
        <pt x="531" y="1617" on="0"/>
        <pt x="727" y="1684" on="0"/>
        <pt x="843" y="1684" on="1"/>
        <pt x="924" y="1684" on="0"/>
        <pt x="1074" y="1653" on="0"/>
        <pt x="1130" y="1624" on="1"/>
        <pt x="983" y="1375" on="1"/>
        <pt x="961" y="1389" on="0"/>
        <pt x="879" y="1413" on="0"/>
        <pt x="827" y="1413" on="1"/>
        <pt x="775" y="1413" on="0"/>
        <pt x="684" y="1382" on="0"/>
        <pt x="613" y="1321" on="0"/>
        <pt x="564" y="1228" on="0"/>
        <pt x="554" y="1165" on="1"/>
        <pt x="529" y="1016" on="1"/>
        <pt x="930" y="1016" on="1"/>
        <pt x="893" y="794" on="1"/>
        <pt x="491" y="794" on="1"/>
        <pt x="268" y="-530" on="1"/>
        <pt x="-28" y="-530" on="1"/>
      </contour>
    </TTGlyph>
    <TTGlyph name="four" xMin="189" yMin="0" xMax="1759" yMax="1563">
      <contour>
        <pt x="191" y="612" on="1"/>
        <pt x="1105" y="1563" on="1"/>
        <pt x="1422" y="1563" on="1"/>
        <pt x="1422" y="612" on="1"/>
        <pt x="1759" y="612" on="1"/>
        <pt x="1759" y="334" on="1"/>
        <pt x="1422" y="334" on="1"/>
        <pt x="1422" y="0" on="1"/>
        <pt x="1105" y="0" on="1"/>
        <pt x="1105" y="334" on="1"/>
        <pt x="189" y="334" on="1"/>
      </contour>
      <contour>
        <pt x="1105" y="612" on="1"/>
        <pt x="1105" y="1162" on="1"/>
        <pt x="571" y="612" on="1"/>
      </contour>
    </TTGlyph>
    <TTGlyph name="fraction" xMin="78" yMin="-177" xMax="1627" yMax="1920">
      <contour>
        <pt x="1360" y="1920" on="1"/>
        <pt x="1627" y="1920" on="1"/>
        <pt x="345" y="-177" on="1"/>
        <pt x="78" y="-177" on="1"/>
      </contour>
    </TTGlyph>
    <TTGlyph name="g" xMin="114" yMin="-530" xMax="1554" yMax="1201">
      <contour>
        <pt x="370" y="-200" on="1"/>
        <pt x="426" y="-220" on="0"/>
        <pt x="542" y="-247" on="0"/>
        <pt x="651" y="-264" on="0"/>
        <pt x="751" y="-271" on="0"/>
        <pt x="790" y="-271" on="1"/>
        <pt x="908" y="-271" on="0"/>
        <pt x="1083" y="-214" on="0"/>
        <pt x="1200" y="-118" on="0"/>
        <pt x="1258" y="9" on="0"/>
        <pt x="1258" y="80" on="1"/>
        <pt x="1258" y="131" on="1"/>
        <pt x="1220" y="105" on="0"/>
        <pt x="1118" y="57" on="0"/>
        <pt x="996" y="21" on="0"/>
        <pt x="859" y="-1" on="0"/>
        <pt x="786" y="-1" on="1"/>
        <pt x="641" y="-1" on="0"/>
        <pt x="395" y="86" on="0"/>
        <pt x="215" y="243" on="0"/>
        <pt x="114" y="463" on="0"/>
        <pt x="114" y="597" on="1"/>
        <pt x="114" y="734" on="0"/>
        <pt x="220" y="957" on="0"/>
        <pt x="407" y="1115" on="0"/>
        <pt x="663" y="1201" on="0"/>
        <pt x="813" y="1201" on="1"/>
        <pt x="877" y="1201" on="0"/>
        <pt x="1003" y="1185" on="0"/>
        <pt x="1118" y="1157" on="0"/>
        <pt x="1219" y="1118" on="0"/>
        <pt x="1258" y="1095" on="1"/>
        <pt x="1258" y="1180" on="1"/>
        <pt x="1554" y="1180" on="1"/>
        <pt x="1554" y="135" on="1"/>
        <pt x="1554" y="-26" on="0"/>
        <pt x="1456" y="-274" on="0"/>
        <pt x="1267" y="-443" on="0"/>
        <pt x="987" y="-530" on="0"/>
        <pt x="806" y="-530" on="1"/>
        <pt x="741" y="-530" on="0"/>
        <pt x="601" y="-519" on="0"/>
        <pt x="460" y="-498" on="0"/>
        <pt x="323" y="-469" on="0"/>
        <pt x="260" y="-450" on="1"/>
      </contour>
      <contour>
        <pt x="425" y="600" on="1"/>
        <pt x="425" y="529" on="0"/>
        <pt x="482" y="404" on="0"/>
        <pt x="588" y="311" on="0"/>
        <pt x="738" y="258" on="0"/>
        <pt x="832" y="258" on="1"/>
        <pt x="893" y="258" on="0"/>
        <pt x="1014" y="281" on="0"/>
        <pt x="1125" y="323" on="0"/>
        <pt x="1222" y="383" on="0"/>
        <pt x="1258" y="420" on="1"/>
        <pt x="1258" y="809" on="1"/>
        <pt x="1213" y="845" on="0"/>
        <pt x="1113" y="895" on="0"/>
        <pt x="1009" y="927" on="0"/>
        <pt x="903" y="942" on="0"/>
        <pt x="853" y="942" on="1"/>
        <pt x="751" y="942" on="0"/>
        <pt x="592" y="888" on="0"/>
        <pt x="483" y="795" on="0"/>
        <pt x="425" y="671" on="0"/>
      </contour>
    </TTGlyph>
    <TTGlyph name="gbreve" xMin="114" yMin="-530" xMax="1554" yMax="1737">
      <component glyphName="g" x="0" y="0" flags="0x4"/>
      <component glyphName="breve" x="303" y="0" flags="0x4"/>
    </TTGlyph>
    <TTGlyph name="gcircumflex" xMin="114" yMin="-530" xMax="1554" yMax="1890">
      <component glyphName="g" x="0" y="0" flags="0x4"/>
      <component glyphName="circumflex" x="295" y="0" flags="0x4"/>
    </TTGlyph>
    <TTGlyph name="gcommaaccent" xMin="114" yMin="-530" xMax="1554" yMax="1729">
      <component glyphName="g" x="0" y="0" flags="0x4"/>
      <component glyphName="commaaccent" x="460" y="1796" flags="0x4"/>
    </TTGlyph>
    <TTGlyph name="gdotaccent" xMin="114" yMin="-530" xMax="1554" yMax="1655">
      <component glyphName="g" x="0" y="0" flags="0x4"/>
      <component glyphName="dotaccent" x="396" y="0" flags="0x4"/>
    </TTGlyph>
    <TTGlyph name="germandbls" xMin="59" yMin="-22" xMax="1785" yMax="1653">
      <contour>
        <pt x="251" y="958" on="1"/>
        <pt x="59" y="958" on="1"/>
        <pt x="59" y="1180" on="1"/>
        <pt x="252" y="1180" on="1"/>
        <pt x="256" y="1292" on="0"/>
        <pt x="334" y="1468" on="0"/>
        <pt x="476" y="1590" on="0"/>
        <pt x="680" y="1653" on="0"/>
        <pt x="810" y="1653" on="1"/>
        <pt x="954" y="1653" on="0"/>
        <pt x="1164" y="1580" on="0"/>
        <pt x="1301" y="1459" on="0"/>
        <pt x="1366" y="1304" on="0"/>
        <pt x="1366" y="1222" on="1"/>
        <pt x="1366" y="1124" on="0"/>
        <pt x="1276" y="966" on="0"/>
        <pt x="1191" y="888" on="1"/>
        <pt x="1309" y="888" on="0"/>
        <pt x="1524" y="832" on="0"/>
        <pt x="1688" y="719" on="0"/>
        <pt x="1785" y="549" on="0"/>
        <pt x="1785" y="434" on="1"/>
        <pt x="1785" y="331" on="0"/>
        <pt x="1701" y="163" on="0"/>
        <pt x="1537" y="43" on="0"/>
        <pt x="1294" y="-22" on="0"/>
        <pt x="1135" y="-22" on="1"/>
        <pt x="1081" y="-22" on="0"/>
        <pt x="968" y="-14" on="0"/>
        <pt x="858" y="5" on="0"/>
        <pt x="754" y="35" on="0"/>
        <pt x="709" y="57" on="1"/>
        <pt x="804" y="292" on="1"/>
        <pt x="892" y="251" on="0"/>
        <pt x="1071" y="222" on="0"/>
        <pt x="1146" y="222" on="1"/>
        <pt x="1221" y="222" on="0"/>
        <pt x="1342" y="247" on="0"/>
        <pt x="1427" y="299" on="0"/>
        <pt x="1474" y="379" on="0"/>
        <pt x="1474" y="434" on="1"/>
        <pt x="1474" y="464" on="0"/>
        <pt x="1456" y="528" on="0"/>
        <pt x="1406" y="586" on="0"/>
        <pt x="1316" y="634" on="0"/>
        <pt x="1173" y="664" on="0"/>
        <pt x="968" y="671" on="0"/>
        <pt x="828" y="658" on="1"/>
        <pt x="828" y="870" on="1"/>
        <pt x="946" y="962" on="0"/>
        <pt x="1055" y="1120" on="0"/>
        <pt x="1055" y="1192" on="1"/>
        <pt x="1055" y="1230" on="0"/>
        <pt x="1025" y="1299" on="0"/>
        <pt x="965" y="1351" on="0"/>
        <pt x="874" y="1382" on="0"/>
        <pt x="813" y="1382" on="1"/>
        <pt x="751" y="1382" on="0"/>
        <pt x="653" y="1349" on="0"/>
        <pt x="584" y="1286" on="0"/>
        <pt x="547" y="1193" on="0"/>
        <pt x="547" y="1134" on="1"/>
        <pt x="547" y="0" on="1"/>
        <pt x="251" y="0" on="1"/>
      </contour>
    </TTGlyph>
    <TTGlyph name="grave" xMin="126" yMin="1321" xMax="923" yMax="1849">
      <contour>
        <pt x="126" y="1620" on="1"/>
        <pt x="237" y="1849" on="1"/>
        <pt x="923" y="1528" on="1"/>
        <pt x="824" y="1321" on="1"/>
      </contour>
    </TTGlyph>
    <TTGlyph name="grave.cap" xMin="192" yMin="1623" xMax="936" yMax="2030">
      <contour>
        <pt x="262" y="2030" on="1"/>
        <pt x="936" y="1841" on="1"/>
        <pt x="874" y="1623" on="1"/>
        <pt x="192" y="1782" on="1"/>
      </contour>
    </TTGlyph>
    <TTGlyph name="greater" xMin="276" yMin="154" xMax="1342" yMax="1416">
      <contour>
        <pt x="276" y="369" on="1"/>
        <pt x="904" y="784" on="1"/>
        <pt x="276" y="1201" on="1"/>
        <pt x="413" y="1416" on="1"/>
        <pt x="1342" y="785" on="1"/>
        <pt x="413" y="154" on="1"/>
      </contour>
    </TTGlyph>
    <TTGlyph name="greaterequal" xMin="88" yMin="-1" xMax="1154" yMax="1528">
      <component glyphName="lessequal" x="1190" y="0" scalex="-0.999938964844" scaley="1.0" flags="0x4"/>
    </TTGlyph>
    <TTGlyph name="guillemotleft" xMin="240" yMin="211" xMax="1855" yMax="1205">
      <component glyphName="guilsinglleft" x="0" y="0" flags="0x4"/>
      <component glyphName="guilsinglleft" x="830" y="0" flags="0x4"/>
    </TTGlyph>
    <TTGlyph name="guillemotright" xMin="187" yMin="211" xMax="1802" yMax="1205">
      <component glyphName="guilsinglleft" x="1212" y="0" scalex="-0.999938964844" scaley="1.0" flags="0x4"/>
      <component glyphName="guilsinglleft" x="2042" y="0" scalex="-0.999938964844" scaley="1.0" flags="0x4"/>
    </TTGlyph>
    <TTGlyph name="guilsinglleft" xMin="240" yMin="211" xMax="1025" yMax="1205">
      <contour>
        <pt x="240" y="394" on="1"/>
        <pt x="649" y="708" on="1"/>
        <pt x="240" y="1022" on="1"/>
        <pt x="380" y="1205" on="1"/>
        <pt x="1025" y="708" on="1"/>
        <pt x="380" y="211" on="1"/>
      </contour>
    </TTGlyph>
    <TTGlyph name="guilsinglright" xMin="170" yMin="211" xMax="955" yMax="1205">
      <component glyphName="guilsinglleft" x="1195" y="0" scalex="-0.999938964844" scaley="1.0" flags="0x4"/>
    </TTGlyph>
    <TTGlyph name="h" xMin="185" yMin="0" xMax="1557" yMax="1658">
      <contour>
        <pt x="185" y="1658" on="1"/>
        <pt x="481" y="1658" on="1"/>
        <pt x="481" y="1090" on="1"/>
        <pt x="574" y="1141" on="0"/>
        <pt x="803" y="1201" on="0"/>
        <pt x="929" y="1201" on="1"/>
        <pt x="1075" y="1201" on="0"/>
        <pt x="1308" y="1115" on="0"/>
        <pt x="1470" y="954" on="0"/>
        <pt x="1557" y="724" on="0"/>
        <pt x="1557" y="580" on="1"/>
        <pt x="1557" y="0" on="1"/>
        <pt x="1262" y="0" on="1"/>
        <pt x="1262" y="568" on="1"/>
        <pt x="1262" y="652" on="0"/>
        <pt x="1208" y="791" on="0"/>
        <pt x="1104" y="891" on="0"/>
        <pt x="955" y="946" on="0"/>
        <pt x="861" y="946" on="1"/>
        <pt x="748" y="946" on="0"/>
        <pt x="554" y="874" on="0"/>
        <pt x="481" y="819" on="1"/>
        <pt x="481" y="0" on="1"/>
        <pt x="185" y="0" on="1"/>
      </contour>
    </TTGlyph>
    <TTGlyph name="hbar" xMin="19" yMin="0" xMax="1557" yMax="1658">
      <contour>
        <pt x="19" y="1497" on="1"/>
        <pt x="700" y="1497" on="1"/>
        <pt x="700" y="1283" on="1"/>
        <pt x="19" y="1283" on="1"/>
      </contour>
      <contour>
        <pt x="185" y="1658" on="1"/>
        <pt x="481" y="1658" on="1"/>
        <pt x="481" y="1090" on="1"/>
        <pt x="574" y="1141" on="0"/>
        <pt x="803" y="1201" on="0"/>
        <pt x="929" y="1201" on="1"/>
        <pt x="1075" y="1201" on="0"/>
        <pt x="1308" y="1115" on="0"/>
        <pt x="1470" y="954" on="0"/>
        <pt x="1557" y="724" on="0"/>
        <pt x="1557" y="580" on="1"/>
        <pt x="1557" y="0" on="1"/>
        <pt x="1262" y="0" on="1"/>
        <pt x="1262" y="568" on="1"/>
        <pt x="1262" y="652" on="0"/>
        <pt x="1208" y="791" on="0"/>
        <pt x="1104" y="891" on="0"/>
        <pt x="955" y="946" on="0"/>
        <pt x="861" y="946" on="1"/>
        <pt x="748" y="946" on="0"/>
        <pt x="554" y="874" on="0"/>
        <pt x="481" y="819" on="1"/>
        <pt x="481" y="0" on="1"/>
        <pt x="185" y="0" on="1"/>
      </contour>
    </TTGlyph>
    <TTGlyph name="hcircumflex" xMin="185" yMin="0" xMax="1557" yMax="2030">
      <component glyphName="h" x="0" y="0" flags="0x4"/>
      <component glyphName="circumflex.cap" x="196" y="0" flags="0x4"/>
    </TTGlyph>
    <TTGlyph name="hungarumlaut" xMin="134" yMin="1335" xMax="1193" yMax="1919">
      <contour>
        <pt x="134" y="1453" on="1"/>
        <pt x="455" y="1919" on="1"/>
        <pt x="642" y="1795" on="1"/>
        <pt x="306" y="1336" on="1"/>
      </contour>
      <contour>
        <pt x="685" y="1452" on="1"/>
        <pt x="1006" y="1918" on="1"/>
        <pt x="1193" y="1794" on="1"/>
        <pt x="857" y="1335" on="1"/>
      </contour>
    </TTGlyph>
    <TTGlyph name="hungarumlaut.cap" xMin="76" yMin="1551" xMax="1212" yMax="2030">
      <contour>
        <pt x="670" y="1722" on="1"/>
        <pt x="1057" y="2030" on="1"/>
        <pt x="1212" y="1836" on="1"/>
        <pt x="788" y="1551" on="1"/>
      </contour>
      <contour>
        <pt x="76" y="1722" on="1"/>
        <pt x="463" y="2030" on="1"/>
        <pt x="618" y="1836" on="1"/>
        <pt x="194" y="1551" on="1"/>
      </contour>
    </TTGlyph>
    <TTGlyph name="hyphen" xMin="137" yMin="684" xMax="1054" yMax="906">
      <contour>
        <pt x="137" y="906" on="1"/>
        <pt x="1054" y="906" on="1"/>
        <pt x="1054" y="684" on="1"/>
        <pt x="137" y="684" on="1"/>
      </contour>
    </TTGlyph>
    <TTGlyph name="i" xMin="149" yMin="0" xMax="534" yMax="1655">
      <contour>
        <pt x="341" y="1341" on="1"/>
        <pt x="297" y="1341" on="0"/>
        <pt x="226" y="1366" on="0"/>
        <pt x="176" y="1409" on="0"/>
        <pt x="149" y="1466" on="0"/>
        <pt x="149" y="1498" on="1"/>
        <pt x="149" y="1531" on="0"/>
        <pt x="176" y="1588" on="0"/>
        <pt x="226" y="1630" on="0"/>
        <pt x="297" y="1655" on="0"/>
        <pt x="341" y="1655" on="1"/>
        <pt x="386" y="1655" on="0"/>
        <pt x="457" y="1630" on="0"/>
        <pt x="507" y="1588" on="0"/>
        <pt x="534" y="1531" on="0"/>
        <pt x="534" y="1498" on="1"/>
        <pt x="534" y="1466" on="0"/>
        <pt x="507" y="1409" on="0"/>
        <pt x="457" y="1366" on="0"/>
        <pt x="386" y="1341" on="0"/>
      </contour>
      <contour>
        <pt x="193" y="1180" on="1"/>
        <pt x="489" y="1180" on="1"/>
        <pt x="489" y="0" on="1"/>
        <pt x="193" y="0" on="1"/>
      </contour>
    </TTGlyph>
    <TTGlyph name="iacute" xMin="52" yMin="0" xMax="635" yMax="1780">
      <contour>
        <pt x="52" y="1547" on="1"/>
        <pt x="524" y="1780" on="1"/>
        <pt x="635" y="1551" on="1"/>
        <pt x="151" y="1340" on="1"/>
      </contour>
      <contour>
        <pt x="193" y="1180" on="1"/>
        <pt x="489" y="1180" on="1"/>
        <pt x="489" y="0" on="1"/>
        <pt x="193" y="0" on="1"/>
      </contour>
    </TTGlyph>
    <TTGlyph name="ibreve" xMin="-106" yMin="0" xMax="792" yMax="1737">
      <component glyphName="dotlessi" x="0" y="0" flags="0x204"/>
      <component glyphName="breve" x="-188" y="0" flags="0x4"/>
    </TTGlyph>
    <TTGlyph name="icircumflex" xMin="-128" yMin="0" xMax="814" yMax="1890">
      <component glyphName="dotlessi" x="0" y="0" flags="0x204"/>
      <component glyphName="circumflex" x="-196" y="0" flags="0x4"/>
    </TTGlyph>
    <TTGlyph name="idieresis" xMin="-168" yMin="0" xMax="854" yMax="1763">
      <component glyphName="dotlessi" x="0" y="0" flags="0x204"/>
      <component glyphName="dieresis" x="-268" y="0" flags="0x4"/>
    </TTGlyph>
    <TTGlyph name="igrave" xMin="61" yMin="0" xMax="644" yMax="1780">
      <contour>
        <pt x="61" y="1551" on="1"/>
        <pt x="172" y="1780" on="1"/>
        <pt x="644" y="1547" on="1"/>
        <pt x="545" y="1340" on="1"/>
      </contour>
      <contour>
        <pt x="193" y="1180" on="1"/>
        <pt x="489" y="1180" on="1"/>
        <pt x="489" y="0" on="1"/>
        <pt x="193" y="0" on="1"/>
      </contour>
    </TTGlyph>
    <TTGlyph name="ij" xMin="149" yMin="-530" xMax="1217" yMax="1655">
      <component glyphName="i" x="0" y="0" flags="0x4"/>
      <component glyphName="j" x="683" y="0" flags="0x4"/>
    </TTGlyph>
    <TTGlyph name="imacron" xMin="85" yMin="0" xMax="598" yMax="1690">
      <contour>
        <pt x="85" y="1690" on="1"/>
        <pt x="598" y="1690" on="1"/>
        <pt x="598" y="1447" on="1"/>
        <pt x="85" y="1447" on="1"/>
      </contour>
      <contour>
        <pt x="193" y="1180" on="1"/>
        <pt x="489" y="1180" on="1"/>
        <pt x="489" y="0" on="1"/>
        <pt x="193" y="0" on="1"/>
      </contour>
    </TTGlyph>
    <TTGlyph name="infinity" xMin="176" yMin="262" xMax="1877" yMax="1111">
      <contour>
        <pt x="573" y="262" on="1"/>
        <pt x="490" y="262" on="0"/>
        <pt x="367" y="308" on="0"/>
        <pt x="278" y="382" on="0"/>
        <pt x="222" y="476" on="0"/>
        <pt x="189" y="570" on="0"/>
        <pt x="176" y="657" on="0"/>
        <pt x="176" y="687" on="1"/>
        <pt x="176" y="724" on="0"/>
        <pt x="192" y="815" on="0"/>
        <pt x="229" y="909" on="0"/>
        <pt x="291" y="999" on="0"/>
        <pt x="384" y="1069" on="0"/>
        <pt x="510" y="1111" on="0"/>
        <pt x="593" y="1111" on="1"/>
        <pt x="668" y="1111" on="0"/>
        <pt x="793" y="1062" on="0"/>
        <pt x="900" y="985" on="0"/>
        <pt x="991" y="893" on="0"/>
        <pt x="1032" y="850" on="1"/>
        <pt x="1036" y="846" on="1"/>
        <pt x="1074" y="889" on="0"/>
        <pt x="1172" y="982" on="0"/>
        <pt x="1286" y="1060" on="0"/>
        <pt x="1413" y="1111" on="0"/>
        <pt x="1481" y="1111" on="1"/>
        <pt x="1564" y="1111" on="0"/>
        <pt x="1687" y="1069" on="0"/>
        <pt x="1775" y="999" on="0"/>
        <pt x="1832" y="909" on="0"/>
        <pt x="1864" y="815" on="0"/>
        <pt x="1877" y="724" on="0"/>
        <pt x="1877" y="687" on="1"/>
        <pt x="1877" y="656" on="0"/>
        <pt x="1864" y="569" on="0"/>
        <pt x="1832" y="474" on="0"/>
        <pt x="1775" y="382" on="0"/>
        <pt x="1687" y="308" on="0"/>
        <pt x="1564" y="262" on="0"/>
        <pt x="1481" y="262" on="1"/>
        <pt x="1408" y="262" on="0"/>
        <pt x="1276" y="309" on="0"/>
        <pt x="1160" y="382" on="0"/>
        <pt x="1059" y="471" on="0"/>
        <pt x="1018" y="513" on="1"/>
        <pt x="980" y="471" on="0"/>
        <pt x="880" y="382" on="0"/>
        <pt x="765" y="309" on="0"/>
        <pt x="639" y="262" on="0"/>
      </contour>
      <contour>
        <pt x="573" y="464" on="1"/>
        <pt x="612" y="464" on="0"/>
        <pt x="688" y="497" on="0"/>
        <pt x="761" y="549" on="0"/>
        <pt x="827" y="615" on="0"/>
        <pt x="856" y="647" on="1"/>
        <pt x="876" y="669" on="1"/>
        <pt x="822" y="729" on="1"/>
        <pt x="795" y="759" on="0"/>
        <pt x="732" y="825" on="0"/>
        <pt x="664" y="880" on="0"/>
        <pt x="596" y="916" on="0"/>
        <pt x="563" y="916" on="1"/>
        <pt x="496" y="916" on="0"/>
        <pt x="421" y="865" on="0"/>
        <pt x="384" y="792" on="0"/>
        <pt x="376" y="714" on="0"/>
        <pt x="376" y="687" on="1"/>
        <pt x="376" y="665" on="0"/>
        <pt x="387" y="590" on="0"/>
        <pt x="428" y="517" on="0"/>
        <pt x="506" y="464" on="0"/>
      </contour>
      <contour>
        <pt x="1226" y="649" on="1"/>
        <pt x="1251" y="621" on="0"/>
        <pt x="1316" y="557" on="0"/>
        <pt x="1387" y="503" on="0"/>
        <pt x="1459" y="467" on="0"/>
        <pt x="1491" y="467" on="1"/>
        <pt x="1536" y="467" on="0"/>
        <pt x="1597" y="491" on="0"/>
        <pt x="1636" y="530" on="0"/>
        <pt x="1657" y="579" on="0"/>
        <pt x="1666" y="628" on="0"/>
        <pt x="1667" y="672" on="0"/>
        <pt x="1667" y="687" on="1"/>
        <pt x="1667" y="703" on="0"/>
        <pt x="1664" y="750" on="0"/>
        <pt x="1653" y="801" on="0"/>
        <pt x="1629" y="851" on="0"/>
        <pt x="1588" y="890" on="0"/>
        <pt x="1526" y="915" on="0"/>
        <pt x="1481" y="915" on="1"/>
        <pt x="1442" y="915" on="0"/>
        <pt x="1370" y="881" on="0"/>
        <pt x="1302" y="828" on="0"/>
        <pt x="1239" y="762" on="0"/>
        <pt x="1211" y="729" on="1"/>
        <pt x="1182" y="694" on="1"/>
      </contour>
    </TTGlyph>
    <TTGlyph name="integral" xMin="35" yMin="-471" xMax="770" yMax="1469">
      <contour>
        <pt x="35" y="-189" on="1"/>
        <pt x="56" y="-195" on="0"/>
        <pt x="100" y="-206" on="0"/>
        <pt x="138" y="-214" on="0"/>
        <pt x="168" y="-219" on="0"/>
        <pt x="176" y="-219" on="1"/>
        <pt x="231" y="-219" on="0"/>
        <pt x="267" y="-163" on="0"/>
        <pt x="267" y="-111" on="1"/>
        <pt x="267" y="1085" on="1"/>
        <pt x="267" y="1131" on="0"/>
        <pt x="273" y="1224" on="0"/>
        <pt x="296" y="1309" on="0"/>
        <pt x="342" y="1383" on="0"/>
        <pt x="422" y="1438" on="0"/>
        <pt x="543" y="1469" on="0"/>
        <pt x="629" y="1469" on="1"/>
        <pt x="655" y="1469" on="0"/>
        <pt x="729" y="1461" on="0"/>
        <pt x="770" y="1453" on="1"/>
        <pt x="770" y="1189" on="1"/>
        <pt x="749" y="1195" on="0"/>
        <pt x="705" y="1205" on="0"/>
        <pt x="666" y="1212" on="0"/>
        <pt x="635" y="1217" on="0"/>
        <pt x="627" y="1217" on="1"/>
        <pt x="573" y="1217" on="0"/>
        <pt x="537" y="1161" on="0"/>
        <pt x="537" y="1109" on="1"/>
        <pt x="537" y="-86" on="1"/>
        <pt x="537" y="-133" on="0"/>
        <pt x="531" y="-226" on="0"/>
        <pt x="508" y="-311" on="0"/>
        <pt x="461" y="-385" on="0"/>
        <pt x="381" y="-440" on="0"/>
        <pt x="260" y="-471" on="0"/>
        <pt x="174" y="-471" on="1"/>
        <pt x="157" y="-471" on="0"/>
        <pt x="87" y="-462" on="0"/>
        <pt x="35" y="-449" on="1"/>
      </contour>
    </TTGlyph>
    <TTGlyph name="iogonek" xMin="-99" yMin="-530" xMax="534" yMax="1655">
      <contour>
        <pt x="341" y="1341" on="1"/>
        <pt x="297" y="1341" on="0"/>
        <pt x="226" y="1366" on="0"/>
        <pt x="176" y="1409" on="0"/>
        <pt x="149" y="1466" on="0"/>
        <pt x="149" y="1498" on="1"/>
        <pt x="149" y="1531" on="0"/>
        <pt x="176" y="1588" on="0"/>
        <pt x="226" y="1630" on="0"/>
        <pt x="297" y="1655" on="0"/>
        <pt x="341" y="1655" on="1"/>
        <pt x="386" y="1655" on="0"/>
        <pt x="457" y="1630" on="0"/>
        <pt x="507" y="1588" on="0"/>
        <pt x="534" y="1531" on="0"/>
        <pt x="534" y="1498" on="1"/>
        <pt x="534" y="1466" on="0"/>
        <pt x="507" y="1409" on="0"/>
        <pt x="457" y="1366" on="0"/>
        <pt x="386" y="1341" on="0"/>
      </contour>
      <contour>
        <pt x="193" y="1180" on="1"/>
        <pt x="489" y="1180" on="1"/>
        <pt x="489" y="0" on="1"/>
        <pt x="391" y="-26" on="0"/>
        <pt x="269" y="-83" on="0"/>
        <pt x="201" y="-142" on="0"/>
        <pt x="176" y="-199" on="0"/>
        <pt x="176" y="-223" on="1"/>
        <pt x="176" y="-259" on="0"/>
        <pt x="229" y="-310" on="0"/>
        <pt x="293" y="-310" on="1"/>
        <pt x="331" y="-310" on="0"/>
        <pt x="414" y="-285" on="0"/>
        <pt x="456" y="-263" on="1"/>
        <pt x="533" y="-451" on="1"/>
        <pt x="455" y="-491" on="0"/>
        <pt x="295" y="-530" on="0"/>
        <pt x="232" y="-530" on="1"/>
        <pt x="145" y="-530" on="0"/>
        <pt x="19" y="-489" on="0"/>
        <pt x="-61" y="-421" on="0"/>
        <pt x="-99" y="-335" on="0"/>
        <pt x="-99" y="-291" on="1"/>
        <pt x="-99" y="-249" on="0"/>
        <pt x="-70" y="-163" on="0"/>
        <pt x="-2" y="-76" on="0"/>
        <pt x="110" y="12" on="0"/>
        <pt x="193" y="57" on="1"/>
      </contour>
    </TTGlyph>
    <TTGlyph name="itilde" xMin="111" yMin="0" xMax="593" yMax="1784">
      <contour>
        <pt x="111" y="1677" on="1"/>
        <pt x="119" y="1731" on="0"/>
        <pt x="187" y="1784" on="0"/>
        <pt x="232" y="1784" on="1"/>
        <pt x="264" y="1784" on="0"/>
        <pt x="312" y="1765" on="0"/>
        <pt x="351" y="1738" on="0"/>
        <pt x="383" y="1705" on="0"/>
        <pt x="416" y="1678" on="0"/>
        <pt x="453" y="1659" on="0"/>
        <pt x="477" y="1659" on="1"/>
        <pt x="489" y="1659" on="0"/>
        <pt x="524" y="1668" on="0"/>
        <pt x="559" y="1690" on="0"/>
        <pt x="587" y="1730" on="0"/>
        <pt x="593" y="1762" on="1"/>
        <pt x="593" y="1507" on="1"/>
        <pt x="585" y="1465" on="0"/>
        <pt x="527" y="1404" on="0"/>
        <pt x="472" y="1404" on="1"/>
        <pt x="425" y="1404" on="0"/>
        <pt x="363" y="1443" on="0"/>
        <pt x="314" y="1490" on="0"/>
        <pt x="266" y="1529" on="0"/>
        <pt x="233" y="1529" on="1"/>
        <pt x="187" y="1529" on="0"/>
        <pt x="119" y="1474" on="0"/>
        <pt x="111" y="1426" on="1"/>
      </contour>
      <contour>
        <pt x="193" y="1180" on="1"/>
        <pt x="489" y="1180" on="1"/>
        <pt x="489" y="0" on="1"/>
        <pt x="193" y="0" on="1"/>
      </contour>
    </TTGlyph>
    <TTGlyph name="j" xMin="-19" yMin="-530" xMax="534" yMax="1655">
      <contour>
        <pt x="341" y="1341" on="1"/>
        <pt x="297" y="1341" on="0"/>
        <pt x="226" y="1366" on="0"/>
        <pt x="176" y="1409" on="0"/>
        <pt x="149" y="1466" on="0"/>
        <pt x="149" y="1498" on="1"/>
        <pt x="149" y="1531" on="0"/>
        <pt x="176" y="1588" on="0"/>
        <pt x="226" y="1630" on="0"/>
        <pt x="297" y="1655" on="0"/>
        <pt x="341" y="1655" on="1"/>
        <pt x="386" y="1655" on="0"/>
        <pt x="457" y="1630" on="0"/>
        <pt x="507" y="1588" on="0"/>
        <pt x="534" y="1531" on="0"/>
        <pt x="534" y="1498" on="1"/>
        <pt x="534" y="1466" on="0"/>
        <pt x="507" y="1409" on="0"/>
        <pt x="457" y="1366" on="0"/>
        <pt x="386" y="1341" on="0"/>
      </contour>
      <contour>
        <pt x="193" y="1180" on="1"/>
        <pt x="489" y="1180" on="1"/>
        <pt x="489" y="177" on="1"/>
        <pt x="489" y="89" on="0"/>
        <pt x="474" y="-54" on="0"/>
        <pt x="439" y="-176" on="0"/>
        <pt x="380" y="-282" on="0"/>
        <pt x="292" y="-380" on="0"/>
        <pt x="170" y="-477" on="0"/>
        <pt x="90" y="-530" on="1"/>
        <pt x="-19" y="-279" on="1"/>
        <pt x="43" y="-233" on="0"/>
        <pt x="125" y="-143" on="0"/>
        <pt x="173" y="-45" on="0"/>
        <pt x="193" y="67" on="0"/>
        <pt x="193" y="134" on="1"/>
      </contour>
    </TTGlyph>
    <TTGlyph name="jcircumflex" xMin="-130" yMin="-530" xMax="812" yMax="1890">
      <component glyphName="dotlessj" x="0" y="0" flags="0x204"/>
      <component glyphName="circumflex" x="-198" y="0" flags="0x4"/>
    </TTGlyph>
    <TTGlyph name="k" xMin="186" yMin="0" xMax="1526" yMax="1659">
      <contour>
        <pt x="186" y="1659" on="1"/>
        <pt x="482" y="1659" on="1"/>
        <pt x="482" y="679" on="1"/>
        <pt x="1034" y="1180" on="1"/>
        <pt x="1487" y="1180" on="1"/>
        <pt x="870" y="628" on="1"/>
        <pt x="1526" y="0" on="1"/>
        <pt x="1082" y="0" on="1"/>
        <pt x="643" y="425" on="1"/>
        <pt x="482" y="281" on="1"/>
        <pt x="482" y="0" on="1"/>
        <pt x="186" y="0" on="1"/>
      </contour>
    </TTGlyph>
    <TTGlyph name="kcommaaccent" xMin="186" yMin="-530" xMax="1526" yMax="1659">
      <component glyphName="k" x="0" y="0" flags="0x204"/>
      <component glyphName="commaaccent" x="354" y="0" flags="0x4"/>
    </TTGlyph>
    <TTGlyph name="kgreenlandic" xMin="186" yMin="0" xMax="1526" yMax="1180">
      <contour>
        <pt x="186" y="1180" on="1"/>
        <pt x="482" y="1180" on="1"/>
        <pt x="482" y="679" on="1"/>
        <pt x="1034" y="1180" on="1"/>
        <pt x="1487" y="1180" on="1"/>
        <pt x="870" y="628" on="1"/>
        <pt x="1526" y="0" on="1"/>
        <pt x="1082" y="0" on="1"/>
        <pt x="643" y="425" on="1"/>
        <pt x="482" y="281" on="1"/>
        <pt x="482" y="0" on="1"/>
        <pt x="186" y="0" on="1"/>
      </contour>
    </TTGlyph>
    <TTGlyph name="l" xMin="193" yMin="0" xMax="489" yMax="1659">
      <contour>
        <pt x="193" y="1659" on="1"/>
        <pt x="489" y="1659" on="1"/>
        <pt x="489" y="0" on="1"/>
        <pt x="193" y="0" on="1"/>
      </contour>
    </TTGlyph>
    <TTGlyph name="lacute" xMin="4" yMin="0" xMax="691" yMax="2020">
      <contour>
        <pt x="4" y="1788" on="1"/>
        <pt x="580" y="2020" on="1"/>
        <pt x="691" y="1791" on="1"/>
        <pt x="103" y="1581" on="1"/>
      </contour>
      <contour>
        <pt x="193" y="1510" on="1"/>
        <pt x="489" y="1510" on="1"/>
        <pt x="489" y="0" on="1"/>
        <pt x="193" y="0" on="1"/>
      </contour>
    </TTGlyph>
    <TTGlyph name="lcaron" xMin="193" yMin="0" xMax="948" yMax="1694">
      <component glyphName="l" x="0" y="0" flags="0x4"/>
      <component glyphName="caronvertical" x="510" y="0" flags="0x4"/>
    </TTGlyph>
    <TTGlyph name="lcommaaccent" xMin="146" yMin="-530" xMax="546" yMax="1659">
      <component glyphName="l" x="0" y="0" flags="0x204"/>
      <component glyphName="commaaccent" x="-45" y="0" flags="0x4"/>
    </TTGlyph>
    <TTGlyph name="ldot" xMin="193" yMin="0" xMax="1349" yMax="1659">
      <component glyphName="l" x="0" y="0" flags="0x4"/>
      <component glyphName="period" x="683" y="645" flags="0x4"/>
    </TTGlyph>
    <TTGlyph name="less" xMin="187" yMin="154" xMax="1253" yMax="1416">
      <component glyphName="greater" x="1529" y="0" scalex="-0.999938964844" scaley="1.0" flags="0x4"/>
    </TTGlyph>
    <TTGlyph name="lessequal" xMin="36" yMin="-1" xMax="1102" yMax="1528">
      <contour>
        <pt x="965" y="1528" on="1"/>
        <pt x="1102" y="1313" on="1"/>
        <pt x="474" y="896" on="1"/>
        <pt x="1102" y="481" on="1"/>
        <pt x="965" y="266" on="1"/>
        <pt x="36" y="897" on="1"/>
      </contour>
      <contour>
        <pt x="137" y="221" on="1"/>
        <pt x="1054" y="221" on="1"/>
        <pt x="1054" y="-1" on="1"/>
        <pt x="137" y="-1" on="1"/>
      </contour>
    </TTGlyph>
    <TTGlyph name="logicalnot" xMin="137" yMin="481" xMax="1343" yMax="1060">
      <contour>
        <pt x="137" y="1060" on="1"/>
        <pt x="1343" y="1060" on="1"/>
        <pt x="1342" y="481" on="1"/>
        <pt x="1110" y="481" on="1"/>
        <pt x="1110" y="838" on="1"/>
        <pt x="137" y="838" on="1"/>
      </contour>
    </TTGlyph>
    <TTGlyph name="lozenge" xMin="204" yMin="213" xMax="1493" yMax="1203">
      <contour>
        <pt x="846" y="1203" on="1"/>
        <pt x="1493" y="708" on="1"/>
        <pt x="846" y="213" on="1"/>
        <pt x="204" y="708" on="1"/>
      </contour>
      <contour>
        <pt x="846" y="502" on="1"/>
        <pt x="1115" y="708" on="1"/>
        <pt x="846" y="914" on="1"/>
        <pt x="578" y="708" on="1"/>
      </contour>
    </TTGlyph>
    <TTGlyph name="lslash" xMin="40" yMin="0" xMax="983" yMax="1659">
      <contour>
        <pt x="40" y="759" on="1"/>
        <pt x="894" y="1143" on="1"/>
        <pt x="983" y="940" on="1"/>
        <pt x="129" y="555" on="1"/>
      </contour>
      <contour>
        <pt x="363" y="1659" on="1"/>
        <pt x="659" y="1659" on="1"/>
        <pt x="659" y="0" on="1"/>
        <pt x="363" y="0" on="1"/>
      </contour>
    </TTGlyph>
    <TTGlyph name="m" xMin="193" yMin="0" xMax="2528" yMax="1201">
      <contour>
        <pt x="193" y="1180" on="1"/>
        <pt x="489" y="1180" on="1"/>
        <pt x="489" y="1080" on="1"/>
        <pt x="600" y="1148" on="0"/>
        <pt x="811" y="1201" on="0"/>
        <pt x="912" y="1201" on="1"/>
        <pt x="1053" y="1201" on="0"/>
        <pt x="1289" y="1111" on="0"/>
        <pt x="1373" y="1020" on="1"/>
        <pt x="1438" y="1070" on="0"/>
        <pt x="1564" y="1139" on="0"/>
        <pt x="1690" y="1182" on="0"/>
        <pt x="1820" y="1201" on="0"/>
        <pt x="1889" y="1201" on="1"/>
        <pt x="2034" y="1201" on="0"/>
        <pt x="2270" y="1122" on="0"/>
        <pt x="2437" y="966" on="0"/>
        <pt x="2528" y="733" on="0"/>
        <pt x="2528" y="580" on="1"/>
        <pt x="2528" y="0" on="1"/>
        <pt x="2233" y="0" on="1"/>
        <pt x="2233" y="532" on="1"/>
        <pt x="2233" y="629" on="0"/>
        <pt x="2178" y="782" on="0"/>
        <pt x="2079" y="887" on="0"/>
        <pt x="1942" y="942" on="0"/>
        <pt x="1860" y="942" on="1"/>
        <pt x="1815" y="942" on="0"/>
        <pt x="1721" y="925" on="0"/>
        <pt x="1632" y="889" on="0"/>
        <pt x="1554" y="834" on="0"/>
        <pt x="1525" y="797" on="1"/>
        <pt x="1525" y="0" on="1"/>
        <pt x="1230" y="0" on="1"/>
        <pt x="1230" y="532" on="1"/>
        <pt x="1230" y="629" on="0"/>
        <pt x="1175" y="782" on="0"/>
        <pt x="1076" y="887" on="0"/>
        <pt x="937" y="942" on="0"/>
        <pt x="854" y="942" on="1"/>
        <pt x="803" y="942" on="0"/>
        <pt x="700" y="921" on="0"/>
        <pt x="605" y="883" on="0"/>
        <pt x="522" y="829" on="0"/>
        <pt x="489" y="795" on="1"/>
        <pt x="489" y="0" on="1"/>
        <pt x="193" y="0" on="1"/>
      </contour>
    </TTGlyph>
    <TTGlyph name="macron" xMin="100" yMin="1447" xMax="1093" yMax="1690">
      <contour>
        <pt x="100" y="1690" on="1"/>
        <pt x="1093" y="1690" on="1"/>
        <pt x="1093" y="1447" on="1"/>
        <pt x="100" y="1447" on="1"/>
      </contour>
    </TTGlyph>
    <TTGlyph name="macron.cap" xMin="-56" yMin="1770" xMax="737" yMax="2013">
      <contour>
        <pt x="-56" y="2013" on="1"/>
        <pt x="737" y="2013" on="1"/>
        <pt x="737" y="1770" on="1"/>
        <pt x="-56" y="1770" on="1"/>
      </contour>
    </TTGlyph>
    <TTGlyph name="minus" xMin="137" yMin="684" xMax="1054" yMax="906">
      <contour>
        <pt x="137" y="906" on="1"/>
        <pt x="1054" y="906" on="1"/>
        <pt x="1054" y="684" on="1"/>
        <pt x="137" y="684" on="1"/>
      </contour>
    </TTGlyph>
    <TTGlyph name="mu" xMin="185" yMin="-481" xMax="1519" yMax="1181">
      <contour>
        <pt x="481" y="-481" on="1"/>
        <pt x="185" y="-481" on="1"/>
        <pt x="186" y="1180" on="1"/>
        <pt x="186" y="1181" on="1"/>
        <pt x="482" y="1181" on="1"/>
        <pt x="482" y="605" on="1"/>
        <pt x="482" y="523" on="0"/>
        <pt x="518" y="388" on="0"/>
        <pt x="605" y="292" on="0"/>
        <pt x="750" y="239" on="0"/>
        <pt x="858" y="239" on="1"/>
        <pt x="909" y="239" on="0"/>
        <pt x="1014" y="261" on="0"/>
        <pt x="1110" y="300" on="0"/>
        <pt x="1193" y="354" on="0"/>
        <pt x="1223" y="386" on="1"/>
        <pt x="1223" y="1181" on="1"/>
        <pt x="1519" y="1181" on="1"/>
        <pt x="1519" y="1" on="1"/>
        <pt x="1223" y="1" on="1"/>
        <pt x="1223" y="101" on="1"/>
        <pt x="1114" y="36" on="0"/>
        <pt x="894" y="-20" on="0"/>
        <pt x="795" y="-20" on="1"/>
        <pt x="703" y="-20" on="0"/>
        <pt x="546" y="19" on="0"/>
        <pt x="481" y="62" on="1"/>
      </contour>
    </TTGlyph>
    <TTGlyph name="multiply" xMin="207" yMin="313" xMax="1153" yMax="1259">
      <contour>
        <pt x="207" y="470" on="1"/>
        <pt x="519" y="782" on="1"/>
        <pt x="207" y="1095" on="1"/>
        <pt x="371" y="1259" on="1"/>
        <pt x="683" y="946" on="1"/>
        <pt x="996" y="1259" on="1"/>
        <pt x="1153" y="1102" on="1"/>
        <pt x="840" y="789" on="1"/>
        <pt x="1153" y="477" on="1"/>
        <pt x="989" y="313" on="1"/>
        <pt x="676" y="625" on="1"/>
        <pt x="364" y="313" on="1"/>
      </contour>
    </TTGlyph>
    <TTGlyph name="n" xMin="185" yMin="0" xMax="1545" yMax="1201">
      <contour>
        <pt x="185" y="1180" on="1"/>
        <pt x="481" y="1180" on="1"/>
        <pt x="481" y="1080" on="1"/>
        <pt x="599" y="1147" on="0"/>
        <pt x="814" y="1201" on="0"/>
        <pt x="917" y="1201" on="1"/>
        <pt x="1052" y="1201" on="0"/>
        <pt x="1282" y="1122" on="0"/>
        <pt x="1450" y="966" on="0"/>
        <pt x="1545" y="733" on="0"/>
        <pt x="1545" y="580" on="1"/>
        <pt x="1545" y="0" on="1"/>
        <pt x="1250" y="0" on="1"/>
        <pt x="1250" y="532" on="1"/>
        <pt x="1250" y="629" on="0"/>
        <pt x="1195" y="782" on="0"/>
        <pt x="1092" y="887" on="0"/>
        <pt x="945" y="942" on="0"/>
        <pt x="854" y="942" on="1"/>
        <pt x="806" y="942" on="0"/>
        <pt x="705" y="922" on="0"/>
        <pt x="608" y="885" on="0"/>
        <pt x="518" y="830" on="0"/>
        <pt x="481" y="795" on="1"/>
        <pt x="481" y="0" on="1"/>
        <pt x="185" y="0" on="1"/>
      </contour>
    </TTGlyph>
    <TTGlyph name="nacute" xMin="185" yMin="0" xMax="1545" yMax="1849">
      <component glyphName="n" x="0" y="0" flags="0x204"/>
      <component glyphName="acute" x="369" y="0" flags="0x4"/>
    </TTGlyph>
    <TTGlyph name="ncaron" xMin="185" yMin="0" xMax="1545" yMax="1854">
      <component glyphName="n" x="0" y="0" flags="0x204"/>
      <component glyphName="caron" x="226" y="0" flags="0x4"/>
    </TTGlyph>
    <TTGlyph name="ncommaaccent" xMin="185" yMin="-530" xMax="1545" yMax="1201">
      <component glyphName="n" x="0" y="0" flags="0x204"/>
      <component glyphName="commaaccent" x="466" y="0" flags="0x4"/>
    </TTGlyph>
    <TTGlyph name="nine" xMin="183" yMin="-22" xMax="1682" yMax="1582">
      <contour>
        <pt x="415" y="361" on="1"/>
        <pt x="458" y="336" on="0"/>
        <pt x="564" y="298" on="0"/>
        <pt x="677" y="273" on="0"/>
        <pt x="792" y="260" on="0"/>
        <pt x="844" y="260" on="1"/>
        <pt x="960" y="260" on="0"/>
        <pt x="1147" y="320" on="0"/>
        <pt x="1283" y="430" on="0"/>
        <pt x="1364" y="583" on="0"/>
        <pt x="1374" y="676" on="1"/>
        <pt x="1322" y="635" on="0"/>
        <pt x="1196" y="575" on="0"/>
        <pt x="1055" y="536" on="0"/>
        <pt x="906" y="517" on="0"/>
        <pt x="831" y="517" on="1"/>
        <pt x="685" y="517" on="0"/>
        <pt x="446" y="587" on="0"/>
        <pt x="276" y="719" on="0"/>
        <pt x="183" y="908" on="0"/>
        <pt x="183" y="1028" on="1"/>
        <pt x="183" y="1146" on="0"/>
        <pt x="276" y="1348" on="0"/>
        <pt x="458" y="1497" on="0"/>
        <pt x="728" y="1582" on="0"/>
        <pt x="906" y="1582" on="1"/>
        <pt x="1079" y="1582" on="0"/>
        <pt x="1365" y="1494" on="0"/>
        <pt x="1569" y="1308" on="0"/>
        <pt x="1682" y="1021" on="0"/>
        <pt x="1682" y="822" on="1"/>
        <pt x="1682" y="609" on="0"/>
        <pt x="1555" y="292" on="0"/>
        <pt x="1334" y="82" on="0"/>
        <pt x="1034" y="-22" on="0"/>
        <pt x="860" y="-22" on="1"/>
        <pt x="787" y="-22" on="0"/>
        <pt x="630" y="-4" on="0"/>
        <pt x="476" y="32" on="0"/>
        <pt x="333" y="86" on="0"/>
        <pt x="274" y="121" on="1"/>
      </contour>
      <contour>
        <pt x="500" y="1033" on="1"/>
        <pt x="500" y="984" on="0"/>
        <pt x="542" y="898" on="0"/>
        <pt x="631" y="835" on="0"/>
        <pt x="771" y="798" on="0"/>
        <pt x="870" y="798" on="1"/>
        <pt x="953" y="798" on="0"/>
        <pt x="1101" y="824" on="0"/>
        <pt x="1227" y="870" on="0"/>
        <pt x="1330" y="932" on="0"/>
        <pt x="1367" y="969" on="1"/>
        <pt x="1343" y="1133" on="0"/>
        <pt x="1103" y="1300" on="0"/>
        <pt x="908" y="1300" on="1"/>
        <pt x="810" y="1300" on="0"/>
        <pt x="658" y="1260" on="0"/>
        <pt x="554" y="1189" on="0"/>
        <pt x="500" y="1091" on="0"/>
      </contour>
    </TTGlyph>
    <TTGlyph name="nonbreakingspace" xMin="0" yMin="0" xMax="0" yMax="0">
      <component glyphName="space" x="0" y="0" flags="0x204"/>
    </TTGlyph>
    <TTGlyph name="notequal" xMin="137" yMin="178" xMax="1054" yMax="1360">
      <contour>
        <pt x="809" y="1360" on="1"/>
        <pt x="1036" y="1360" on="1"/>
        <pt x="383" y="178" on="1"/>
        <pt x="156" y="178" on="1"/>
      </contour>
      <contour>
        <pt x="137" y="1100" on="1"/>
        <pt x="1054" y="1100" on="1"/>
        <pt x="1054" y="878" on="1"/>
        <pt x="137" y="878" on="1"/>
      </contour>
      <contour>
        <pt x="137" y="686" on="1"/>
        <pt x="1054" y="686" on="1"/>
        <pt x="1054" y="464" on="1"/>
        <pt x="137" y="464" on="1"/>
      </contour>
    </TTGlyph>
    <TTGlyph name="ntilde" xMin="185" yMin="0" xMax="1545" yMax="1783">
      <component glyphName="n" x="0" y="0" flags="0x204"/>
      <component glyphName="tilde" x="247" y="0" flags="0x4"/>
    </TTGlyph>
    <TTGlyph name="numbersign" xMin="157" yMin="0" xMax="1890" yMax="1573">
      <contour>
        <pt x="430" y="387" on="1"/>
        <pt x="157" y="387" on="1"/>
        <pt x="157" y="609" on="1"/>
        <pt x="478" y="609" on="1"/>
        <pt x="558" y="986" on="1"/>
        <pt x="157" y="986" on="1"/>
        <pt x="157" y="1208" on="1"/>
        <pt x="605" y="1208" on="1"/>
        <pt x="683" y="1573" on="1"/>
        <pt x="940" y="1573" on="1"/>
        <pt x="862" y="1208" on="1"/>
        <pt x="1335" y="1208" on="1"/>
        <pt x="1413" y="1573" on="1"/>
        <pt x="1670" y="1573" on="1"/>
        <pt x="1592" y="1208" on="1"/>
        <pt x="1890" y="1208" on="1"/>
        <pt x="1890" y="986" on="1"/>
        <pt x="1545" y="986" on="1"/>
        <pt x="1465" y="609" on="1"/>
        <pt x="1890" y="609" on="1"/>
        <pt x="1890" y="387" on="1"/>
        <pt x="1417" y="387" on="1"/>
        <pt x="1335" y="0" on="1"/>
        <pt x="1078" y="0" on="1"/>
        <pt x="1160" y="387" on="1"/>
        <pt x="687" y="387" on="1"/>
        <pt x="605" y="0" on="1"/>
        <pt x="348" y="0" on="1"/>
      </contour>
      <contour>
        <pt x="1208" y="609" on="1"/>
        <pt x="1288" y="986" on="1"/>
        <pt x="815" y="986" on="1"/>
        <pt x="735" y="609" on="1"/>
      </contour>
    </TTGlyph>
    <TTGlyph name="o" xMin="114" yMin="-21" xMax="1582" yMax="1201">
      <contour>
        <pt x="114" y="590" on="1"/>
        <pt x="114" y="717" on="0"/>
        <pt x="217" y="939" on="0"/>
        <pt x="408" y="1105" on="0"/>
        <pt x="679" y="1201" on="0"/>
        <pt x="848" y="1201" on="1"/>
        <pt x="1017" y="1201" on="0"/>
        <pt x="1288" y="1105" on="0"/>
        <pt x="1479" y="939" on="0"/>
        <pt x="1582" y="717" on="0"/>
        <pt x="1582" y="590" on="1"/>
        <pt x="1582" y="463" on="0"/>
        <pt x="1479" y="241" on="0"/>
        <pt x="1288" y="75" on="0"/>
        <pt x="1017" y="-21" on="0"/>
        <pt x="848" y="-21" on="1"/>
        <pt x="679" y="-21" on="0"/>
        <pt x="408" y="75" on="0"/>
        <pt x="217" y="241" on="0"/>
        <pt x="114" y="463" on="0"/>
      </contour>
      <contour>
        <pt x="425" y="590" on="1"/>
        <pt x="425" y="519" on="0"/>
        <pt x="482" y="392" on="0"/>
        <pt x="591" y="295" on="0"/>
        <pt x="748" y="238" on="0"/>
        <pt x="848" y="238" on="1"/>
        <pt x="948" y="238" on="0"/>
        <pt x="1105" y="295" on="0"/>
        <pt x="1214" y="392" on="0"/>
        <pt x="1271" y="519" on="0"/>
        <pt x="1271" y="590" on="1"/>
        <pt x="1271" y="661" on="0"/>
        <pt x="1214" y="789" on="0"/>
        <pt x="1105" y="886" on="0"/>
        <pt x="948" y="943" on="0"/>
        <pt x="848" y="943" on="1"/>
        <pt x="748" y="943" on="0"/>
        <pt x="591" y="886" on="0"/>
        <pt x="482" y="789" on="0"/>
        <pt x="425" y="661" on="0"/>
      </contour>
    </TTGlyph>
    <TTGlyph name="oacute" xMin="114" yMin="-21" xMax="1582" yMax="1849">
      <component glyphName="o" x="0" y="0" flags="0x204"/>
      <component glyphName="acute" x="352" y="0" flags="0x4"/>
    </TTGlyph>
    <TTGlyph name="obreve" xMin="114" yMin="-21" xMax="1582" yMax="1737">
      <component glyphName="o" x="0" y="0" flags="0x204"/>
      <component glyphName="breve" x="317" y="0" flags="0x4"/>
    </TTGlyph>
    <TTGlyph name="ocircumflex" xMin="114" yMin="-21" xMax="1582" yMax="1890">
      <component glyphName="o" x="0" y="0" flags="0x204"/>
      <component glyphName="circumflex" x="309" y="0" flags="0x4"/>
    </TTGlyph>
    <TTGlyph name="odieresis" xMin="114" yMin="-21" xMax="1582" yMax="1763">
      <component glyphName="o" x="0" y="0" flags="0x204"/>
      <component glyphName="dieresis" x="237" y="0" flags="0x4"/>
    </TTGlyph>
    <TTGlyph name="oe" xMin="114" yMin="-21" xMax="2720" yMax="1201">
      <component glyphName="o" x="0" y="0" flags="0x4"/>
      <component glyphName="e" x="1142" y="0" flags="0x4"/>
    </TTGlyph>
    <TTGlyph name="ogonek" xMin="120" yMin="-530" xMax="765" yMax="65">
      <contour>
        <pt x="120" y="-292" on="1"/>
        <pt x="120" y="-251" on="0"/>
        <pt x="155" y="-162" on="0"/>
        <pt x="237" y="-70" on="0"/>
        <pt x="371" y="21" on="0"/>
        <pt x="470" y="65" on="1"/>
        <pt x="665" y="65" on="1"/>
        <pt x="765" y="0" on="1"/>
        <pt x="652" y="-26" on="0"/>
        <pt x="509" y="-84" on="0"/>
        <pt x="426" y="-144" on="0"/>
        <pt x="395" y="-202" on="0"/>
        <pt x="395" y="-226" on="1"/>
        <pt x="395" y="-262" on="0"/>
        <pt x="451" y="-310" on="0"/>
        <pt x="508" y="-310" on="1"/>
        <pt x="548" y="-310" on="0"/>
        <pt x="630" y="-285" on="0"/>
        <pt x="672" y="-263" on="1"/>
        <pt x="749" y="-451" on="1"/>
        <pt x="668" y="-492" on="0"/>
        <pt x="513" y="-530" on="0"/>
        <pt x="439" y="-530" on="1"/>
        <pt x="359" y="-530" on="0"/>
        <pt x="239" y="-489" on="0"/>
        <pt x="160" y="-423" on="0"/>
        <pt x="120" y="-337" on="0"/>
      </contour>
    </TTGlyph>
    <TTGlyph name="ograve" xMin="114" yMin="-21" xMax="1582" yMax="1849">
      <component glyphName="o" x="0" y="0" flags="0x204"/>
      <component glyphName="grave" x="324" y="0" flags="0x4"/>
    </TTGlyph>
    <TTGlyph name="ohungarumlaut" xMin="114" yMin="-21" xMax="1582" yMax="1919">
      <component glyphName="o" x="0" y="0" flags="0x204"/>
      <component glyphName="hungarumlaut" x="295" y="0" flags="0x4"/>
    </TTGlyph>
    <TTGlyph name="omacron" xMin="114" yMin="-21" xMax="1582" yMax="1690">
      <component glyphName="o" x="0" y="0" flags="0x204"/>
      <component glyphName="macron" x="252" y="0" flags="0x4"/>
    </TTGlyph>
    <TTGlyph name="one" xMin="110" yMin="0" xMax="1174" yMax="1563">
      <contour>
        <pt x="163" y="278" on="1"/>
        <pt x="518" y="278" on="1"/>
        <pt x="518" y="1251" on="1"/>
        <pt x="448" y="1235" on="0"/>
        <pt x="319" y="1183" on="0"/>
        <pt x="266" y="1146" on="1"/>
        <pt x="110" y="1369" on="1"/>
        <pt x="196" y="1423" on="0"/>
        <pt x="375" y="1498" on="0"/>
        <pt x="558" y="1543" on="0"/>
        <pt x="743" y="1563" on="0"/>
        <pt x="835" y="1563" on="1"/>
        <pt x="834" y="1561" on="1"/>
        <pt x="835" y="1561" on="1"/>
        <pt x="835" y="278" on="1"/>
        <pt x="1174" y="278" on="1"/>
        <pt x="1174" y="0" on="1"/>
        <pt x="163" y="0" on="1"/>
      </contour>
    </TTGlyph>
    <TTGlyph name="onehalf" xMin="210" yMin="-177" xMax="2705" yMax="1920">
      <contour>
        <pt x="1874" y="1920" on="1"/>
        <pt x="2141" y="1920" on="1"/>
        <pt x="859" y="-177" on="1"/>
        <pt x="592" y="-177" on="1"/>
      </contour>
      <contour>
        <pt x="274" y="912" on="1"/>
        <pt x="491" y="912" on="1"/>
        <pt x="491" y="1551" on="1"/>
        <pt x="407" y="1528" on="0"/>
        <pt x="329" y="1481" on="1"/>
        <pt x="210" y="1655" on="1"/>
        <pt x="320" y="1721" on="0"/>
        <pt x="582" y="1788" on="0"/>
        <pt x="728" y="1788" on="1"/>
        <pt x="727" y="1787" on="1"/>
        <pt x="728" y="1787" on="1"/>
        <pt x="728" y="912" on="1"/>
        <pt x="917" y="912" on="1"/>
        <pt x="917" y="698" on="1"/>
        <pt x="274" y="698" on="1"/>
      </contour>
      <contour>
        <pt x="1801" y="206" on="1"/>
        <pt x="2172" y="473" on="1"/>
        <pt x="2250" y="528" on="0"/>
        <pt x="2346" y="607" on="0"/>
        <pt x="2400" y="668" on="0"/>
        <pt x="2418" y="717" on="0"/>
        <pt x="2418" y="742" on="1"/>
        <pt x="2418" y="803" on="0"/>
        <pt x="2320" y="873" on="0"/>
        <pt x="2217" y="873" on="1"/>
        <pt x="2136" y="873" on="0"/>
        <pt x="1960" y="821" on="0"/>
        <pt x="1874" y="770" on="1"/>
        <pt x="1774" y="957" on="1"/>
        <pt x="1874" y="1020" on="0"/>
        <pt x="2109" y="1089" on="0"/>
        <pt x="2236" y="1089" on="1"/>
        <pt x="2347" y="1089" on="0"/>
        <pt x="2511" y="1035" on="0"/>
        <pt x="2619" y="943" on="0"/>
        <pt x="2672" y="822" on="0"/>
        <pt x="2672" y="755" on="1"/>
        <pt x="2672" y="714" on="0"/>
        <pt x="2647" y="621" on="0"/>
        <pt x="2570" y="513" on="0"/>
        <pt x="2430" y="387" on="0"/>
        <pt x="2316" y="312" on="1"/>
        <pt x="2161" y="201" on="1"/>
        <pt x="2705" y="201" on="1"/>
        <pt x="2705" y="-13" on="1"/>
        <pt x="1801" y="-13" on="1"/>
      </contour>
    </TTGlyph>
    <TTGlyph name="onequarter" xMin="210" yMin="-177" xMax="2684" yMax="1920">
      <contour>
        <pt x="1904" y="1920" on="1"/>
        <pt x="2171" y="1920" on="1"/>
        <pt x="889" y="-177" on="1"/>
        <pt x="622" y="-177" on="1"/>
      </contour>
      <contour>
        <pt x="1638" y="414" on="1"/>
        <pt x="2262" y="1063" on="1"/>
        <pt x="2499" y="1063" on="1"/>
        <pt x="2499" y="414" on="1"/>
        <pt x="2684" y="414" on="1"/>
        <pt x="2684" y="200" on="1"/>
        <pt x="2499" y="200" on="1"/>
        <pt x="2499" y="0" on="1"/>
        <pt x="2262" y="0" on="1"/>
        <pt x="2262" y="200" on="1"/>
        <pt x="1638" y="200" on="1"/>
      </contour>
      <contour>
        <pt x="2262" y="414" on="1"/>
        <pt x="2262" y="771" on="1"/>
        <pt x="1915" y="414" on="1"/>
      </contour>
      <contour>
        <pt x="274" y="912" on="1"/>
        <pt x="491" y="912" on="1"/>
        <pt x="491" y="1551" on="1"/>
        <pt x="407" y="1528" on="0"/>
        <pt x="329" y="1481" on="1"/>
        <pt x="210" y="1655" on="1"/>
        <pt x="320" y="1721" on="0"/>
        <pt x="582" y="1788" on="0"/>
        <pt x="728" y="1788" on="1"/>
        <pt x="727" y="1787" on="1"/>
        <pt x="728" y="1787" on="1"/>
        <pt x="728" y="912" on="1"/>
        <pt x="917" y="912" on="1"/>
        <pt x="917" y="698" on="1"/>
        <pt x="274" y="698" on="1"/>
      </contour>
    </TTGlyph>
    <TTGlyph name="onesuperior" xMin="80" yMin="698" xMax="787" yMax="1788">
      <contour>
        <pt x="144" y="912" on="1"/>
        <pt x="361" y="912" on="1"/>
        <pt x="361" y="1551" on="1"/>
        <pt x="277" y="1528" on="0"/>
        <pt x="199" y="1481" on="1"/>
        <pt x="80" y="1655" on="1"/>
        <pt x="190" y="1721" on="0"/>
        <pt x="452" y="1788" on="0"/>
        <pt x="598" y="1788" on="1"/>
        <pt x="597" y="1787" on="1"/>
        <pt x="598" y="1787" on="1"/>
        <pt x="598" y="912" on="1"/>
        <pt x="787" y="912" on="1"/>
        <pt x="787" y="698" on="1"/>
        <pt x="144" y="698" on="1"/>
      </contour>
    </TTGlyph>
</ttFont>
